SplineFontDB: 3.0
FontName: CrimsonText-Roman
FullName: Crimson Text
FamilyName: Crimson Text
Weight: Roman
Copyright: Copyright (c) 2010, Sebastian Kosch (sebastian@aldusleaf.org),\nwith Reserved Font Name "Crimson Text".\nThis Font Software is licensed under the SIL Open Font License, Version 1.1.\nThis license is available with a FAQ at: http://scripts.sil.org/OFL
Version: 0.13
ItalicAngle: 0
UnderlinePosition: -112
UnderlineWidth: 47
Ascent: 717
Descent: 307
sfntRevision: 0x00002147
LayerCount: 2
Layer: 0 0 "Back"  1
Layer: 1 0 "Fore"  0
NeedsXUIDChange: 1
XUID: [1021 559 149143806 1270264]
FSType: 0
OS2Version: 3
OS2_WeightWidthSlopeOnly: 0
OS2_UseTypoMetrics: 1
CreationTime: 1270926789
ModificationTime: 1282594379
PfmFamily: 17
TTFWeight: 400
TTFWidth: 5
LineGap: 92
VLineGap: 0
Panose: 2 0 5 3 0 0 0 0 0 0
OS2TypoAscent: 0
OS2TypoAOffset: 1
OS2TypoDescent: 0
OS2TypoDOffset: 1
OS2TypoLinegap: 307
OS2WinAscent: 0
OS2WinAOffset: 1
OS2WinDescent: 0
OS2WinDOffset: 1
HheadAscent: 0
HheadAOffset: 1
HheadDescent: 0
HheadDOffset: 1
OS2SubXSize: 666
OS2SubYSize: 716
OS2SubXOff: 0
OS2SubYOff: 143
OS2SupXSize: 666
OS2SupYSize: 716
OS2SupXOff: 0
OS2SupYOff: 490
OS2StrikeYSize: 50
OS2StrikeYPos: 264
OS2FamilyClass: 258
OS2Vendor: 'PfEd'
OS2CodePages: 20000001.00000000
OS2UnicodeRanges: 80000043.40000062.00000000.00000000
Lookup: 4 0 1 "'dlig' Standard Ligatures lookup 14"  {"'liga' Standard Ligatures lookup 14-1"  } ['dlig' ('DFLT' <'dflt' > 'grek' <'dflt' > 'latn' <'AZE ' 'CRT ' 'DEU ' 'FRA ' 'ITA ' 'MOL ' 'ROM ' 'TRK ' 'dflt' > ) ]
Lookup: 6 0 0 "Short f"  {"Short f-1"  } ['calt' ('DFLT' <'dflt' > 'grek' <'dflt' > 'latn' <'AZE ' 'CRT ' 'DEU ' 'FRA ' 'ITA ' 'MOL ' 'ROM ' 'TRK ' 'dflt' > ) ]
Lookup: 1 0 0 "Short f substition"  {"Short f substition-1"  } []

StartChar: exclam
Encoding: 33 33 1
Width: 165
Flags: W
HStem: -14 116<38.2549 127.152> 622 20G<69 100.5>
VStem: 25 115<-1.2356 90.0031> 33 97<321.44 631.133>
LayerCount: 2
Fore
SplineSet
85 642 m 0xd0
 116 642 130 610 130 579 c 0
 130 551 114 441 99 181 c 0
 98 161 95 157 75 148 c 0
 68 145 63 158 62 170 c 0
 43 477 33 528 33 579 c 0
 33 611 53 642 85 642 c 0xd0
25 45 m 0xe0
 25 77 51 102 83 102 c 0
 115 102 140 77 140 45 c 0
 140 13 115 -14 83 -14 c 0
 51 -14 25 13 25 45 c 0xe0
EndSplineSet
Validated: 1
Substitution2: "'sinf' Scientific Inferiors lookup 5-1" exclam.sinf
Substitution2: "'sups' Superscript lookup 6-1" exclam.ssup
Substitution2: "'smcp' Lowercase to Small Capitals lookup 2-1" exclam.sc
Substitution2: "'subs' Subscript lookup 1-1" exclam.subs
Substitution2: "'ordn' Ordinals lookup 0-1" exclam.ordn
EndChar

StartChar: quotedbl
Encoding: 34 34 2
Width: 324
Flags: W
HStem: 434 264<64.0527 98.6168 227.42 259.623>
VStem: 30 99<522.226 678.189> 194 98<522.226 679.379>
LayerCount: 2
Fore
SplineSet
85 698 m 2
 99 698 l 2
 115 698 129 692 129 633 c 0
 129 577 104 516 98 449 c 0
 97 439 89 434 82 434 c 0
 74 434 65 439 64 447 c 0
 55 537 30 594 30 635 c 0
 30 653 59 698 85 698 c 2
248 698 m 2
 263 698 l 2
 279 698 292 692 292 633 c 0
 292 577 265 516 259 449 c 0
 258 439 250 434 243 434 c 0
 236 434 229 439 228 447 c 0
 219 537 194 594 194 635 c 0
 194 653 222 698 248 698 c 2
EndSplineSet
Validated: 1
Substitution2: "'smcp' Lowercase to Small Capitals lookup 2-1" quotedbl.sc
EndChar

StartChar: numbersign
Encoding: 35 35 3
Width: 475
Flags: W
HStem: 175 56<35.0959 119 185 270 336 442.493> 317 57<35.0959 140 207 292 358 442.215>
LayerCount: 2
Fore
SplineSet
304 24 m 1
 304 24 307 15 274 15 c 2
 261 15 l 2
 247 15 248 24 248 24 c 1
 270 175 l 1
 176 175 l 1
 154 24 l 2
 153 23 156 15 123 15 c 2
 110 15 l 2
 96 15 96 24 96 24 c 1
 119 175 l 1
 33 175 l 1
 33 175 27 175 27 185 c 0
 27 189 28 202 35 226 c 0
 37 232 42 231 42 231 c 1
 128 231 l 1
 140 317 l 1
 33 317 l 1
 33 317 27 318 27 328 c 0
 27 332 28 345 35 369 c 0
 37 375 42 374 42 374 c 1
 149 374 l 1
 173 530 l 2
 174 531 172 539 220 539 c 0
 234 539 230 530 230 530 c 1
 207 374 l 1
 301 374 l 1
 325 530 l 2
 326 531 324 539 372 539 c 0
 386 539 382 530 382 530 c 1
 358 374 l 1
 440 374 l 1
 440 374 447 377 447 367 c 0
 447 359 443 340 438 324 c 0
 436 318 432 317 432 317 c 1
 349 317 l 1
 336 231 l 1
 440 231 l 1
 440 231 447 234 447 224 c 0
 447 216 443 197 438 181 c 0
 436 175 432 175 432 175 c 1
 328 175 l 1
 304 24 l 1
280 231 m 1
 292 317 l 1
 198 317 l 1
 185 231 l 1
 280 231 l 1
EndSplineSet
Validated: 1
Substitution2: "'smcp' Lowercase to Small Capitals lookup 2-1" numbersign.sc
EndChar

StartChar: dollar
Encoding: 36 36 4
Width: 451
Flags: W
HStem: -8 39<167.671 293.551> 602 42<144.948 252.376>
VStem: 25 40<114.228 173.894> 35 76<439.046 552.445> 144 35<-48.3816 -8.51413> 264 35<639.634 680.877> 342 83<88.5059 208.568> 348 33<477.308 528.295>
LayerCount: 2
Fore
SplineSet
179 -52 m 17xcc
 170 -52 144 -50 144 -43 c 9
 264 683 l 17
 272 683 299 683 299 676 c 9
 179 -52 l 17xcc
221 -8 m 0
 161 -8 92 8 53 15 c 1
 40 50 27 124 25 166 c 0
 25 171 35 174 43 174 c 0
 52 174 62 169 65 166 c 1
 76 125 105 31 223 31 c 0
 283 31 342 67 342 141 c 0xee
 342 218 278.712 245.328 233 269 c 0
 121 327 35 377 35 473 c 0
 35 572 126 644 225 644 c 0
 276 644 345 625 370 621 c 1
 375 580 381 542 381 484 c 0
 381 476 378 476 374 476 c 0
 364 477 349.235 478.847 348 487 c 0xdd
 343 520 302 602 220 602 c 0
 150 602 111 570 111 505 c 0
 111 437 165.305 404.33 232 366 c 0
 319 316 425 266.452 425 170 c 0xde
 425 64 327 -8 221 -8 c 0
EndSplineSet
Validated: 524293
Substitution2: "'smcp' Lowercase to Small Capitals lookup 2-1" dollar.sc
EndChar

StartChar: percent
Encoding: 37 37 5
Width: 634
Flags: W
HStem: -7 25<434.434 504.549> 289 24<421.266 490.513> 325 25<146.003 214.1> 621 24<132.377 201.599>
VStem: 23 64<408.045 571.079> 254 66<399.6 570.458> 311 64<76.045 237.871> 542 66<66.3943 238.458>
LayerCount: 2
Fore
SplineSet
169 621 m 0xfd
 110 621 87 555 87 496 c 0
 87 427 129 350 179 350 c 0
 237 350 254 418 254 476 c 0
 254 543 222 621 169 621 c 0xfd
173 645 m 0
 260 645 320 571 320 484 c 0
 320 404 264 325 173 325 c 0
 90 325 23 396 23 484 c 0
 23 573 84 645 173 645 c 0
458 289 m 0
 399 289 375 223 375 164 c 0xfb
 375 95 418 18 468 18 c 0
 526 18 542 86 542 144 c 0
 542 211 511 289 458 289 c 0
462 313 m 0
 549 313 608 239 608 152 c 0
 608 72 553 -7 461 -7 c 0
 378 -7 311 64 311 152 c 0
 311 241 373 313 462 313 c 0
581 624 m 1
 98 0 l 2
 94 -5 77 -12 65 -12 c 0
 51 -12 48 -3 47 -1 c 1
 529 624 l 2
 534 630 543 636 549 636 c 0
 578 636 572 633 581 624 c 1
EndSplineSet
Validated: 1
Substitution2: "'sinf' Scientific Inferiors lookup 5-1" percent.sinf
Substitution2: "'sups' Superscript lookup 6-1" percent.ssup
Substitution2: "'smcp' Lowercase to Small Capitals lookup 2-1" percent.sc
Substitution2: "'subs' Subscript lookup 1-1" percent.subs
Substitution2: "'ordn' Ordinals lookup 0-1" percent.ordn
EndChar

StartChar: ampersand
Encoding: 38 38 6
Width: 661
Flags: W
HStem: 0 45<162.04 324.655 513.376 590.038> 289 23<435.794 479.785 570.031 630.493> 620 36<238.491 334.308>
VStem: 26 86<94.0843 236.46> 137 70<447.578 594.463> 363 63<465.969 596.677>
LayerCount: 2
Fore
SplineSet
557 272 m 0
 552 269 514 194 453 123 c 1
 498 76 534 45 558 45 c 0
 584 45 603 75 607 91 c 1
 618 91 630 80 630 73 c 0
 630 66 598 0 521 0 c 0
 488 0 461 18 442 35 c 2
 402 72 l 1
 354 30 286 -3 220 -3 c 0
 103 -3 26 57 26 158 c 0
 26 254 108 307 192 350 c 1
 164 398 137 462 137 525 c 0
 137 601 205 656 281 656 c 0
 353 656 426 616 426 544 c 0
 426 454 353 400 277 353 c 1
 319 282 375 210 425 154 c 1
 462 210 482 261 482 271 c 0
 482 291 441 281 437 289 c 1
 434 298 433 310 438 312 c 1
 517 312 l 2
 552 312 581 315 627 317 c 1
 635 312 631 289 626 289 c 0
 609 289 568 279 557 272 c 0
215 314 m 1
 161 277 112 244 112 172 c 0
 112 78 181 40 254 40 c 0
 294 40 347 61 379 95 c 1
 339 137 288 200 235 283 c 2
 215 314 l 1
259 385 m 1
 321 421 363 462 363 539 c 0
 363 584 331 620 286 620 c 0
 243 620 207 581 207 543 c 0
 207 499 227 443 259 385 c 1
EndSplineSet
Validated: 1
Substitution2: "'smcp' Lowercase to Small Capitals lookup 2-1" ampersand.sc
EndChar

StartChar: quotesingle
Encoding: 39 39 7
Width: 161
Flags: W
HStem: 434 264<63.4202 95.6254>
VStem: 30 99<522.226 679.379>
LayerCount: 2
Fore
SplineSet
84 698 m 2
 99 698 l 2
 115 698 129 692 129 633 c 0
 129 577 101 516 95 449 c 0
 94 439 86 434 79 434 c 0
 72 434 65 439 64 447 c 0
 55 537 30 594 30 635 c 0
 30 653 58 698 84 698 c 2
EndSplineSet
Validated: 1
Substitution2: "'smcp' Lowercase to Small Capitals lookup 2-1" quotesingle.sc
EndChar

StartChar: parenleft
Encoding: 40 40 8
Width: 259
Flags: W
HStem: -121 26<218.363 232.986> 721 27<215.243 231.732>
VStem: 29 65<138.595 482.541>
LayerCount: 2
Fore
SplineSet
94 305 m 0
 94 95 194 -76 233 -95 c 0
 235 -96 235 -98 235 -100 c 0
 235 -107 228 -121 221 -121 c 0
 166 -121 29 66 29 305 c 0
 29 555 153 748 221 748 c 0
 228 748 234 731 234 724 c 0
 234 722 234 721 233 721 c 0
 171 691 94 508 94 305 c 0
EndSplineSet
Validated: 1
Substitution2: "'sinf' Scientific Inferiors lookup 5-1" parenleft.sinf
Substitution2: "'sups' Superscript lookup 6-1" parenleft.ssup
Substitution2: "'smcp' Lowercase to Small Capitals lookup 2-1" parenleft.sc
Substitution2: "'subs' Subscript lookup 1-1" parenleft.subs
Substitution2: "'ordn' Ordinals lookup 0-1" parenleft.ordn
EndChar

StartChar: parenright
Encoding: 41 41 9
Width: 259
Flags: W
HStem: -121 26<25.0137 39.6373> 721 27<26.2676 42.7572>
VStem: 164 65<138.595 482.541>
LayerCount: 2
Fore
SplineSet
164 305 m 0
 164 508 87 691 25 721 c 0
 24 721 24 722 24 724 c 0
 24 731 30 748 37 748 c 0
 105 748 229 555 229 305 c 0
 229 66 92 -121 37 -121 c 0
 30 -121 23 -107 23 -100 c 0
 23 -98 23 -96 25 -95 c 0
 64 -76 164 95 164 305 c 0
EndSplineSet
Validated: 1
Substitution2: "'sinf' Scientific Inferiors lookup 5-1" parenright.sinf
Substitution2: "'sups' Superscript lookup 6-1" parenright.ssup
Substitution2: "'smcp' Lowercase to Small Capitals lookup 2-1" parenright.sc
Substitution2: "'subs' Subscript lookup 1-1" parenright.subs
Substitution2: "'ordn' Ordinals lookup 0-1" parenright.ordn
EndChar

StartChar: asterisk
Encoding: 42 42 10
Width: 415
Flags: W
HStem: 390 61<300.125 383.976> 434 65<28.5068 138.988>
VStem: 120 57<572.979 660.875> 199 25<420.999 450.228>
LayerCount: 2
Fore
SplineSet
292 613 m 4x70
 309 632 333 640 348 625 c 4
 364 609 361 586 342 569 c 4
 307 537 273 532 245 505 c 5
 245 505 239 496 240 491 c 4
 241 486 245 483 250 481 c 4
 285 465 313 471 357 451 c 4
 380 441 395 421 386 402 c 4
 376 382 353 378 331 390 c 4xb0
 289 413 274 444 240 462 c 5
 240 462 231 467 226 465 c 4
 220 462 221 457 220 452 c 4
 216 414 229 389 224 341 c 4
 221 316 207 296 186 299 c 4
 164 302 153 322 158 347 c 4
 167 394 192 419 199 457 c 5
 199 457 200 466 196 470 c 4
 193 474 188 474 183 473 c 4
 146 465 126 444 78 434 c 4
 54 429 29 436 26 457 c 4
 22 479 39 496 64 499 c 4
 112 505 141 489 180 494 c 5
 180 494 189 497 191 502 c 4
 193 507 192 511 189 516 c 4
 170 549 144 562 120 604 c 4
 108 626 108 650 126 660 c 4
 146 670 166 660 177 637 c 4
 197 593 191 560 208 525 c 5
 208 525 213 515 218 514 c 4
 223 513 227 516 231 520 c 4
 257 548 260 577 292 613 c 4x70
EndSplineSet
Validated: 33
Substitution2: "'smcp' Lowercase to Small Capitals lookup 2-1" asterisk.sc
EndChar

StartChar: plus
Encoding: 43 43 11
Width: 532
Flags: W
HStem: 218 56<34.0959 237 293.001 494.904>
VStem: 237 56<11.3652 217.998 274 476.904>
LayerCount: 2
Fore
SplineSet
293 215 m 2
 293 23 l 1
 293 23 293 13 248 7 c 0
 245 7 244 6 242 6 c 0
 235 6 237 10 237 14 c 2
 237 213 l 2
 237 215 236 218 231 218 c 2
 32 218 l 1
 32 218 26 218 26 228 c 0
 26 232 27 245 34 269 c 0
 36 275 41 274 41 274 c 1
 232 274 l 2
 235 274 237 278 237 280 c 2
 237 470 l 1
 237 470 236 475 242 477 c 0
 266 484 279 485 283 485 c 0
 293 485 293 479 293 479 c 1
 293 279 l 2
 293 276 294 274 297 274 c 2
 497 274 l 2
 501 274 505 276 505 269 c 0
 505 260 501 246 495 224 c 0
 493 218 488 218 488 218 c 1
 297 218 l 2
 294 218 293 217 293 215 c 2
EndSplineSet
Validated: 1
Substitution2: "'sinf' Scientific Inferiors lookup 5-1" plus.sinf
Substitution2: "'sups' Superscript lookup 6-1" plus.ssup
Substitution2: "'smcp' Lowercase to Small Capitals lookup 2-1" plus.sc
Substitution2: "'subs' Subscript lookup 1-1" plus.subs
Substitution2: "'ordn' Ordinals lookup 0-1" plus.ordn
EndChar

StartChar: comma
Encoding: 44 44 12
Width: 210
Flags: W
HStem: -163 292
VStem: 99 79<-34.3011 73>
LayerCount: 2
Fore
SplineSet
99 -14 m 0
 99 19 69 54 69 76 c 0
 69 107 105 129 141 129 c 0
 149 129 157 128 165 125 c 1
 173 113 178 85 178 61 c 0
 178 51 178 42 176 35 c 0
 158 -49 135 -92 49 -163 c 1
 48 -163 l 2
 43 -163 25 -150 25 -141 c 0
 25 -134 99 -91 99 -14 c 0
EndSplineSet
Validated: 1
Substitution2: "'sinf' Scientific Inferiors lookup 5-1" comma.sinf
Substitution2: "'sups' Superscript lookup 6-1" comma.ssup
Substitution2: "'subs' Subscript lookup 1-1" comma.subs
Substitution2: "'ordn' Ordinals lookup 0-1" comma.ordn
EndChar

StartChar: hyphen
Encoding: 45 45 13
Width: 328
Flags: W
HStem: 199 62<33.6239 188.957> 210 63<142.043 290.493>
VStem: 32 261
LayerCount: 2
Fore
SplineSet
32 210 m 0x60
 32 258 41 261 44 261 c 2
 45 261 l 1xa0
 286 273 l 1
 287 273 l 2
 289 273 293 272 293 264 c 0
 293 215 280 210 280 210 c 1x60
 39 199 l 1xa0
 39 199 32 198 32 210 c 0x60
EndSplineSet
Validated: 1
Substitution2: "'sinf' Scientific Inferiors lookup 5-1" hyphen.sinf
Substitution2: "'sups' Superscript lookup 6-1" hyphen.ssup
Substitution2: "'smcp' Lowercase to Small Capitals lookup 2-1" hyphen.sc
Substitution2: "'subs' Subscript lookup 1-1" hyphen.subs
Substitution2: "'ordn' Ordinals lookup 0-1" hyphen.ordn
EndChar

StartChar: period
Encoding: 46 46 14
Width: 178
Flags: W
HStem: -14 116<44.6616 134.152>
VStem: 31 116<-0.338379 89.1519>
LayerCount: 2
Fore
SplineSet
31 45 m 0
 31 77 58 102 90 102 c 0
 122 102 147 77 147 45 c 0
 147 13 122 -14 90 -14 c 0
 58 -14 31 13 31 45 c 0
EndSplineSet
Validated: 1
Substitution2: "'sinf' Scientific Inferiors lookup 5-1" period.sinf
Substitution2: "'sups' Superscript lookup 6-1" period.ssup
Substitution2: "'subs' Subscript lookup 1-1" period.subs
Substitution2: "'ordn' Ordinals lookup 0-1" period.ordn
EndChar

StartChar: slash
Encoding: 47 47 15
Width: 412
Flags: W
LayerCount: 2
Fore
SplineSet
389 755 m 5
 93 -12 l 6
 91 -19 76 -35 41 -35 c 4
 26 -35 23 -28 23 -28 c 5
 319 739 l 5
 326 754 338 761 368 761 c 4
 382 761 385 757 389 755 c 5
EndSplineSet
Validated: 1
Substitution2: "'frac' Diagonal Fractions lookup 10 subtable" fraction
Substitution2: "'sinf' Scientific Inferiors lookup 5-1" slash.sinf
Substitution2: "'sups' Superscript lookup 6-1" slash.ssup
Substitution2: "'smcp' Lowercase to Small Capitals lookup 2-1" slash.sc
Substitution2: "'subs' Subscript lookup 1-1" slash.subs
Substitution2: "'ordn' Ordinals lookup 0-1" slash.ordn
EndChar

StartChar: zero
Encoding: 48 48 16
Width: 455
Flags: W
HStem: -3 38<178.309 272.686> 603 38<183.315 278.721>
VStem: 9.5 88<173.247 465.48> 357.5 88<172.095 470.738>
LayerCount: 2
Fore
SplineSet
97.5 320 m 4
 97.5 163 148.5 35 222.5 35 c 4
 311.5 35 357.5 168 357.5 325 c 4
 357.5 482 306.5 603 232.5 603 c 4
 148.5 603 97.5 477 97.5 320 c 4
9.5 319 m 4
 9.5 493 89.5 641 227.5 641 c 4
 367.5 641 445.5 493 445.5 319 c 4
 445.5 145 365.5 -3 227.5 -3 c 4
 91.5 -3 9.5 145 9.5 319 c 4
EndSplineSet
Validated: 524289
Substitution2: "'pnum' Proportional Numbers lookup 12-1" zero.prop
Substitution2: "'zero' Slashed Zero lookup 11-1" slashedzero
Substitution2: "'sinf' Scientific Inferiors lookup 5-1" zero.sinf
Substitution2: "'sups' Superscript lookup 6-1" zero.ssup
Substitution2: "'onum' Oldstyle Figures lookup 3-1" zero.onum
Substitution2: "'smcp' Lowercase to Small Capitals lookup 2-1" zero.sc
Substitution2: "'subs' Subscript lookup 1-1" zero.subs
Substitution2: "'ordn' Ordinals lookup 0-1" zero.ordn
EndChar

StartChar: one
Encoding: 49 49 17
Width: 455
Flags: W
HStem: -3 29<115.688 181.954 292.112 356.416> 622 20G<272 278.5>
VStem: 194.5 83<36.9151 528.995>
LayerCount: 2
Fore
SplineSet
116.5 496 m 5
 108.5 500 98.5 514 98.5 521 c 4
 98.5 523 98.5 525 100.5 527 c 4
 203.5 597 270.5 642 273.5 642 c 6
 275.5 642 l 6
 281.5 642 286.5 628 287.5 623 c 5
 287.5 623 277.5 590 277.5 529 c 6
 277.5 135 l 6
 277.5 102 278.5 73 285.5 46 c 4
 288.5 35 344.5 26 352.5 26 c 4
 355.5 26 356.5 15 356.5 8 c 4
 356.5 3 356.5 -1 355.5 -3 c 5
 315.5 -1 274.5 2 234.5 2 c 4
 194.5 2 158.5 -1 118.5 -3 c 5
 113.5 2 113.5 26 118.5 26 c 4
 130.5 26 185.5 35 188.5 46 c 4
 193.5 66 194.5 84 194.5 103 c 6
 194.5 463 l 6
 194.5 523 189.5 529 180.5 529 c 4
 167.5 529 133.5 505 116.5 496 c 5
EndSplineSet
Validated: 524289
Substitution2: "'pnum' Proportional Numbers lookup 12-1" one.prop
Substitution2: "'sinf' Scientific Inferiors lookup 5-1" one.sinf
Substitution2: "'sups' Superscript lookup 6-1" one.ssup
Substitution2: "'onum' Oldstyle Figures lookup 3-1" one.onum
Substitution2: "'smcp' Lowercase to Small Capitals lookup 2-1" one.sc
Substitution2: "'subs' Subscript lookup 1-1" one.subs
Substitution2: "'ordn' Ordinals lookup 0-1" one.ordn
EndChar

StartChar: two
Encoding: 50 50 18
Width: 455
Flags: W
HStem: 0 72<126.362 367> 572 70<152.495 263.076>
VStem: 48.5 19<495.173 502.585> 298.5 86<382.138 536.112> 388.5 32<105.094 159.872>
LayerCount: 2
Fore
SplineSet
420.5 156 m 1
 410.5 105 401.5 68 392.5 16 c 0
 390.5 2 382.5 0 372.5 0 c 18
 372.5 0 51.5 0 44.5 0 c 1
 39.5 8 34.5 26 34.5 33 c 1
 160.5 161 298.5 340 298.5 459 c 0
 298.5 533 257.5 572 200.5 572 c 0
 120.5 572 79.5 509 67.5 489 c 1
 59.5 489 48.5 501 48.5 505 c 1
 55.5 530 118.5 642 240.5 642 c 0
 336.5 642 384.5 555 384.5 479 c 0
 384.5 326 202.5 153 126.5 79 c 0
 123.5 76 124.5 72 128.5 72 c 2
 312.5 72 l 2
 370.5 72 374.5 106 388.5 150 c 0
 390.5 155 396.5 160 402.5 160 c 0
 406.5 160 419.5 158 420.5 156 c 1
EndSplineSet
Validated: 524289
Substitution2: "'pnum' Proportional Numbers lookup 12-1" two.prop
Substitution2: "'sinf' Scientific Inferiors lookup 5-1" two.sinf
Substitution2: "'sups' Superscript lookup 6-1" two.ssup
Substitution2: "'onum' Oldstyle Figures lookup 3-1" two.onum
Substitution2: "'smcp' Lowercase to Small Capitals lookup 2-1" two.sc
Substitution2: "'subs' Subscript lookup 1-1" two.subs
Substitution2: "'ordn' Ordinals lookup 0-1" two.ordn
EndChar

StartChar: three
Encoding: 51 51 19
Width: 455
Flags: W
HStem: -5 40<139.304 273.27> 314 36<129.743 191.297> 583 59<147.868 250.246>
VStem: 282 75<438.797 550.729> 328 86<111.736 257.241>
LayerCount: 2
Fore
SplineSet
235 642 m 0xf0
 286 642 357 596 357 514 c 0xf0
 357 449 318 412 274 379 c 1
 328 360 414 305 414 206 c 0
 414 76 310 -5 181 -5 c 0
 120 -5 81 5 51 25 c 1
 45 29 41 46 41 54 c 0
 41 83 54 101 78 101 c 0
 98 101 115 72 137 56 c 0
 163.081 37.0322 186 35 213 35 c 0
 260 35 328 68 328 180 c 0xe8
 328 261 267 321 201 321 c 0
 180 321 148 317 136 314 c 1
 132 319 129 332 129 340 c 0
 129 344 129 347 131 350 c 1
 218 365 282 410 282 496 c 0
 282 541 240 583 195 583 c 0
 132 583 107 539 98 532 c 1
 92 532 86 549 86 558 c 1
 117 604 157 642 235 642 c 0xf0
EndSplineSet
Validated: 524289
Substitution2: "'pnum' Proportional Numbers lookup 12-1" three.prop
Substitution2: "'sinf' Scientific Inferiors lookup 5-1" three.sinf
Substitution2: "'sups' Superscript lookup 6-1" three.ssup
Substitution2: "'onum' Oldstyle Figures lookup 3-1" three.onum
Substitution2: "'smcp' Lowercase to Small Capitals lookup 2-1" three.sc
Substitution2: "'subs' Subscript lookup 1-1" three.subs
Substitution2: "'ordn' Ordinals lookup 0-1" three.ordn
EndChar

StartChar: four
Encoding: 52 52 20
Width: 455
Flags: W
HStem: -6 21G<303.5 335> 174 58<89.5022 278.5 357.5 434.791> 625 20G<340.5 347.5>
VStem: 278.5 79<-5.44241 174 232 506.996>
LayerCount: 2
Fore
SplineSet
25.5 174 m 5
 19.5 182 18.5 199 18.5 205 c 5
 321.5 633 l 6
 327.5 641 336.5 645 344.5 645 c 4
 350.5 645 357.5 643 357.5 635 c 6
 357.5 232 l 29
 429.5 232 l 22
 436.5 232 436.5 228 436.5 225 c 4
 436.5 203 433.5 183 430.5 174 c 5
 404.5 174 357.5 174 357.5 174 c 29
 357.5 -1 l 5
 357.5 -1 354.5 -6 315.5 -6 c 4
 291.5 -6 278.5 -5 278.5 2 c 6
 278.5 174 l 29
 25.5 174 l 5
278.5 498 m 6
 278.5 501 275.5 507 273.5 507 c 5
 273.5 507 273.5 506 272.5 505 c 6
 90.5 244 l 6
 89.5 243 89.5 242 89.5 241 c 4
 89.5 237 92.5 232 96.5 232 c 14
 278.5 232 l 29
 278.5 498 l 6
EndSplineSet
Validated: 524289
Substitution2: "'pnum' Proportional Numbers lookup 12-1" four.prop
Substitution2: "'sinf' Scientific Inferiors lookup 5-1" four.sinf
Substitution2: "'sups' Superscript lookup 6-1" four.ssup
Substitution2: "'onum' Oldstyle Figures lookup 3-1" four.onum
Substitution2: "'smcp' Lowercase to Small Capitals lookup 2-1" four.sc
Substitution2: "'subs' Subscript lookup 1-1" four.subs
Substitution2: "'ordn' Ordinals lookup 0-1" four.ordn
EndChar

StartChar: five
Encoding: 53 53 21
Width: 455
Flags: W
HStem: -5 40<140.777 275.834> 323 67.8926<122.839 265.448> 546 77<148.631 355.868>
VStem: 327 86<111.314 264.197>
LayerCount: 2
Fore
SplineSet
218 35 m 0
 265 35 327 71 327 180 c 0
 327 242 297 323 181 323 c 3
 159.577 323 113 318 94 312 c 1
 90 314 81 321 76 326 c 1
 97 458 117 581 124 623 c 1
 195 625 323 629 359 637 c 1
 362 633 364 627 364 616 c 0
 364 599 361 576 358 561 c 1
 314 548 174 549 158 546 c 0
 152 545 151.796 541.92 151 538 c 0
 138 474 131 431 122 378 c 1
 142 386 189.019 390.893 216 390.893 c 0
 323 390.893 413 306 413 206 c 0
 413 82 316 -5 186 -5 c 0
 125 -5 82 5 52 25 c 1
 46 29 42 46 42 54 c 0
 42 83 55 101 79 101 c 0
 99 101 116 72 138 56 c 0
 164.081 37.0322 191 35 218 35 c 0
EndSplineSet
Validated: 524289
Substitution2: "'pnum' Proportional Numbers lookup 12-1" five.prop
Substitution2: "'sinf' Scientific Inferiors lookup 5-1" five.sinf
Substitution2: "'sups' Superscript lookup 6-1" five.ssup
Substitution2: "'onum' Oldstyle Figures lookup 3-1" five.onum
Substitution2: "'smcp' Lowercase to Small Capitals lookup 2-1" five.sc
Substitution2: "'subs' Subscript lookup 1-1" five.subs
Substitution2: "'ordn' Ordinals lookup 0-1" five.ordn
EndChar

StartChar: six
Encoding: 54 54 22
Width: 455
Flags: W
HStem: -6 39<179.932 288.669> 330 51<170.317 286.444>
VStem: 29.5 86<110.711 295.805> 342.5 83<107.505 269.304>
LayerCount: 2
Fore
SplineSet
115.5 210 m 4
 115.5 120 164.5 33 232.5 33 c 4
 287.5 33 342.5 84 342.5 174 c 4
 342.5 259 302.5 330 214.5 330 c 4
 176.5 330 139.5 305 130.5 285 c 4
 123.5 269 116.5 260 115.5 210 c 4
220.5 -6 m 4
 106.5 -6 29.5 100 29.5 208 c 4
 29.5 426 214.5 578 385.5 647 c 5
 394.5 647 408.5 626 408.5 620 c 5
 295.5 571 179.5 497 139.5 352 c 4
 137.5 344 139.5 340 143.5 344 c 4
 158.5 356 216.5 381 260.5 381 c 4
 357.5 381 425.5 282 425.5 195 c 4
 425.5 83 326.5 -6 220.5 -6 c 4
EndSplineSet
Validated: 524289
Substitution2: "'pnum' Proportional Numbers lookup 12-1" six.prop
Substitution2: "'sinf' Scientific Inferiors lookup 5-1" six.sinf
Substitution2: "'sups' Superscript lookup 6-1" six.ssup
Substitution2: "'onum' Oldstyle Figures lookup 3-1" six.onum
Substitution2: "'smcp' Lowercase to Small Capitals lookup 2-1" six.sc
Substitution2: "'subs' Subscript lookup 1-1" six.subs
Substitution2: "'ordn' Ordinals lookup 0-1" six.ordn
EndChar

StartChar: seven
Encoding: 55 55 23
Width: 455
Flags: W
HStem: -6 21G<122 132> 553 80<81.4863 360.5>
LayerCount: 2
Fore
SplineSet
129.5 -6 m 0
 114.5 -6 94.5 13 94.5 22 c 9
 360.5 553 l 1
 275.5 553 119.5 553 119.5 553 c 2
 83.5 553 67.5 508 56.5 474 c 0
 54.5 468 31.5 467 22.5 471 c 1
 31.5 516 46.5 576 53.5 621 c 0
 54.7393 628.967 60.5 633 69.5 633 c 2
 358.5 633 l 2
 384.5 633 419.5 636 425.5 636 c 0
 431.5 636 432.5 632 432.5 627 c 0
 432.5 614 416.795 588.461 403.5 560 c 2
 140.5 -3 l 1
 138.5 -5 134.5 -6 129.5 -6 c 0
EndSplineSet
Validated: 524321
Substitution2: "'pnum' Proportional Numbers lookup 12-1" seven.prop
Substitution2: "'sinf' Scientific Inferiors lookup 5-1" seven.sinf
Substitution2: "'sups' Superscript lookup 6-1" seven.ssup
Substitution2: "'onum' Oldstyle Figures lookup 3-1" seven.onum
Substitution2: "'smcp' Lowercase to Small Capitals lookup 2-1" seven.sc
Substitution2: "'subs' Subscript lookup 1-1" seven.subs
Substitution2: "'ordn' Ordinals lookup 0-1" seven.ordn
EndChar

StartChar: eight
Encoding: 56 56 24
Width: 455
Flags: W
HStem: -9 36<171.472 289.325> 608 35<180.803 276.828>
VStem: 39 79<77.0132 225.193> 67 74<431.64 556.309> 325 72<424.746 561.871> 335 81<86.3009 203.234>
LayerCount: 2
Fore
SplineSet
233 643 m 0xd0
 322 643 397 586 397 491 c 0xd8
 397 424 331 373 285 344 c 1
 281 343 282 340 285 338 c 0
 345 304 416 239 416 167 c 0
 416 67 325 -9 225 -9 c 0
 115 -9 39 57 39 154 c 0xe4
 39 242 130 293 169 318 c 0
 172 320 171 323 169 324 c 0
 127 349 67 406 67 480 c 0
 67 565 145 643 233 643 c 0xd0
227 608 m 0
 179 608 141 562 141 492 c 0
 141 430 207 386 245 364 c 0
 247 363 249 362 251 362 c 0
 253 362 254 362 257 364 c 0
 298 391 325 431 325 486 c 0
 325 544 287 608 227 608 c 0
227 27 m 0
 293 27 335 70 335 138 c 0
 335 221 221 287 207 295 c 0
 205 296 204 297 201 297 c 0
 200 297 198 297 197 296 c 0
 142 261 118 221 118 157 c 0xe4
 118 75 174 27 227 27 c 0
EndSplineSet
Validated: 1
Substitution2: "'pnum' Proportional Numbers lookup 12-1" eight.prop
Substitution2: "'sinf' Scientific Inferiors lookup 5-1" eight.sinf
Substitution2: "'sups' Superscript lookup 6-1" eight.ssup
Substitution2: "'onum' Oldstyle Figures lookup 3-1" eight.onum
Substitution2: "'smcp' Lowercase to Small Capitals lookup 2-1" eight.sc
Substitution2: "'subs' Subscript lookup 1-1" eight.subs
Substitution2: "'ordn' Ordinals lookup 0-1" eight.ordn
EndChar

StartChar: nine
Encoding: 57 57 25
Width: 455
Flags: W
HStem: -6 21G<86 161.5> 262 49<170.976 292.083> 608 39<166.205 271.975>
VStem: 30.5 83<370.706 533.073> 338.5 86<344.274 530.289>
LayerCount: 2
Fore
SplineSet
338.5 431 m 4
 338.5 521 291.5 608 218.5 608 c 4
 163.5 608 113.5 553 113.5 463 c 4
 113.5 382 155.5 311 240.5 311 c 4
 278.5 311 315.5 336 324.5 356 c 4
 331.5 372 337.5 381 338.5 431 c 4
234.5 647 m 4
 348.5 647 424.5 541 424.5 433 c 4
 424.5 215 232.5 46 90.5 -6 c 5
 81.5 -6 68.5 17 68.5 23 c 5
 154.5 57 274.5 144 314.5 289 c 4
 316.5 297 314.5 301 310.5 297 c 4
 295.5 280 237.5 262 202.5 262 c 4
 104.5 262 30.5 347 30.5 445 c 4
 30.5 557 128.5 647 234.5 647 c 4
EndSplineSet
Validated: 524289
Substitution2: "'pnum' Proportional Numbers lookup 12-1" nine.prop
Substitution2: "'sinf' Scientific Inferiors lookup 5-1" nine.sinf
Substitution2: "'sups' Superscript lookup 6-1" nine.ssup
Substitution2: "'onum' Oldstyle Figures lookup 3-1" nine.onum
Substitution2: "'smcp' Lowercase to Small Capitals lookup 2-1" nine.sc
Substitution2: "'subs' Subscript lookup 1-1" nine.subs
Substitution2: "'ordn' Ordinals lookup 0-1" nine.ordn
EndChar

StartChar: colon
Encoding: 58 58 26
Width: 181
Flags: W
HStem: -14 120<44.7454 136.661> 310 120<44.7454 136.661>
VStem: 31 119<-0.254639 92.2546 324.152 416.661>
LayerCount: 2
Fore
SplineSet
150 371 m 0
 150 338 124 310 91 310 c 0
 58 310 31 338 31 371 c 0
 31 404 58 430 91 430 c 0
 124 430 150 404 150 371 c 0
150 46 m 0
 150 13 124 -14 91 -14 c 0
 58 -14 31 13 31 46 c 0
 31 79 58 106 91 106 c 0
 124 106 150 79 150 46 c 0
EndSplineSet
Validated: 1
Substitution2: "'sinf' Scientific Inferiors lookup 5-1" colon.sinf
Substitution2: "'sups' Superscript lookup 6-1" colon.ssup
Substitution2: "'smcp' Lowercase to Small Capitals lookup 2-1" colon.sc
Substitution2: "'subs' Subscript lookup 1-1" colon.subs
Substitution2: "'ordn' Ordinals lookup 0-1" colon.ordn
EndChar

StartChar: semicolon
Encoding: 59 59 27
Width: 210
Flags: W
HStem: 310 120<74.1521 166.661>
VStem: 60 120<324.152 416.661> 96 78<-59.5478 87.4361>
LayerCount: 2
Fore
SplineSet
174 39 m 0xa0
 174 11 171 -12 164 -33 c 0
 148 -81 111 -115 51 -165 c 0
 49 -166 46 -167 44 -167 c 0
 33 -167 23 -145 23 -140 c 0
 23 -131 96 -96 96 -14 c 0
 96 36 69 51 69 68 c 0
 69 93 102 124 139 124 c 0
 147 124 152 121 157 117 c 0
 173 102 174 70 174 39 c 0xa0
60 371 m 0xc0
 60 404 88 430 121 430 c 0
 154 430 180 404 180 371 c 0
 180 338 154 310 121 310 c 0
 88 310 60 338 60 371 c 0xc0
EndSplineSet
Validated: 1
Substitution2: "'sinf' Scientific Inferiors lookup 5-1" semicolon.sinf
Substitution2: "'sups' Superscript lookup 6-1" semicolon.ssup
Substitution2: "'smcp' Lowercase to Small Capitals lookup 2-1" semicolon.sc
Substitution2: "'subs' Subscript lookup 1-1" semicolon.subs
Substitution2: "'ordn' Ordinals lookup 0-1" semicolon.ordn
EndChar

StartChar: less
Encoding: 60 60 28
Width: 467
Flags: W
LayerCount: 2
Fore
SplineSet
440 35 m 0
 440 28 430 -15 424 -15 c 0
 423 -15 421 -14 419 -13 c 2
 44 177 l 2
 29 185 26 200 26 217 c 0
 26 228 34 236 44 241 c 2
 413 428 l 2
 415 429 417 430 418 430 c 0
 421 430 428 420 435 383 c 0
 436 377 432 374 432 374 c 1
 106 209 l 1
 437 41 l 1
 437 41 440 40 440 35 c 0
EndSplineSet
Validated: 1
Substitution2: "'sinf' Scientific Inferiors lookup 5-1" less.sinf
Substitution2: "'sups' Superscript lookup 6-1" less.ssup
Substitution2: "'smcp' Lowercase to Small Capitals lookup 2-1" less.sc
Substitution2: "'subs' Subscript lookup 1-1" less.subs
Substitution2: "'ordn' Ordinals lookup 0-1" less.ordn
EndChar

StartChar: equal
Encoding: 61 61 29
Width: 533
Flags: W
HStem: 117 56<42.0959 495.32> 259 56<36.9907 495.32>
LayerCount: 2
Fore
SplineSet
501 168 m 0
 501 159 497 145 491 123 c 0
 489 117 485 117 485 117 c 1
 40 117 l 1
 40 117 33 117 33 127 c 0
 33 131 35 144 42 168 c 0
 44 174 49 173 49 173 c 1
 493 173 l 2
 497 173 501 175 501 168 c 0
33 269 m 1
 33 269 38 315 48 315 c 2
 497 315 l 2
 499 315 501 314 501 310 c 0
 501 301 497 287 491 265 c 0
 489 259 485 259 485 259 c 1
 40 259 l 1
 40 259 33 259 33 269 c 1
EndSplineSet
Validated: 1
Substitution2: "'sinf' Scientific Inferiors lookup 5-1" equal.sinf
Substitution2: "'sups' Superscript lookup 6-1" equal.ssup
Substitution2: "'smcp' Lowercase to Small Capitals lookup 2-1" equal.sc
Substitution2: "'subs' Subscript lookup 1-1" equal.subs
Substitution2: "'ordn' Ordinals lookup 0-1" equal.ordn
EndChar

StartChar: greater
Encoding: 62 62 30
Width: 469
Flags: W
LayerCount: 2
Fore
SplineSet
33 382 m 0
 33 400 45 430 49 430 c 0
 50 430 52 429 54 428 c 2
 424 241 l 2
 434 236 441 228 441 217 c 0
 441 200 439 185 424 177 c 2
 49 -13 l 2
 47 -14 45 -15 44 -15 c 0
 38 -15 27 27 27 35 c 0
 27 39 30 41 30 41 c 1
 361 209 l 1
 36 374 l 1
 36 374 33 375 33 382 c 0
EndSplineSet
Validated: 1
Substitution2: "'sinf' Scientific Inferiors lookup 5-1" greater.sinf
Substitution2: "'sups' Superscript lookup 6-1" greater.ssup
Substitution2: "'smcp' Lowercase to Small Capitals lookup 2-1" greater.sc
Substitution2: "'subs' Subscript lookup 1-1" greater.subs
Substitution2: "'ordn' Ordinals lookup 0-1" greater.ordn
EndChar

StartChar: question
Encoding: 63 63 31
Width: 310
Flags: W
HStem: -14 116<38.2549 127.745> 558 84<38.4753 167.039>
VStem: 25 116<-1.2356 90.0031> 63 33<160.081 241.256> 235 50<431.799 535.824>
LayerCount: 2
Fore
SplineSet
78 558 m 0xd8
 64 558 31 565 31 598 c 0
 31 612 33 624 38 632 c 1
 48 637 67 642 88 642 c 0
 154 642 285 574 285 457 c 0
 285 389 259 347 184 304 c 0
 157 288 112 253 106 242 c 0
 97 226 96 218 96 173 c 0
 96 162 89 160 76 160 c 0
 71 160 63 161 63 168 c 0
 63 194 62 235 62 262 c 0
 62 336 111 361 148 385 c 0
 197 416 235 439 235 476 c 0
 235 538 192 565 154 565 c 0
 101 565 104 558 78 558 c 0xd8
25 45 m 0xe8
 25 77 51 102 83 102 c 0
 115 102 141 77 141 45 c 0
 141 13 115 -14 83 -14 c 0
 51 -14 25 13 25 45 c 0xe8
EndSplineSet
Validated: 1
Substitution2: "'sinf' Scientific Inferiors lookup 5-1" question.sinf
Substitution2: "'sups' Superscript lookup 6-1" question.ssup
Substitution2: "'smcp' Lowercase to Small Capitals lookup 2-1" question.sc
Substitution2: "'subs' Subscript lookup 1-1" question.subs
Substitution2: "'ordn' Ordinals lookup 0-1" question.ordn
EndChar

StartChar: at
Encoding: 64 64 32
Width: 785
Flags: W
HStem: -171 45<301.903 490.456> -13 40<544.229 639.34> -7 60<297.7 372.076> 359 51<365.398 481.942> 528 49<302.092 527.153>
VStem: 28 59<84.7869 323.137> 202 78<69.8158 245.56> 461 71<34.6331 90.0483 121.994 184.202> 706 49<107.515 335.991>
LayerCount: 2
Fore
SplineSet
706 214 m 0xdf80
 706 381 593 528 422 528 c 0
 241 528 87 399 87 223 c 0
 87 26 194 -126 445 -126 c 0
 472 -126 513 -105 516 -104 c 1
 516 -104 518 -113 518 -114 c 0
 518 -137 476 -171 390 -171 c 0
 174 -171 28 23 28 185 c 0
 28 432 210 577 433 577 c 0
 633 577 755 391 755 233 c 0
 755 40 651 -13 573 -13 c 0xdf80
 503 -13 461 51 461 92 c 0
 461 94 457 91 456 90 c 0
 439 61 362 -7 311 -7 c 0xbf80
 236 -7 202 73 202 141 c 0
 202 274 299 410 477 410 c 1
 566 401 l 1
 562 375 559 348 559 348 c 1
 534 125 l 2
 533 115 532 105 532 97 c 0
 532 37 559 27 582 27 c 0
 682 27 706 160 706 214 c 0xdf80
482 334 m 0
 482 347 480 359 431 359 c 0
 350 359 280 284 280 143 c 0
 280 73 314 53 339 53 c 0xbf80
 397 53 464 145 466 170 c 2
 481 322 l 1
 481 322 482 328 482 334 c 0
EndSplineSet
Validated: 1
Substitution2: "'smcp' Lowercase to Small Capitals lookup 2-1" at.sc
EndChar

StartChar: A
Encoding: 65 65 33
Width: 658
Flags: W
HStem: -3 29<6.0058 62.1719 159.109 218.234 421.344 473.385 601.161 651.846> 249 48<233 399.999> 643 20G<326 343.5>
LayerCount: 2
Fore
SplineSet
351 660 m 1
 551 132 l 2
 565 95 571 80 580 60 c 0
 590 36 640 26 648 26 c 0
 651 26 652 13 652 7 c 0
 652 2 651 0 650 -3 c 1
 610 -1 584 2 540 2 c 0
 494 2 470 -1 424 -3 c 1
 419 2 420 26 425 26 c 0
 437 26 471 32 476 44 c 0
 477 48 478 54 478 60 c 0
 478 90 464 129 464 129 c 1
 423 242 l 1
 423 242 420 246 417 246 c 0
 391 248 366 249 341 249 c 0
 300 249 259 247 214 244 c 0
 212 244 209 241 209 241 c 1
 166 131 l 1
 154 96 149 75 149 62 c 0
 149 51 152 46 157 42 c 0
 171 31 207 26 215 26 c 0
 220 26 219 3 217 -3 c 1
 177 -1 158 2 114 2 c 0
 68 2 56 -1 10 -3 c 1
 8 -1 6 6 6 12 c 0
 6 18 8 26 10 26 c 0
 22 26 57 32 67 45 c 0
 87 71 100 103 114 139 c 2
 288 586 l 1
 302 625 310 663 342 663 c 0
 345 663 348 661 351 660 c 1
235 299 m 0
 261 298 283 297 306 297 c 0
 337 297 366 298 397 300 c 0
 399 300 400 305 400 305 c 1
 319 526 l 1
 233 303 l 1
 233 303 233 299 235 299 c 0
EndSplineSet
Validated: 1
Substitution2: "'sinf' Scientific Inferiors lookup 5-1" A.sinf
Substitution2: "'sups' Superscript lookup 6-1" A.ssup
Substitution2: "'subs' Subscript lookup 1-1" A.subs
Substitution2: "'ordn' Ordinals lookup 0-1" A.ordn
EndChar

StartChar: B
Encoding: 66 66 34
Width: 573
Flags: W
HStem: -3 29<27.0264 87.6226> 0 45<202.843 374> 331 42<194.4 368.227> 616 41<203.67 352.739> 629 29<26.0898 89.8824>
VStem: 106 87<54.9668 326.846 374.772 608.951> 411 88<426.301 560.322> 447 95<104.534 259.02>
LayerCount: 2
Fore
SplineSet
447 176 m 0x65
 447 251 402 331 269 331 c 0
 235 331 222 329 197 327 c 1
 196 324 193 302 193 294 c 2
 193 148 l 2
 193 134 192 73 209 59 c 0
 221 48 251 45 263 45 c 0
 309 45 447 54 447 176 c 0x65
106 143 m 2
 106 521 l 2
 106 539 105 584 99 607 c 1
 94 619 42 629 30 629 c 0
 28 629 26 634 26 641 c 0
 26 648 28 656 30 658 c 1xad
 30 658 82 656 149 656 c 0
 242 656 231 657 290 657 c 0
 372 657 499 620 499 493 c 0x36
 499 413 416 372 400 366 c 0
 392 363 394 360 395 360 c 0
 431 354 542 289 542 187 c 0
 542 72 440 0 288 0 c 2
 151 0 l 2x75
 84 0 30 -3 30 -3 c 1
 29 -2 27 4 27 13 c 0
 27 19 28 26 30 26 c 0xa5
 42 26 91 35 99 49 c 0
 106 61 106 106 106 143 c 2
315 376 m 0
 367 381 411 413 411 470 c 0
 411 559 367 616 274 616 c 0x36
 250 616 217 613 203 609 c 0
 199 608 197 604 197 600 c 0
 195 573 193 499 193 499 c 1
 193 380 l 2
 193 376 224 373 259 373 c 0
 277 373 299 374 315 376 c 0
EndSplineSet
Validated: 33
Substitution2: "'sinf' Scientific Inferiors lookup 5-1" B.sinf
Substitution2: "'sups' Superscript lookup 6-1" B.ssup
Substitution2: "'subs' Subscript lookup 1-1" B.subs
Substitution2: "'ordn' Ordinals lookup 0-1" B.ordn
EndChar

StartChar: C
Encoding: 67 67 35
Width: 638
Flags: W
HStem: -6 43<276.992 477.809> 625 42<270.366 462.821>
VStem: 24 95<213.444 446.585> 559 34<483.297 533.511>
LayerCount: 2
Fore
SplineSet
614 183 m 1
 614 172 589 43 580 38 c 0
 522 3 433 -6 341 -6 c 0
 164 -6 24 145 24 322 c 0
 24 509 167 667 352 667 c 0
 418 667 515 658 595 642 c 1
 595 642 593 508 593 498 c 0
 593 488 582 483 572 483 c 0
 566 483 561 485 559 488 c 1
 553 519 522 625 355 625 c 0
 220 625 119 483 119 343 c 0
 119 187 205 37 379 37 c 0
 446 37 501 62 532 95 c 0
 564 129 573 192 581 192 c 0
 595 192 614 183 614 183 c 1
EndSplineSet
Validated: 1
Substitution2: "'sinf' Scientific Inferiors lookup 5-1" C.sinf
Substitution2: "'sups' Superscript lookup 6-1" C.ssup
Substitution2: "'subs' Subscript lookup 1-1" C.subs
Substitution2: "'ordn' Ordinals lookup 0-1" C.ordn
EndChar

StartChar: D
Encoding: 68 68 36
Width: 692
Flags: W
HStem: -3 46<180.585 444.762> -3 29<27.0058 87.6226> 614 44<202.704 431.756> 629 29<26.0898 89.8824>
VStem: 106 87<57.9039 603.534> 568 100<212.177 453.397>
LayerCount: 2
Fore
SplineSet
149 656 m 0x5c
 218 656 279 658 323 658 c 0
 554 658 668 496 668 336 c 0
 668 152 546 -3 322 -3 c 0xac
 278 -3 219 2 151 0 c 1
 84 1 30 -3 30 -3 c 1
 29 -2 27 3 27 12 c 0
 27 18 28 26 30 26 c 0
 42 26 91 35 99 49 c 0
 106 61 106 106 106 143 c 2
 106 521 l 2
 106 539 105 584 99 607 c 1
 94 619 42 629 30 629 c 0
 28 629 26 634 26 641 c 0
 26 648 28 656 30 658 c 1
 30 658 82 656 149 656 c 0x5c
193 535 m 2
 193 139 l 2
 193 109 197 88 208 63 c 0
 215 48 322 43 338 43 c 0
 491 43 568 145 568 340 c 0
 568 478 496 614 331 614 c 2
 326 614 l 2
 302 614 217 613 206 598 c 0
 195 583 193 553 193 535 c 2
EndSplineSet
Validated: 33
Substitution2: "'sinf' Scientific Inferiors lookup 5-1" D.sinf
Substitution2: "'sups' Superscript lookup 6-1" D.ssup
Substitution2: "'subs' Subscript lookup 1-1" D.subs
Substitution2: "'ordn' Ordinals lookup 0-1" D.ordn
EndChar

StartChar: E
Encoding: 69 69 37
Width: 574
Flags: W
HStem: -3 29<27.0264 87.6226> 0 44<199.074 450.53> 309 44<193 370.451> 616 48<253.651 434.938> 616 40<196.952 357.197> 629 29<26.0898 89.8824>
VStem: 106 87<49.5865 307.528 353.429 611.922> 399 32<230.002 287.868 373.107 427.976> 469 32<523.07 569.412>
LayerCount: 2
Fore
SplineSet
149 656 m 0x2b80
 243 656 363 664 472 664 c 1
 479 614 492 573 501 528 c 1
 498 525 490 523 483 523 c 0
 476 523 470 525 469 530 c 0
 447 610 406 616 353 616 c 2
 286 616 l 2
 245 616 200 615 198 603 c 0
 194 584 193 542 193 519 c 2
 193 359 l 2
 193 354 214 353 236 353 c 2
 289 353 l 2
 385 353 382 355 399 421 c 0
 400 426 407 428 414 428 c 0
 421 428 428 426 431 423 c 1
 431 234 l 1
 429 232 422 230 415 230 c 0
 408 230 401 233 399 238 c 0
 384 295 380 295 371 301 c 0
 360 308 303 309 265 309 c 0
 237 309 193 309 193 300 c 2
 193 145 l 2
 193 126 195 74 202 54 c 0
 205 45 228 44 270 44 c 2
 318 44 l 2
 356 44 415 46 444 61 c 0
 463 71 491 109 507 162 c 0
 508 166 514 168 521 168 c 0
 531 168 543 165 546 162 c 1
 527 108 499 40 492 -4 c 1
 383 -4 284 0 151 0 c 0x7380
 104 0 30 -3 30 -3 c 1
 29 -2 27 4 27 13 c 0
 27 19 28 26 30 26 c 0
 42 26 91 35 99 49 c 0
 106 61 106 106 106 143 c 2
 106 521 l 2
 106 539 105 584 99 607 c 1
 94 619 42 629 30 629 c 0
 28 629 26 634 26 641 c 0
 26 648 28 656 30 658 c 1xa780
 30 658 82 656 149 656 c 0x2b80
EndSplineSet
Validated: 1
Substitution2: "'sinf' Scientific Inferiors lookup 5-1" E.sinf
Substitution2: "'sups' Superscript lookup 6-1" E.ssup
Substitution2: "'subs' Subscript lookup 1-1" E.subs
Substitution2: "'ordn' Ordinals lookup 0-1" E.ordn
EndChar

StartChar: F
Encoding: 70 70 38
Width: 529
Flags: W
HStem: -3 29<28.0058 92.8553 208.335 269.997> 306 44<193 369.451> 616 48<253.651 434.938> 616 40<196.952 357.197> 629 29<26.0898 89.8824>
VStem: 106 87<36.9151 304.651 350.385 611.922> 398 32<227.002 284.868 373.74 429.976> 469 32<523.07 569.412>
LayerCount: 2
Fore
SplineSet
193 519 m 2xe7
 193 356 l 2
 193 351 213 350 235 350 c 2
 288 350 l 2
 384 350 381 357 398 423 c 0
 399 428 406 430 413 430 c 0
 420 430 427 428 430 425 c 1
 430 231 l 1
 428 229 421 227 414 227 c 0
 407 227 400 230 398 235 c 0
 383 292 379 292 370 298 c 0
 359 305 302 306 264 306 c 0
 236 306 193 306 193 297 c 2
 193 139 l 2
 193 103 195 73 202 46 c 0
 205 35 258 26 266 26 c 0
 269 26 270 17 270 11 c 0
 270 6 269 0 268 -3 c 1
 228 -1 196 2 152 2 c 0
 106 2 78 -1 32 -3 c 1
 30 -1 28 6 28 12 c 0
 28 18 30 26 32 26 c 0
 44 26 94 34 99 46 c 1
 105 69 106 118 106 136 c 2
 106 521 l 2
 106 539 105 584 99 607 c 1
 94 619 42 629 30 629 c 0
 28 629 26 634 26 641 c 0
 26 648 28 656 30 658 c 1xcf
 30 658 82 656 149 656 c 0xd7
 243 656 363 664 472 664 c 1
 479 614 492 573 501 528 c 1
 498 525 490 523 483 523 c 0
 476 523 470 525 469 530 c 0
 447 610 406 616 353 616 c 2
 286 616 l 2
 245 616 200 615 198 603 c 0
 194 584 193 542 193 519 c 2xe7
EndSplineSet
Validated: 1
Substitution2: "'sinf' Scientific Inferiors lookup 5-1" F.sinf
Substitution2: "'sups' Superscript lookup 6-1" F.ssup
Substitution2: "'subs' Subscript lookup 1-1" F.subs
Substitution2: "'ordn' Ordinals lookup 0-1" F.ordn
EndChar

StartChar: G
Encoding: 71 71 39
Width: 697
Flags: W
HStem: -6 43<284.632 506.722> 271 29<427.188 498.694 616.316 670.997> 625 42<267.782 466.546>
VStem: 24 97<224.895 446.796> 515 84<59.4725 258.241> 516 100<52.209 184.32> 559 34<483.297 536.346>
LayerCount: 2
Fore
SplineSet
24 322 m 0xf4
 24 509 167 667 352 667 c 0
 418 667 508 644 589 622 c 1
 589 622 593 508 593 498 c 0
 593 488 582 483 572 483 c 0
 566 483 561 485 559 488 c 1xf2
 553 519 529 625 355 625 c 0
 220 625 121 492 121 335 c 0
 121 197 223 37 379 37 c 0
 431 37 475 41 509 59 c 0
 515 62 516 67 516 74 c 0xf4
 516 101 515 156 515 156 c 1
 515 163 l 2
 515 180 515 228 507 249 c 0
 501 264 442 271 430 271 c 0
 425 271 425 295 430 300 c 1
 481 298 510 295 561 295 c 0
 603 295 629 298 669 300 c 1
 670 297 671 292 671 286 c 0
 671 279 670 271 667 271 c 0
 659 271 621 260 609 253 c 0
 600 247 599 234 599 186 c 0xf8
 599 150 602 124 602 114 c 0
 602 84 616 69 616 59 c 0
 616 53 609 48 591 41 c 0
 538 21 482 -6 341 -6 c 0
 164 -6 24 145 24 322 c 0xf4
EndSplineSet
Validated: 1
Substitution2: "'sinf' Scientific Inferiors lookup 5-1" G.sinf
Substitution2: "'sups' Superscript lookup 6-1" G.ssup
Substitution2: "'subs' Subscript lookup 1-1" G.subs
Substitution2: "'ordn' Ordinals lookup 0-1" G.ordn
EndChar

StartChar: H
Encoding: 72 72 40
Width: 684
Flags: W
HStem: -3 29<26.0058 90.8553 206.335 267.234 418.188 481.855 596.335 657.997> 317 50<191 495> 633 29<26.0511 89.0787 207.221 267.234 418.188 480.079 597.221 657.993>
VStem: 104 87<36.9151 316.069 367.001 621.28> 495 87<36.9151 314.999 367.001 621.28>
LayerCount: 2
Fore
SplineSet
495 135 m 2
 495 311 l 2
 495 313 493 315 493 315 c 1
 446 316 396 317 345 317 c 0
 191 317 191 316 191 312 c 2
 191 139 l 2
 191 103 193 73 200 46 c 0
 203 35 256 26 264 26 c 0
 269 26 268 3 266 -3 c 1
 226 -1 194 2 150 2 c 0
 104 2 76 -1 30 -3 c 1
 28 -1 26 6 26 12 c 0
 26 18 28 26 30 26 c 0
 42 26 92 34 97 46 c 1
 103 69 104 117 104 135 c 2
 104 523 l 2
 104 541 103 589 97 612 c 1
 92 624 42 633 30 633 c 0
 28 633 26 640 26 646 c 0
 26 652 28 660 30 662 c 1
 76 660 104 656 150 656 c 0
 194 656 226 660 266 662 c 1
 268 656 269 633 264 633 c 0
 256 633 203 623 200 612 c 0
 193 585 191 555 191 519 c 2
 191 370 l 2
 191 369 193 367 193 367 c 1
 242 366 289 365 345 365 c 0
 392 365 448 366 493 367 c 1
 493 367 495 369 495 371 c 2
 495 523 l 2
 495 541 494 589 488 612 c 1
 483 624 433 633 421 633 c 0
 416 633 416 657 421 662 c 1
 467 660 496 656 542 656 c 0
 586 656 616 660 656 662 c 1
 657 659 658 652 658 647 c 0
 658 641 657 633 654 633 c 0
 646 633 593 623 590 612 c 0
 583 585 582 555 582 519 c 2
 582 139 l 2
 582 103 583 73 590 46 c 0
 593 35 646 26 654 26 c 0
 657 26 658 17 658 11 c 0
 658 6 657 0 656 -3 c 1
 616 -1 586 2 542 2 c 0
 496 2 467 -1 421 -3 c 1
 416 2 416 26 421 26 c 0
 433 26 483 34 488 46 c 1
 494 69 495 117 495 135 c 2
EndSplineSet
Validated: 1
Substitution2: "'sinf' Scientific Inferiors lookup 5-1" H.sinf
Substitution2: "'sups' Superscript lookup 6-1" H.ssup
Substitution2: "'subs' Subscript lookup 1-1" H.subs
Substitution2: "'ordn' Ordinals lookup 0-1" H.ordn
EndChar

StartChar: I
Encoding: 73 73 41
Width: 294
Flags: W
HStem: -3 29<26.0058 90.8553 206.335 267.997> 633 29<26.0511 89.0787 207.221 267.993>
VStem: 104 87<36.9151 621.28>
LayerCount: 2
Fore
SplineSet
104 523 m 2
 104 541 103 589 97 612 c 1
 92 624 42 633 30 633 c 0
 28 633 26 640 26 646 c 0
 26 652 28 660 30 662 c 1
 76 660 104 657 150 657 c 0
 194 657 226 660 266 662 c 1
 267 659 268 652 268 647 c 0
 268 641 267 633 264 633 c 0
 256 633 203 623 200 612 c 0
 193 585 191 555 191 519 c 2
 191 139 l 6
 191 103 193 73 200 46 c 4
 203 35 256 26 264 26 c 4
 267 26 268 17 268 11 c 4
 268 6 267 0 266 -3 c 5
 226 -1 194 2 150 2 c 4
 104 2 76 -1 30 -3 c 5
 28 -1 26 6 26 12 c 4
 26 18 28 26 30 26 c 4
 42 26 92 34 97 46 c 5
 103 69 104 117 104 135 c 6
 104 523 l 2
EndSplineSet
Validated: 1
Substitution2: "'sinf' Scientific Inferiors lookup 5-1" I.sinf
Substitution2: "'sups' Superscript lookup 6-1" I.ssup
Substitution2: "'subs' Subscript lookup 1-1" I.subs
Substitution2: "'ordn' Ordinals lookup 0-1" I.ordn
EndChar

StartChar: J
Encoding: 74 74 42
Width: 357
Flags: W
HStem: -227 60<-8 96.7876> 633 29<89.0511 152.079 270.221 330.993>
VStem: 167 87<-38.9674 621.28>
LayerCount: 2
Fore
SplineSet
167 523 m 2
 167 541 166 589 160 612 c 1
 155 624 105 633 93 633 c 0
 91 633 89 640 89 646 c 0
 89 652 91 660 93 662 c 1
 139 660 167 656 213 656 c 0
 257 656 289 660 329 662 c 1
 330 659 331 652 331 647 c 0
 331 641 330 633 327 633 c 0
 319 633 266 623 263 612 c 0
 256 585 254 555 254 519 c 2
 254 85 l 2
 254 -77 154 -227 4 -227 c 0
 -20 -227 -48 -211 -48 -211 c 1
 -53 -205 -60 -189 -60 -174 c 0
 -60 -143 -30 -124 2 -124 c 0
 36 -124 50 -167 78 -167 c 0
 112 -167 167 -100 167 77 c 2
 167 523 l 2
EndSplineSet
Validated: 1
Substitution2: "'sinf' Scientific Inferiors lookup 5-1" J.sinf
Substitution2: "'sups' Superscript lookup 6-1" J.ssup
Substitution2: "'subs' Subscript lookup 1-1" J.subs
Substitution2: "'ordn' Ordinals lookup 0-1" J.ordn
EndChar

StartChar: K
Encoding: 75 75 43
Width: 676
Flags: W
HStem: -3 29<26.0058 90.8553 206.335 267.234 408.188 453.795 603.648 671.848> 311 39<191 226.76> 633 29<26.0511 89.0787 207.221 267.234 399.036 458.965 544.588 608.703>
VStem: 104 87<36.9151 310.997 350.002 621.28>
LayerCount: 2
Fore
SplineSet
191 519 m 2
 191 356 l 2
 191 353 198 350 198 350 c 1
 205 350 l 2
 219 350 239 352 263 379 c 0
 343 469 361 486 435 582 c 0
 440 588 459 610 459 620 c 0
 459 635 411 637 402 637 c 0
 397 637 397 653 400 662 c 1
 437 660 470 656 507 656 c 0
 551 656 568 660 608 662 c 1
 610 656 611 637 606 637 c 0
 597 636 547 633 514 595 c 2
 313 361 l 2
 305 352 314 341 320 334 c 2
 561 69 l 2
 596 30 659 26 667 26 c 0
 670 26 672 15 672 8 c 0
 672 3 671 -1 670 -3 c 1
 630 -1 587 2 546 2 c 0
 490 2 467 -1 411 -3 c 1
 406 2 406 26 411 26 c 0
 422 26 454 30 454 42 c 0
 454 60 387 143 227 307 c 0
 222 312 209 311 198 311 c 0
 194 311 191 307 191 303 c 2
 191 139 l 2
 191 103 193 73 200 46 c 0
 203 35 256 26 264 26 c 0
 269 26 268 3 266 -3 c 1
 226 -1 194 2 150 2 c 0
 104 2 76 -1 30 -3 c 1
 28 -1 26 6 26 12 c 0
 26 18 28 26 30 26 c 0
 42 26 92 34 97 46 c 1
 103 69 104 117 104 135 c 2
 104 523 l 2
 104 541 103 589 97 612 c 1
 92 624 42 633 30 633 c 0
 28 633 26 640 26 646 c 0
 26 652 28 660 30 662 c 1
 76 660 104 656 150 656 c 0
 194 656 226 660 266 662 c 1
 268 656 269 633 264 633 c 0
 256 633 203 623 200 612 c 0
 193 585 191 555 191 519 c 2
EndSplineSet
Validated: 1
Substitution2: "'sinf' Scientific Inferiors lookup 5-1" K.sinf
Substitution2: "'sups' Superscript lookup 6-1" K.ssup
Substitution2: "'subs' Subscript lookup 1-1" K.subs
Substitution2: "'ordn' Ordinals lookup 0-1" K.ordn
EndChar

StartChar: L
Encoding: 76 76 44
Width: 569
Flags: W
HStem: -1 29<26.0264 90.6375> 2 42<198.604 448.564> 633 29<27.0511 90.0787 208.221 268.993>
VStem: 105 87<49.5865 621.28>
LayerCount: 2
Fore
SplineSet
192 519 m 2xb0
 192 142 l 2
 192 106 194 81 201 54 c 0
 204 45 227 44 269 44 c 2
 317 44 l 2
 355 44 414 46 443 61 c 0
 462 71 490 109 506 162 c 0
 507 166 513 168 520 168 c 0
 530 168 542 165 545 162 c 1
 526 108 498 40 491 -4 c 1
 382 -4 280 2 150 2 c 0x70
 103 2 29 -1 29 -1 c 1
 28 0 26 6 26 15 c 0
 26 21 27 28 29 28 c 0
 41 28 90 35 98 49 c 0
 105 61 105 106 105 143 c 2
 105 521 l 2
 105 539 104 589 98 612 c 1
 93 624 43 633 31 633 c 0
 29 633 27 640 27 646 c 0
 27 652 29 660 31 662 c 1
 77 660 105 656 151 656 c 0
 195 656 227 660 267 662 c 1
 268 659 269 652 269 647 c 0
 269 641 268 633 265 633 c 0
 257 633 204 623 201 612 c 0
 194 585 192 555 192 519 c 2xb0
EndSplineSet
Validated: 1
Substitution2: "'sinf' Scientific Inferiors lookup 5-1" L.sinf
Substitution2: "'sups' Superscript lookup 6-1" L.ssup
Substitution2: "'subs' Subscript lookup 1-1" L.subs
Substitution2: "'ordn' Ordinals lookup 0-1" L.ordn
EndChar

StartChar: M
Encoding: 77 77 45
Width: 906
Flags: W
HStem: -3 29<26.0087 96.8058 198.819 265.997 635.051 697.806 817.703 879.993> 633 25<51.0511 119.956 809.735 859.948>
VStem: 127 52<44.8512 289.128> 138 57<359.796 581.944> 711 83<41.3231 347.261>
LayerCount: 2
Fore
SplineSet
167 657 m 0xd8
 201 657 237 660 259 662 c 1
 279 599 386 339 457 161 c 0
 458 159 460 159 461 159 c 0
 462 159 465 160 466 163 c 2
 466 163 564 393 622 542 c 0
 640 588 662 662 662 662 c 1
 694 660 726 658 745 658 c 0
 780 658 832 660 857 662 c 1
 858 659 860 652 860 647 c 0
 860 641 858 633 855 633 c 2
 853 633 l 2
 839 633 809 623 797 613 c 0
 789 607 785 572 785 546 c 0
 785 526 791 270 794 140 c 0
 795 101 799 74 809 48 c 0
 815 34 868 26 876 26 c 0
 879 26 880 18 880 12 c 0
 880 7 879 0 878 -3 c 1
 838 -1 803 2 759 2 c 0
 713 2 685 -1 639 -3 c 1
 637 -1 635 7 635 13 c 0
 635 19 637 26 639 26 c 0
 651 26 687 34 699 41 c 0
 706 45 711 70 711 84 c 0
 711 98 712 122 711 137 c 2
 699 489 l 2
 698 506 691 548 684 548 c 0
 682 548 681 546 679 541 c 2
 470 41 l 2
 466 32 451 -2 433 -2 c 0
 430 -2 427 -1 424 0 c 1
 195 582 l 1xd8
 191 364 179 87 179 75 c 0
 179 66 182 53 185 49 c 0
 195 36 254 26 262 26 c 0
 265 26 266 18 266 11 c 0
 266 5 265 0 264 -3 c 1
 224 -1 192 2 148 2 c 0
 102 2 77 -1 31 -3 c 1
 29 -1 26 6 26 12 c 0
 26 18 29 26 31 26 c 0
 43 26 96 34 109 48 c 0
 125 66 126 100 127 135 c 0xe8
 131 375 138 529 138 572 c 0
 138 586 137 601 134 612 c 1
 129 624 67 633 55 633 c 0
 53 633 51 641 51 647 c 0
 51 653 53 660 55 662 c 1
 101 660 121 657 167 657 c 0xd8
EndSplineSet
Validated: 33
Substitution2: "'sinf' Scientific Inferiors lookup 5-1" M.sinf
Substitution2: "'sups' Superscript lookup 6-1" M.ssup
Substitution2: "'subs' Subscript lookup 1-1" M.subs
Substitution2: "'ordn' Ordinals lookup 0-1" M.ordn
EndChar

StartChar: N
Encoding: 78 78 46
Width: 729
Flags: W
HStem: -3 29<26.0029 94.7816 192.656 259.987> 635 27<30.1875 95.2755 468.074 534.635 636.588 702.965>
VStem: 119 56<41.3891 567.234> 557 55<172.79 620.656>
LayerCount: 2
Fore
SplineSet
557 524 m 2
 557 541 556 589 550 612 c 1
 545 624 483 635 471 635 c 0
 466 635 466 657 471 662 c 1
 517 660 543 656 589 656 c 0
 633 656 661 660 701 662 c 1
 702 659 703 652 703 647 c 0
 703 641 702 635 699 635 c 0
 691 635 623 623 620 612 c 0
 613 585 612 555 612 519 c 2
 612 139 l 2
 612 81 613 51 615 -1 c 1
 612 -4 599 -5 596 -5 c 0
 587 -5 573 4 563 18 c 2
 175 568 l 1
 175 141 l 2
 175 105 175 75 182 48 c 0
 185 37 249 26 257 26 c 0
 262 26 261 3 259 -3 c 1
 219 -1 188 2 144 2 c 0
 98 2 75 -1 29 -3 c 1
 27 -1 26 6 26 12 c 0
 26 18 27 26 29 26 c 0
 41 26 104 37 109 50 c 0
 119 76 119 106 119 144 c 2
 119 537 l 2
 119 565 118 590 112 612 c 1
 107 624 45 633 33 633 c 0
 28 633 28 657 33 662 c 1
 72 661 89 660 135 660 c 0
 165 660 201 661 215 662 c 1
 260 579 443 327 554 172 c 1
 557 189 557 197 557 213 c 2
 557 524 l 2
EndSplineSet
Validated: 1
Substitution2: "'sinf' Scientific Inferiors lookup 5-1" N.sinf
Substitution2: "'sups' Superscript lookup 6-1" N.ssup
Substitution2: "'subs' Subscript lookup 1-1" N.subs
Substitution2: "'ordn' Ordinals lookup 0-1" N.ordn
EndChar

StartChar: O
Encoding: 79 79 47
Width: 687
Flags: W
HStem: -10 43<269.496 440.516> 625 42<248.698 414.137>
VStem: 24 99<213.089 450.855> 564 99<206.425 444.367>
LayerCount: 2
Fore
SplineSet
328 625 m 4
 194 625 123 484 123 350 c 4
 123 195 204 33 359 33 c 4
 494 33 564 174 564 309 c 4
 564 464 483 625 328 625 c 4
24 328 m 4
 24 515 167 667 343 667 c 4
 519 667 663 515 663 328 c 4
 663 141 519 -10 343 -10 c 4
 167 -10 24 141 24 328 c 4
EndSplineSet
Validated: 1
Substitution2: "'sinf' Scientific Inferiors lookup 5-1" O.sinf
Substitution2: "'sups' Superscript lookup 6-1" O.ssup
Substitution2: "'subs' Subscript lookup 1-1" O.subs
Substitution2: "'ordn' Ordinals lookup 0-1" O.ordn
EndChar

StartChar: P
Encoding: 80 80 48
Width: 520
Flags: W
HStem: -3 29<27.1103 87.6226 219.789 282.998> 277 43<219.459 340.805> 616 44<196.589 348.736> 629 29<26.0898 89.8824>
VStem: 106 87<49.5865 610.855> 402 92<392.8 560.255>
LayerCount: 2
Fore
SplineSet
213 331 m 4xec
 243 320 252 320 280 320 c 4
 346 320 402 385 402 462 c 4
 402 551 366 616 275 616 c 4xec
 251 616 219 613 205 609 c 4
 197 607 193 598 193 499 c 6
 193 142 l 6
 193 123 193 75 201 55 c 0
 209 35 272 26 280 26 c 0
 285 26 284 3 282 -3 c 1
 242 -1 211 2 152 2 c 0
 85 2 30 -3 30 -3 c 1
 29 -2 27 6 27 15 c 0
 27 21 28 28 30 28 c 0
 42 28 91 35 99 49 c 0
 106 61 106 106 106 143 c 2
 106 521 l 2
 106 539 105 584 99 607 c 1
 94 619 42 629 30 629 c 0
 28 629 26 634 26 641 c 0
 26 648 28 656 30 658 c 1xdc
 150 656 l 17
 209 656 232 660 291 660 c 4
 373 660 494 614 494 477 c 4
 494 403 430 277 290 277 c 4
 267 277 230 282 213 305 c 4
 210 309 208 333 213 331 c 4xec
EndSplineSet
Validated: 1
Substitution2: "'sinf' Scientific Inferiors lookup 5-1" P.sinf
Substitution2: "'sups' Superscript lookup 6-1" P.ssup
Substitution2: "'subs' Subscript lookup 1-1" P.subs
Substitution2: "'ordn' Ordinals lookup 0-1" P.ordn
EndChar

StartChar: Q
Encoding: 81 81 49
Width: 714
Flags: W
HStem: -136 52<564.379 724.468> 625 42<248.453 414.352>
VStem: 24 95<215.216 450.855> 568 95<205.533 444.367>
LayerCount: 2
Fore
SplineSet
328 625 m 0
 194 625 119 484 119 350 c 0
 119 195 204 33 359 33 c 0
 494 33 568 174 568 309 c 0
 568 464 483 625 328 625 c 0
672 -84 m 0
 712 -84 733 -76 740 -76 c 0
 748 -76 752 -86 752 -96 c 2
 752 -101 l 1
 697 -130 645 -136 584 -136 c 0
 474 -136 365 -33 257 0 c 0
 169 27 24 141 24 328 c 0
 24 515 167 667 343 667 c 0
 519 667 663 515 663 328 c 0
 663 141 526 22 439 5 c 1
 536 -41 568 -84 672 -84 c 0
EndSplineSet
Validated: 1
Substitution2: "'sinf' Scientific Inferiors lookup 5-1" Q.sinf
Substitution2: "'sups' Superscript lookup 6-1" Q.ssup
Substitution2: "'subs' Subscript lookup 1-1" Q.subs
Substitution2: "'ordn' Ordinals lookup 0-1" Q.ordn
EndChar

StartChar: R
Encoding: 82 82 50
Width: 662
Flags: W
HStem: -3 31<27.0593 92.5446 212.994 282.987 606.726 657.999> 306 43<194.52 278.221> 612 48<204.67 364.213> 629 29<26.0898 89.8824>
VStem: 106 87<49.5865 305.998 354.992 604.951> 417 92<405.425 560.187>
LayerCount: 2
Fore
SplineSet
291 660 m 0xec
 373 660 509 614 509 477 c 0
 509 424 465 353 390 318 c 0
 385 316 381 313 384 308 c 0
 395 285 434 203 499 132 c 0
 552 74 611 27 655 27 c 1
 657 23 658 18 658 13 c 0
 658 7 658 4 655 -2 c 1
 648 -4 633 -5 628 -5 c 0
 512 -5 437 66 385 139 c 0
 315 238 290 286 254 302 c 0
 246 305 230 306 217 306 c 0
 204 306 193 306 193 289 c 2
 193 142 l 2
 193 123 193 75 201 55 c 0
 209 35 272 26 280 26 c 0
 285 26 284 3 282 -3 c 1
 242 -1 211 2 152 2 c 0
 85 2 30 -3 30 -3 c 1
 29 -2 27 6 27 15 c 0
 27 21 28 28 30 28 c 0
 42 28 91 35 99 49 c 0
 106 61 106 106 106 143 c 2
 106 521 l 2
 106 539 105 584 99 607 c 1
 94 619 42 629 30 629 c 0
 28 629 26 634 26 641 c 0
 26 648 28 656 30 658 c 1xdc
 150 656 l 2
 209 656 232 660 291 660 c 0xec
305 349 m 2
 342 349 417 391 417 477 c 0
 417 572 364 612 275 612 c 0xec
 251 612 218 609 204 605 c 0
 200 604 197 600 197 596 c 0
 195 569 193 562 193 499 c 2
 193 378 l 2
 193 351 237 349 280 349 c 2
 305 349 l 2
EndSplineSet
Validated: 1
Substitution2: "'sinf' Scientific Inferiors lookup 5-1" R.sinf
Substitution2: "'sups' Superscript lookup 6-1" R.ssup
Substitution2: "'subs' Subscript lookup 1-1" R.subs
Substitution2: "'ordn' Ordinals lookup 0-1" R.ordn
EndChar

StartChar: S
Encoding: 83 83 51
Width: 466
Flags: W
HStem: -10 41<149.824 304.72> 625 41<163.362 299.749>
VStem: 26 41<119.3 183.72> 46 80<454.853 571.509> 353 87<89.7983 213.651>
LayerCount: 2
Fore
SplineSet
46 490 m 0xd8
 46 596 142 666 242 666 c 0
 304 666 327 653 393 638 c 1
 405 585 405 522 405 495 c 0
 405 488 398 488 395 488 c 0
 391 488 371 488 369 498 c 0
 363 548 314 625 235 625 c 0
 147 625 126 569 126 521 c 0xd8
 126 441 200 408 266 366 c 0
 332 324 440 272 440 173 c 0
 440 63 338 -10 231 -10 c 0
 163 -10 100 9 51 19 c 1
 39 78 26 166 26 178 c 0
 26 183 35 184 42 184 c 0
 53 184 64 179 67 175 c 1xe8
 74 145 101 31 233 31 c 0
 295 31 353 68 353 146 c 0
 353 229 289 250 220 290 c 0
 143 335 46 389 46 490 c 0xd8
EndSplineSet
Validated: 1
Substitution2: "'sinf' Scientific Inferiors lookup 5-1" S.sinf
Substitution2: "'sups' Superscript lookup 6-1" S.ssup
Substitution2: "'subs' Subscript lookup 1-1" S.subs
Substitution2: "'ordn' Ordinals lookup 0-1" S.ordn
EndChar

StartChar: T
Encoding: 84 84 52
Width: 663
Flags: W
HStem: -3 29<209.006 273.855 389.335 450.997> 615 45<87.0107 280.684 381.25 575.989>
VStem: 24 34<521.684 575.415> 287 87<36.9151 607.652> 605 34<521.684 575.415>
LayerCount: 2
Fore
SplineSet
287 135 m 2
 287 497 l 2
 287 537 286 586 278 600 c 0
 274 608 249 615 170 615 c 0
 93 615 77 600 58 526 c 0
 57 522 53 521 48 521 c 0
 39 521 27 525 24 528 c 1
 43 671 l 1
 59 667 98 660 112 660 c 0
 201 659 251 656 331 656 c 0
 411 656 462 659 551 660 c 0
 565 660 604 667 620 671 c 1
 639 528 l 1
 636 525 624 521 615 521 c 0
 610 521 606 522 605 526 c 0
 586 600 570 615 493 615 c 0
 414 615 385 608 383 600 c 0
 375 572 374 538 374 500 c 2
 374 139 l 2
 374 103 376 73 383 46 c 0
 386 35 439 26 447 26 c 0
 450 26 451 17 451 11 c 0
 451 6 450 0 449 -3 c 1
 409 -1 377 2 333 2 c 0
 287 2 259 -1 213 -3 c 1
 211 -1 209 6 209 12 c 0
 209 18 211 26 213 26 c 0
 225 26 275 34 280 46 c 1
 286 69 287 117 287 135 c 2
EndSplineSet
Validated: 1
Substitution2: "'sinf' Scientific Inferiors lookup 5-1" T.sinf
Substitution2: "'sups' Superscript lookup 6-1" T.ssup
Substitution2: "'subs' Subscript lookup 1-1" T.subs
Substitution2: "'ordn' Ordinals lookup 0-1" T.ordn
EndChar

StartChar: U
Encoding: 85 85 53
Width: 714
Flags: W
HStem: 0 49<286.945 461.388> 633 29<24.0511 87.0787 205.221 265.997 455.074 528.881 615.826 689.993>
VStem: 102 87<165.404 621.28> 544 55<146.536 620.656>
LayerCount: 2
Fore
SplineSet
148 657 m 0
 192 657 224 660 264 662 c 1
 265 659 266 654 266 648 c 0
 266 641 265 633 262 633 c 0
 254 633 201 623 198 612 c 0
 191 585 189 555 189 519 c 2
 189 296 l 2
 189 148 253 49 373 49 c 0
 470 49 544 102 544 274 c 2
 544 524 l 2
 544 541 543 589 537 612 c 1
 532 624 470 635 458 635 c 0
 453 635 453 657 458 662 c 1
 504 660 530 656 576 656 c 0
 620 656 648 660 688 662 c 1
 689 659 690 652 690 647 c 0
 690 641 689 635 686 635 c 0
 678 635 610 623 607 612 c 0
 600 585 599 555 599 519 c 2
 599 276 l 2
 599 55 493 0 349 0 c 0
 198 0 102 79 102 296 c 2
 102 523 l 2
 102 541 101 589 95 612 c 1
 90 624 40 633 28 633 c 0
 26 633 24 640 24 646 c 0
 24 652 26 660 28 662 c 1
 74 660 102 657 148 657 c 0
EndSplineSet
Validated: 1
Substitution2: "'sinf' Scientific Inferiors lookup 5-1" U.sinf
Substitution2: "'sups' Superscript lookup 6-1" U.ssup
Substitution2: "'subs' Subscript lookup 1-1" U.subs
Substitution2: "'ordn' Ordinals lookup 0-1" U.ordn
EndChar

StartChar: V
Encoding: 86 86 54
Width: 702
Flags: W
HStem: -9 21G<340 348.5> 633 29<14.0511 72.078 198.936 258.234 477.188 535.07 638.068 689.993>
VStem: 14 182<583 649>
LayerCount: 2
Fore
SplineSet
577 502 m 2
 377 24 l 2
 366 -3 355 -9 342 -9 c 0
 338 -9 334 -7 332 -3 c 2
 127 514 l 2
 112 553 99 584 82 610 c 0
 71 626 30 633 18 633 c 0
 16 633 14 640 14 646 c 0
 14 652 16 660 18 662 c 1
 64 660 87 657 133 657 c 0
 177 657 217 660 257 662 c 1
 259 656 260 633 255 633 c 0
 247 633 200 633 197 614 c 0
 196 609 196 605 196 600 c 0
 196 566 248 444 365 157 c 0
 368 149 379 157 381 162 c 2
 531 524 l 2
 540 547 548 567 548 585 c 0
 548 594 545 603 541 612 c 0
 533 628 492 633 480 633 c 0
 475 633 475 657 480 662 c 1
 517 660 550 657 587 657 c 0
 633 657 648 660 688 662 c 1
 689 659 690 652 690 647 c 0
 690 641 689 633 686 633 c 0
 678 633 640 631 626 605 c 0
 606 569 593 540 577 502 c 2
EndSplineSet
Validated: 1
Substitution2: "'sinf' Scientific Inferiors lookup 5-1" V.sinf
Substitution2: "'sups' Superscript lookup 6-1" V.ssup
Substitution2: "'subs' Subscript lookup 1-1" V.subs
Substitution2: "'ordn' Ordinals lookup 0-1" V.ordn
EndChar

StartChar: W
Encoding: 87 87 55
Width: 1063
Flags: W
HStem: -8 21G<393 399 671 678.5> 633 29<14.0511 58.4083 192.422 250.234 301.188 344.408 478.388 535.234 586.188 627.867 744.463 801.234 845.188 887.856 1000.58 1050.99>
VStem: 899 152<580.5 649.5>
LayerCount: 2
Fore
SplineSet
642 588 m 0
 642 626 599 633 589 633 c 0
 584 633 584 657 589 662 c 1
 621 660 658 657 690 657 c 0
 741 657 760 660 800 662 c 1
 802 656 803 633 798 633 c 0
 790 633 739 623 723 605 c 0
 706 585 682 539 665 502 c 2
 595 347 l 2
 593 343 595 339 597 335 c 2
 696 122 l 2
 700 114 710 122 712 127 c 2
 884 536 l 2
 894 560 899 573 899 588 c 0
 899 629 860 633 848 633 c 0
 843 633 843 657 848 662 c 1
 880 660 918 657 950 657 c 0
 1001 657 1009 660 1049 662 c 1
 1050 659 1051 652 1051 647 c 0
 1051 641 1050 633 1047 633 c 0
 1039 633 999 625 982 605 c 0
 965 585 941 539 925 502 c 2
 712 24 l 2
 701 -2 684 -8 673 -8 c 0
 669 -8 666 -6 664 -3 c 2
 539 260 l 1
 434 24 l 2
 421 -4 403 -8 395 -8 c 0
 391 -8 388 -6 386 -3 c 2
 126 514 l 2
 108 551 91 581 68 610 c 0
 56 625 30 633 18 633 c 0
 16 633 14 640 14 646 c 0
 14 652 16 660 18 662 c 1
 64 660 90 657 136 657 c 0
 180 657 209 660 249 662 c 1
 251 656 252 633 247 633 c 0
 239 633 193 632 190 613 c 0
 189 608 189 604 189 600 c 0
 189 576 199 555 212 530 c 2
 422 124 l 2
 426 116 435 124 437 129 c 2
 510 306 l 2
 512 310 514 314 512 318 c 2
 412 514 l 2
 393 551 377 581 354 610 c 0
 342 625 316 633 304 633 c 0
 299 633 299 657 304 662 c 1
 350 660 376 657 422 657 c 0
 466 657 494 660 534 662 c 1
 536 656 537 633 532 633 c 0
 524 633 479 632 476 613 c 0
 475 608 475 604 475 599 c 0
 475 575 485 555 498 530 c 2
 567 397 l 1
 628 538 l 2
 637 560 642 575 642 588 c 0
EndSplineSet
Validated: 1
Substitution2: "'sinf' Scientific Inferiors lookup 5-1" W.sinf
Substitution2: "'sups' Superscript lookup 6-1" W.ssup
Substitution2: "'subs' Subscript lookup 1-1" W.subs
Substitution2: "'ordn' Ordinals lookup 0-1" W.ordn
EndChar

StartChar: X
Encoding: 88 88 56
Width: 737
Flags: W
HStem: -3 29<22.0272 92.8815 200.369 261.973 448.188 501.199 641.461 714.964> 633 29<58.1875 117.471 266.181 320.234 453.188 513.075 622.477 696.234>
LayerCount: 2
Fore
SplineSet
526 602 m 0
 526 615 498 633 456 633 c 0
 451 633 451 657 456 662 c 1
 493 660 546 657 583 657 c 0
 635 657 655 660 695 662 c 1
 697 656 698 633 693 633 c 0
 685 633 612 624 597 604 c 2
 414 364 l 1
 410 357 410 354 413 350 c 0
 464 275 573 106 605 69 c 0
 636 32 677 26 710 26 c 0
 713 26 715 17 715 10 c 0
 715 5 714 -1 713 -3 c 1
 673 -1 638 2 597 2 c 0
 541 2 507 -1 451 -3 c 1
 446 2 446 26 451 26 c 0
 462 26 506 31 506 50 c 0
 506 53 503 59 501 62 c 2
 357 291 l 2
 355 294 351 292 348 288 c 0
 283 201 190 77 190 55 c 0
 190 49 202 26 258 26 c 0
 261 26 262 16 262 10 c 0
 262 6 262 0 260 -3 c 1
 223 -1 184 2 147 2 c 0
 95 2 64 -1 24 -3 c 1
 23 0 22 5 22 10 c 0
 22 16 23 26 26 26 c 0
 34 26 90 30 114 54 c 1
 321 325 l 2
 324 329 324 332 320 340 c 2
 203 524 l 1
 178 558 156 587 126 613 c 0
 111 626 73 633 61 633 c 0
 56 633 56 657 61 662 c 1
 110 660 142 657 191 657 c 0
 240 657 279 660 319 662 c 1
 321 656 322 633 317 633 c 0
 303 633 257 627 257 601 c 0
 257 593 261 583 268 571 c 2
 380 401 l 1
 384 397 387 399 390 403 c 0
 443 471 526 574 526 602 c 0
EndSplineSet
Validated: 1
Substitution2: "'sinf' Scientific Inferiors lookup 5-1" X.sinf
Substitution2: "'sups' Superscript lookup 6-1" X.ssup
Substitution2: "'subs' Subscript lookup 1-1" X.subs
Substitution2: "'ordn' Ordinals lookup 0-1" X.ordn
EndChar

StartChar: Y
Encoding: 89 89 57
Width: 646
Flags: W
HStem: -3 27<201.074 257.578 381.671 435.234> 635 27<12.1131 64.667 219.138 269.234 403.074 458.438 575.989 635.965>
VStem: 276 87<36.0506 320.845> 475 161<586.5 649.5>
LayerCount: 2
Fore
SplineSet
268 46 m 1
 274 69 276 104 276 142 c 2
 276 267 l 2
 276 286 269 300 130 549 c 0
 110 586 104 597 81 613 c 0
 65 624 28 635 16 635 c 0
 14 635 12 640 12 646 c 0
 12 652 14 660 16 662 c 1
 65 660 87 656 136 656 c 0
 185 656 228 660 268 662 c 1
 270 656 271 635 266 635 c 0
 252 635 206 627 206 601 c 0
 206 593 210 583 217 571 c 2
 329 359 l 1
 334 354 337 358 339 361 c 0
 397 449 475 571 475 602 c 0
 475 615 448 635 406 635 c 0
 401 635 401 657 406 662 c 1
 443 660 497 656 534 656 c 0
 586 656 594 660 634 662 c 1
 635 659 636 652 636 647 c 0
 636 641 635 635 632 635 c 0
 624 635 561 624 546 604 c 1
 524 570 363 313 363 291 c 2
 363 139 l 2
 363 103 364 73 371 46 c 0
 374 35 424 24 432 24 c 0
 437 24 436 3 434 -3 c 1
 394 -1 366 2 322 2 c 0
 276 2 250 -1 204 -3 c 1
 199 2 199 24 204 24 c 0
 216 24 263 34 268 46 c 1
EndSplineSet
Validated: 1
Substitution2: "'sinf' Scientific Inferiors lookup 5-1" Y.sinf
Substitution2: "'sups' Superscript lookup 6-1" Y.ssup
Substitution2: "'subs' Subscript lookup 1-1" Y.subs
Substitution2: "'ordn' Ordinals lookup 0-1" Y.ordn
EndChar

StartChar: Z
Encoding: 90 90 58
Width: 609
Flags: W
HStem: 0 51<159.005 479.331> 608 48<123.574 419.091> 645 20G<55 67 488 532>
VStem: 26 42<481.351 541.543>
LayerCount: 2
Fore
SplineSet
422 608 m 1xd0
 210 608 l 2xd0
 117 608 92 570 68 484 c 0
 67 481 63 480 58 480 c 0
 47 480 29 486 26 489 c 1
 38 545 51 600 59 665 c 1xb0
 75 661 197 656 211 656 c 2
 320 656 l 2
 404 656 446 660 530 666 c 1
 534 665 540 643 540 633 c 1
 538 625 166 76 166 76 c 2
 162 70 159 65 159 61 c 0
 159 54 166 51 173 51 c 2
 399 51 l 2
 500 51 526 122 545 172 c 0
 546 174 554 175 559 175 c 0
 569 175 579 170 583 166 c 1
 559 87 549 50 539 0 c 1
 43 0 l 1
 37 7 35 18 35 26 c 0
 35 33 36 39 39 43 c 2
 422 608 l 1xd0
EndSplineSet
Validated: 1
Substitution2: "'sinf' Scientific Inferiors lookup 5-1" Z.sinf
Substitution2: "'sups' Superscript lookup 6-1" Z.ssup
Substitution2: "'subs' Subscript lookup 1-1" Z.subs
Substitution2: "'ordn' Ordinals lookup 0-1" Z.ordn
EndChar

StartChar: bracketleft
Encoding: 91 91 59
Width: 246
Flags: W
HStem: -102 45<96 203.216> 695 45<96 203.966>
VStem: 37 59<-57.4548 695.272>
LayerCount: 2
Fore
SplineSet
56 740 m 0
 137 740 200 749 216 749 c 0
 218 749 222 747 222 737 c 0
 222 714 206 707 204 706 c 2
 204 706 157 695 103 695 c 0
 97 695 96 687 96 687 c 1
 96 -49 l 1
 96 -49 97 -57 103 -57 c 0
 125 -57 167 -61 205 -74 c 0
 214 -77 217 -84 217 -96 c 0
 217 -107 211 -114 211 -114 c 1
 211 -114 138 -102 56 -102 c 0
 38 -102 37 -80 37 -79 c 2
 37 717 l 2
 37 718 38 740 56 740 c 0
EndSplineSet
Validated: 1
Substitution2: "'sinf' Scientific Inferiors lookup 5-1" bracketleft.sinf
Substitution2: "'sups' Superscript lookup 6-1" bracketleft.ssup
Substitution2: "'smcp' Lowercase to Small Capitals lookup 2-1" bracketleft.sc
Substitution2: "'subs' Subscript lookup 1-1" bracketleft.subs
Substitution2: "'ordn' Ordinals lookup 0-1" bracketleft.ordn
EndChar

StartChar: backslash
Encoding: 92 92 60
Width: 406
Flags: W
LayerCount: 2
Fore
SplineSet
382 -7 m 0
 382 -34 364 -38 359 -39 c 1
 353 -39 335 -37 335 -37 c 1
 22 755 l 1
 22 755 29 761 43 761 c 0
 73 761 85 754 92 739 c 2
 379 13 l 2
 381 9 382 1 382 -7 c 0
EndSplineSet
Validated: 1
Substitution2: "'sinf' Scientific Inferiors lookup 5-1" backslash.sinf
Substitution2: "'sups' Superscript lookup 6-1" backslash.ssup
Substitution2: "'smcp' Lowercase to Small Capitals lookup 2-1" backslash.sc
Substitution2: "'subs' Subscript lookup 1-1" backslash.subs
Substitution2: "'ordn' Ordinals lookup 0-1" backslash.ordn
EndChar

StartChar: bracketright
Encoding: 93 93 61
Width: 245
Flags: W
HStem: -102 45<34.8968 149> 695 45<41.0343 149>
VStem: 149 58<-56.9942 694.994>
LayerCount: 2
Fore
SplineSet
149 -49 m 1
 149 687 l 1
 149 687 148 695 142 695 c 0
 88 695 41 706 41 706 c 2
 40 707 23 714 23 737 c 0
 23 747 26 749 28 749 c 2
 29 749 l 1
 29 749 107 740 189 740 c 0
 207 740 207 718 207 717 c 2
 207 -79 l 2
 207 -80 207 -102 189 -102 c 0
 107 -102 33 -114 33 -114 c 1
 33 -114 27 -113 27 -102 c 0
 27 -90 27 -92 33 -82 c 0
 36 -76 42 -74 42 -74 c 1
 42 -74 88 -57 142 -57 c 0
 148 -57 149 -49 149 -49 c 1
EndSplineSet
Validated: 1
Substitution2: "'sinf' Scientific Inferiors lookup 5-1" bracketright.sinf
Substitution2: "'sups' Superscript lookup 6-1" bracketright.ssup
Substitution2: "'smcp' Lowercase to Small Capitals lookup 2-1" bracketright.sc
Substitution2: "'subs' Subscript lookup 1-1" bracketright.subs
Substitution2: "'ordn' Ordinals lookup 0-1" bracketright.ordn
EndChar

StartChar: asciicircum
Encoding: 94 94 62
Width: 385
Flags: W
HStem: 475 215
VStem: 40 304
LayerCount: 2
Fore
SplineSet
331 475 m 0
 315 475 239 540 191 597 c 1
 147 540 69 475 53 475 c 0
 43 475 40 499 40 499 c 1
 46 513 126 567 177 677 c 0
 181 686 182 690 187 690 c 0
 212 690 202 668 262 588 c 0
 285 558 342 505 344 500 c 1
 344 496 339 475 331 475 c 0
EndSplineSet
Validated: 1
Substitution2: "'smcp' Lowercase to Small Capitals lookup 2-1" asciicircum.sc
EndChar

StartChar: underscore
Encoding: 95 95 63
Width: 536
Flags: W
HStem: -43 56<36.9907 495.32>
LayerCount: 2
Fore
SplineSet
33 -33 m 1
 33 -33 38 13 48 13 c 2
 497 13 l 2
 499 13 501 12 501 8 c 0
 501 -1 497 -15 491 -37 c 0
 489 -43 485 -43 485 -43 c 1
 40 -43 l 1
 40 -43 33 -43 33 -33 c 1
EndSplineSet
Validated: 1
EndChar

StartChar: grave
Encoding: 96 96 64
Width: 460
Flags: W
HStem: 527 160
VStem: 507 168
LayerCount: 2
Fore
SplineSet
507 663 m 0
 507 668 513 687 548 687 c 0
 562 687 577 683 582 678 c 0
 619 635 675 545 675 540 c 0
 675 534 670 527 663 527 c 0
 653 527 507 624 507 663 c 0
EndSplineSet
Validated: 1
EndChar

StartChar: a
Encoding: 97 97 65
Width: 418
Flags: W
HStem: -7 57<122.958 208.484 329.463 383.191> 398 38<140.067 230.667>
VStem: 28 84<61.0183 148.735 293.482 352.469> 250 76<68.6374 203 236.922 381.656>
LayerCount: 2
Fore
SplineSet
250 100 m 2
 250 203 l 1
 205 184 112 171 112 106 c 0
 112 69 139 50 173 50 c 0
 210 50 250 77 250 100 c 2
326 93 m 2
 326 66 341 44 367 44 c 0
 386 44 399 56 402 58 c 1
 405 58 406 53 406 50 c 0
 406 44 404 34 401 29 c 1
 387 17 357 -6 331 -6 c 0
 298 -6 267 29 258 53 c 1
 254 52 205 -7 134 -7 c 0
 78 -7 28 21 28 91 c 0
 28 184 164 212 241 241 c 0
 247 243 250 249 250 256 c 2
 250 331 l 2
 250 376 217 398 182 398 c 0
 142 398 112 369 112 324 c 0
 112 299 94 289 71 289 c 0
 57 289 39 296 32 308 c 1
 32 366 137 436 223 436 c 0
 298 436 326 401 326 324 c 2
 326 93 l 2
EndSplineSet
Validated: 1
Substitution2: "'sinf' Scientific Inferiors lookup 5-1" a.sinf
Substitution2: "'sups' Superscript lookup 6-1" a.ssup
Substitution2: "'smcp' Lowercase to Small Capitals lookup 2-1" a.sc
Substitution2: "'subs' Subscript lookup 1-1" a.subs
Substitution2: "'ordn' Ordinals lookup 0-1" a.ordn
EndChar

StartChar: b
Encoding: 98 98 66
Width: 486
Flags: W
HStem: -6 42<162.756 299.623> 389 49<165.487 288.122> 629 27<-5.82275 56.7581> 674 20G<137.5 144>
VStem: 66 77<55.1183 375.286 405.794 623.698> 362 86<135.609 309.652>
LayerCount: 2
Fore
SplineSet
113 7 m 0
 97 7 82.0713 -4 75 -4 c 3
 73 -4 54 -1 54 6 c 0
 54 14 66 52 66 135 c 2
 66 549 l 2
 66 566 64 593 60 613 c 1
 56 627 26 629 9 629 c 2
 0 629 l 2
 -4 629 -6 633 -6 640 c 0
 -6 642 -5 656 0 656 c 0
 109 666 136 694 139 694 c 2
 141 694 l 2
 147 694 153 683 154 678 c 1
 154 678 143 646 143 591 c 2
 143 416 l 2
 143 411 142.702 401.381 149 406 c 0
 164 417 211 438 243 438 c 0
 383 438 448 317 448 233 c 0
 448 104 333 -6 222 -6 c 0
 158 -6 134 7 113 7 c 0
143 329 m 2
 143 96 l 2
 143 50 197 36 241 36 c 0
 323 36 362 131 362 212 c 0
 362 316 303 389 211 389 c 0
 177 389 143 370 143 329 c 2
EndSplineSet
Validated: 1
Substitution2: "'sinf' Scientific Inferiors lookup 5-1" b.sinf
Substitution2: "'sups' Superscript lookup 6-1" b.ssup
Substitution2: "'smcp' Lowercase to Small Capitals lookup 2-1" b.sc
Substitution2: "'subs' Subscript lookup 1-1" b.subs
Substitution2: "'ordn' Ordinals lookup 0-1" b.ordn
EndChar

StartChar: c
Encoding: 99 99 67
Width: 408
Flags: W
HStem: -6 64<176.751 310.584> 399 37<159.191 260.647>
VStem: 24 78<139.747 319.729>
LayerCount: 2
Fore
SplineSet
218 436 m 0
 278 436 341 420 370 385 c 1
 370 361 364 318 333 318 c 0
 309 318 300 330 284 353 c 0
 273.705 367.799 255 399 210 399 c 0
 164 399 102 356 102 244 c 0
 102 142 155 58 251 58 c 0
 326 58 364 95 370 98 c 1
 371 98 376 93 376 85 c 0
 376 80 373.274 71.6133 370 67 c 0
 348 36 294 -6 226 -6 c 0
 117 -6 24 88 24 209 c 0
 24 320 84 436 218 436 c 0
EndSplineSet
Validated: 1
Substitution2: "'sinf' Scientific Inferiors lookup 5-1" c.sinf
Substitution2: "'sups' Superscript lookup 6-1" c.ssup
Substitution2: "'smcp' Lowercase to Small Capitals lookup 2-1" c.sc
Substitution2: "'subs' Subscript lookup 1-1" c.subs
Substitution2: "'ordn' Ordinals lookup 0-1" c.ordn
EndChar

StartChar: d
Encoding: 100 100 68
Width: 486
Flags: W
HStem: -4 49<183.238 307.151> 20 27<415.508 471.915> 398 42<174.154 309.304> 629 27<257.177 319.758> 674 20G<400.5 407>
VStem: 24 86<128.357 294.885> 329 77<58.575 378.343 423.004 623.698>
LayerCount: 2
Fore
SplineSet
247 440 m 4xbe
 277 440 305 432 322 423 c 5
 325 423 329 429 329 441 c 6
 329 549 l 6
 329 566 327 593 323 613 c 5
 319 627 289 629 272 629 c 6
 263 629 l 6
 259 629 257 633 257 640 c 4
 257 642 258 656 263 656 c 4
 372 666 399 694 402 694 c 6
 404 694 l 6
 410 694 416 683 417 678 c 5
 417 678 406 646 406 591 c 6
 406 141 l 6
 406 130 406 93 412 65 c 4
 417 46 466 48 469 47 c 4
 471 46 472 38 472 35 c 4
 472 33 471 20 466 20 c 4x7e
 414 17 336 -6 335 -6 c 4
 330 -6 329 4 329 11 c 6
 329 23 l 6
 329 28 326.959 28.0771 325 27 c 4
 305 16 257 -4 219 -4 c 4
 107 -4 24 88 24 196 c 4
 24 327 134 440 247 440 c 4xbe
234 398 m 4
 151 398 110 309 110 225 c 4
 110 135 160 45 257 45 c 4xbe
 302 45 329 67 329 102 c 6
 329 340 l 6
 329 362 308 398 234 398 c 4
EndSplineSet
Validated: 1
Substitution2: "'sinf' Scientific Inferiors lookup 5-1" d.sinf
Substitution2: "'sups' Superscript lookup 6-1" d.ssup
Substitution2: "'smcp' Lowercase to Small Capitals lookup 2-1" d.sc
Substitution2: "'subs' Subscript lookup 1-1" d.subs
Substitution2: "'ordn' Ordinals lookup 0-1" d.ordn
EndChar

StartChar: e
Encoding: 101 101 69
Width: 411
Flags: W
HStem: -6 64<176.534 310.584> 232 42<105.122 311> 399 37<158.592 261.24>
VStem: 24 79<139.029 320.327> 311 81<246.5 350.117>
LayerCount: 2
Fore
SplineSet
222 436 m 0
 353 436 392 329 392 261 c 0
 392 232 383 232 363 232 c 0
 281 232 195 232 111 232 c 0
 105 232 103 231.123 103 227 c 0
 103 156 146 58 251 58 c 0
 326 58 364 95 370 98 c 1
 371 98 376 93 376 85 c 0
 376 80 373.274 71.6133 370 67 c 0
 348 36 294 -6 226 -6 c 0
 117 -6 24 88 24 209 c 0
 24 353 113 436 222 436 c 0
212 399 m 0
 131 399 105 302 105 281 c 0
 105 278 106 274 111 274 c 0
 120 274 300 274 306 274 c 0
 310.473 274 311 280 311 284 c 0
 311 314 280 399 212 399 c 0
EndSplineSet
Validated: 1
Substitution2: "'sinf' Scientific Inferiors lookup 5-1" e.sinf
Substitution2: "'sups' Superscript lookup 6-1" e.ssup
Substitution2: "'smcp' Lowercase to Small Capitals lookup 2-1" e.sc
Substitution2: "'subs' Subscript lookup 1-1" e.subs
Substitution2: "'ordn' Ordinals lookup 0-1" e.ordn
EndChar

StartChar: f
Encoding: 102 102 70
Width: 318
Flags: W
HStem: -3 29<17.0058 73.5618 179.596 233.593> 372 47<38.5452 88.9985 165.002 282.625> 656 39<219.914 297.114>
VStem: 89 76<36.4871 371.997 419.002 548.692>
LayerCount: 2
Fore
SplineSet
89 425 m 6
 89 438 l 6
 89 583 194 695 288 695 c 4
 349 695 373 673 383 656 c 5
 383 623 374 593 347 593 c 4
 314 593 308 656 257 656 c 4
 194 656 165 564 165 475 c 6
 165 424 l 6
 165 422 168 419 170 419 c 6
 281 419 l 6
 286 419 286 418 286 412 c 4
 286 403 281 386 274 372 c 5
 171 372 l 6
 168 372 165 369 165 366 c 4
 165 276 166 135 166 135 c 6
 166 102 167 73 174 46 c 4
 177 35 222 26 230 26 c 4
 235 26 235 3 233 -3 c 5
 193 -1 166 2 126 2 c 4
 85 2 62 -1 21 -3 c 5
 19 -1 17 6 17 12 c 4
 17 18 19 26 21 26 c 4
 33 26 76 35 79 46 c 4
 87 77 88 100 88 135 c 6
 88 135 89 276 89 365 c 4
 89 368 87 372 84 372 c 6
 31 372 l 6
 29 372 28 374 28 378 c 4
 28 386 50 419 78 419 c 6
 84 419 l 6
 87 419 89 422 89 425 c 6
EndSplineSet
Validated: 1
Substitution2: "Short f substition-1" f.short
Substitution2: "'sinf' Scientific Inferiors lookup 5-1" f.sinf
Substitution2: "'sups' Superscript lookup 6-1" f.ssup
Substitution2: "'smcp' Lowercase to Small Capitals lookup 2-1" f.sc
Substitution2: "'subs' Subscript lookup 1-1" f.subs
Substitution2: "'ordn' Ordinals lookup 0-1" f.ordn
EndChar

StartChar: g
Encoding: 103 103 71
Width: 470
Flags: W
HStem: -227 37<157.965 309.148> -14 72<126.409 349.857> 152 34<163.836 262.97> 367 39<360.845 440.703> 398 34<160.302 259.134>
VStem: 25 70<-144.62 -63.6129> 42 77<225.977 362.321> 50 67<44 118.789> 304 77<224.619 358.855> 375 66<-118.281 -8>
LayerCount: 2
Fore
SplineSet
119 296 m 0xea80
 119 233 164 186 214 186 c 0
 267 186 304 233 304 288 c 0
 304 351 259 398 209 398 c 0
 156 398 119 351 119 296 c 0xea80
375 -85 m 0xe440
 375 -30 336 -14 171 -14 c 0
 169 -14 166 -16 165 -16 c 0
 134 -30 95 -47 95 -94 c 0
 95 -154 171 -190 238 -190 c 0
 322 -190 375 -137 375 -85 c 0xe440
213 432 m 0xea
 286 432 304 406 377 406 c 2
 435 406 l 1
 438 405 441 391 441 381 c 0xf240
 441 373 439 367 435 367 c 2
 364 367 l 2
 361 367 360 366 360 364 c 0
 360 355 381 333 381 292 c 0
 381 222 311 152 215 152 c 0
 189 152 171 154 159 156 c 1
 143 148 117 119 117 99 c 0xf180
 117 58 172 59 217 58 c 0
 389 55 441 22 441 -38 c 0
 441 -138 348 -226 209 -227 c 0
 128 -228 25 -198 25 -116 c 0xf440
 25 -59 96 -25 123 -10 c 1
 91 -5 50 22 50 66 c 0xf1
 50 105 93 146 123 166 c 1
 86 179 42 232 42 292 c 0
 42 371 117 432 213 432 c 0xea
EndSplineSet
Validated: 33
Substitution2: "'sinf' Scientific Inferiors lookup 5-1" g.sinf
Substitution2: "'sups' Superscript lookup 6-1" g.ssup
Substitution2: "'smcp' Lowercase to Small Capitals lookup 2-1" g.sc
Substitution2: "'subs' Subscript lookup 1-1" g.subs
Substitution2: "'ordn' Ordinals lookup 0-1" g.ordn
EndChar

StartChar: h
Encoding: 104 104 72
Width: 534
Flags: W
HStem: -3 29<29.1875 87.2849 190.966 248.593 303.188 357.654 460.966 518.593> 377 61<244.846 335.436> 629 27<28.1772 90.7581> 674 20G<171.5 178>
VStem: 100 77<36.4871 346.251 368.002 623.698> 370 77<36.4871 336.456>
LayerCount: 2
Fore
SplineSet
447 242 m 2
 447 134 l 2
 447 101 448 73 455 46 c 0
 458 35 507 26 515 26 c 0
 520 26 520 3 518 -3 c 1
 478 -1 449 2 411 2 c 0
 370 2 347 -1 306 -3 c 1
 301 2 301 26 306 26 c 0
 318 26 360 35 363 46 c 0
 369 71 370 102 370 116 c 2
 370 222 l 2
 370 354 329 377 266 377 c 0
 224 377 177 334 177 312 c 2
 177 135 l 2
 177 102 178 73 185 46 c 0
 188 35 237 26 245 26 c 0
 250 26 250 3 248 -3 c 1
 208 -1 179 2 141 2 c 0
 100 2 73 -1 32 -3 c 1
 27 2 27 26 32 26 c 0
 44 26 90 35 93 46 c 0
 99 71 100 101 100 115 c 2
 100 549 l 2
 100 566 98 593 94 613 c 1
 90 627 60 629 43 629 c 2
 34 629 l 2
 30 629 28 633 28 640 c 0
 28 642 29 656 34 656 c 0
 143 666 170 694 173 694 c 2
 175 694 l 2
 181 694 187 683 188 678 c 1
 188 678 177 646 177 591 c 2
 177 591 177 380 177 372 c 0
 177 371 177 368 179 368 c 0
 180 368 181.041 368.961 182 370 c 0
 206 396 268 438 322 438 c 0
 414 438 447 372 447 242 c 2
EndSplineSet
Validated: 1
Substitution2: "'sinf' Scientific Inferiors lookup 5-1" h.sinf
Substitution2: "'sups' Superscript lookup 6-1" h.ssup
Substitution2: "'smcp' Lowercase to Small Capitals lookup 2-1" h.sc
Substitution2: "'subs' Subscript lookup 1-1" h.subs
Substitution2: "'ordn' Ordinals lookup 0-1" h.ordn
EndChar

StartChar: i
Encoding: 105 105 73
Width: 275
Flags: W
HStem: -3 29<30.1875 88.2849 191.966 249.593> 414 20G<177.5 181> 543 100<90.4375 173.562>
VStem: 82 100<551.438 634.562> 101 77<36.4871 366.601>
LayerCount: 2
Fore
SplineSet
82 593 m 0xf0
 82 621 104 643 132 643 c 0
 160 643 182 621 182 593 c 0
 182 565 160 543 132 543 c 0
 104 543 82 565 82 593 c 0xf0
178 135 m 2xe8
 178 102 179 73 186 46 c 0
 189 35 238 26 246 26 c 0
 251 26 251 3 249 -3 c 1
 209 -1 180 2 142 2 c 0
 101 2 74 -1 33 -3 c 1
 28 2 28 26 33 26 c 0
 45 26 91 35 94 46 c 0
 100 71 101 102 101 116 c 2
 101 305 l 2
 101 313 100 345 87 359 c 1
 65 386 29 376 29 382 c 0
 29 383 30 406 35 407 c 0
 80 414 136 422 173 433 c 0
 174 433 177 434 178 434 c 0
 184 434 184 418 183 413 c 0
 179 381 178 375 178 341 c 2
 178 135 l 2xe8
EndSplineSet
Validated: 1
Substitution2: "'sinf' Scientific Inferiors lookup 5-1" i.sinf
Substitution2: "'sups' Superscript lookup 6-1" i.ssup
Substitution2: "'smcp' Lowercase to Small Capitals lookup 2-1" i.sc
Substitution2: "'subs' Subscript lookup 1-1" i.subs
Substitution2: "'ordn' Ordinals lookup 0-1" i.ordn
EndChar

StartChar: j
Encoding: 106 106 74
Width: 267
Flags: W
HStem: 414 20G<167.5 171> 543 100<73.4375 156.562>
VStem: 65 100<551.438 634.562> 91 77<-83.5328 366.601>
LayerCount: 2
Fore
SplineSet
91 305 m 2xd0
 91 313 90 345 77 359 c 1
 55 386 19 376 19 382 c 0
 19 383 20 406 25 407 c 0
 70 414 126 422 163 433 c 0
 164 433 167 434 168 434 c 0
 174 434 174 418 173 413 c 0
 169 381 168 375 168 341 c 2
 168 68 l 2
 168 32 164 -65 129 -120 c 0
 93 -177 32 -217 -5 -231 c 1
 -10 -228 -16 -221 -18 -216 c 0
 -19 -214 -19 -210 -18 -209 c 0
 -16 -203 91 -183 91 45 c 2
 91 305 l 2xd0
65 593 m 0xe0
 65 621 87 643 115 643 c 0
 143 643 165 621 165 593 c 0
 165 565 143 543 115 543 c 0
 87 543 65 565 65 593 c 0xe0
EndSplineSet
Validated: 1
Substitution2: "'sinf' Scientific Inferiors lookup 5-1" j.sinf
Substitution2: "'sups' Superscript lookup 6-1" j.ssup
Substitution2: "'smcp' Lowercase to Small Capitals lookup 2-1" j.sc
Substitution2: "'subs' Subscript lookup 1-1" j.subs
Substitution2: "'ordn' Ordinals lookup 0-1" j.ordn
EndChar

StartChar: k
Encoding: 107 107 75
Width: 547
Flags: W
HStem: -3 27<29.1875 81.9777 196.512 248.593 297.074 335.982 458.464 513.951> 385 23<279.794 323.785 414.031 474.493> 629 27<28.1772 90.7581> 674 20G<171.5 178>
VStem: 100 77<36.4871 195 241 623.698>
LayerCount: 2
Fore
SplineSet
401 368 m 4
 391 362 308 304 253 247 c 1
 328 166 406 73 430 53 c 0
 456 32 502 24 510 24 c 0
 513 24 514 15 514 8 c 0
 514 3 514 -1 513 -3 c 1
 473 -1 442 2 404 2 c 0
 363 2 341 -1 300 -3 c 1
 295 2 295 24 300 24 c 0
 311 24 336 30 336 37 c 0
 336 38 336 39 335 40 c 2
 189 198 l 1
 177 195 l 1
 177 135 l 1
 178 102 178 73 185 46 c 0
 188 35 237 26 245 26 c 0
 250 26 250 3 248 -3 c 1
 208 -1 179 2 141 2 c 0
 100 2 73 -1 32 -3 c 1
 27 2 27 26 32 26 c 0
 44 26 90 35 93 46 c 0
 99 71 100 102 100 116 c 2
 100 549 l 2
 100 566 98 593 94 613 c 1
 90 627 60 629 43 629 c 2
 34 629 l 2
 30 629 28 633 28 640 c 0
 28 642 29 656 34 656 c 0
 143 666 170 694 173 694 c 2
 175 694 l 2
 181 694 187 683 188 678 c 1
 188 678 177 646 177 591 c 2
 177 241 l 1
 185 243 194 243 202 250 c 0
 290 327 326 347 326 367 c 4
 326 387 285 377 281 385 c 5
 278 394 277 406 282 408 c 5
 361 408 l 6
 396 408 425 411 471 413 c 5
 479 408 475 385 470 385 c 4
 453 385 412 375 401 368 c 4
EndSplineSet
Validated: 1
Substitution2: "'sinf' Scientific Inferiors lookup 5-1" k.sinf
Substitution2: "'sups' Superscript lookup 6-1" k.ssup
Substitution2: "'smcp' Lowercase to Small Capitals lookup 2-1" k.sc
Substitution2: "'subs' Subscript lookup 1-1" k.subs
Substitution2: "'ordn' Ordinals lookup 0-1" k.ordn
EndChar

StartChar: l
Encoding: 108 108 76
Width: 279
Flags: W
HStem: -3 29<29.1875 87.2849 190.966 248.593> 629 27<28.1772 90.7581> 674 20G<171.5 178>
VStem: 100 77<36.4871 623.698>
LayerCount: 2
Fore
SplineSet
100 116 m 6
 100 549 l 6
 100 566 98 593 94 613 c 5
 90 627 60 629 43 629 c 6
 34 629 l 6
 30 629 28 633 28 640 c 4
 28 642 29 656 34 656 c 4
 143 666 170 694 173 694 c 6
 175 694 l 6
 181 694 187 683 188 678 c 5
 188 678 177 646 177 591 c 6
 177 135 l 6
 177 102 178 73 185 46 c 4
 188 35 237 26 245 26 c 4
 250 26 250 3 248 -3 c 5
 208 -1 179 2 141 2 c 4
 100 2 73 -1 32 -3 c 5
 27 2 27 26 32 26 c 4
 44 26 90 35 93 46 c 4
 99 71 100 102 100 116 c 6
EndSplineSet
Validated: 1
Substitution2: "'sinf' Scientific Inferiors lookup 5-1" l.sinf
Substitution2: "'sups' Superscript lookup 6-1" l.ssup
Substitution2: "'smcp' Lowercase to Small Capitals lookup 2-1" l.sc
Substitution2: "'subs' Subscript lookup 1-1" l.subs
Substitution2: "'ordn' Ordinals lookup 0-1" l.ordn
EndChar

StartChar: m
Encoding: 109 109 77
Width: 801
Flags: W
HStem: -3 29<29.9375 88.0349 191.716 249.343 293.938 352.035 455.716 513.343 557.938 616.035 719.716 777.343> 377 61<245.655 324.841 494.408 586.954>
VStem: 100.75 77<36.4871 347.668> 364.75 77<36.4871 330.844> 628.75 77<36.4871 332.082>
CounterMasks: 1 38
LayerCount: 2
Fore
SplineSet
321.75 438 m 0
 380.75 438 413.75 399 424.75 367 c 1
 458.75 399 518.75 438 579.75 438 c 0
 702.75 438 705.75 304 705.75 246 c 2
 705.75 135 l 2
 705.75 102 706.75 73 713.75 46 c 0
 716.75 35 765.75 26 773.75 26 c 0
 778.75 26 778.75 3 776.75 -3 c 1
 736.75 -1 707.75 2 669.75 2 c 0
 628.75 2 601.75 -1 560.75 -3 c 1
 555.75 2 555.75 26 560.75 26 c 0
 572.75 26 618.75 35 621.75 46 c 0
 627.75 71 628.75 96 628.75 110 c 2
 628.75 223 l 2
 628.75 322 597.75 377 527.75 377 c 0
 471.75 377 436.75 334 436.75 320 c 0
 436.75 319 437.438 312.976 437.75 311 c 0
 440.75 292 441.75 257 441.75 239 c 2
 441.75 126 l 2
 441.75 93 442.75 73 449.75 46 c 0
 452.75 35 501.75 26 509.75 26 c 0
 514.75 26 514.75 3 512.75 -3 c 1
 472.75 -1 443.75 2 405.75 2 c 0
 364.75 2 337.75 -1 296.75 -3 c 1
 291.75 2 291.75 26 296.75 26 c 0
 308.75 26 354.75 35 357.75 46 c 0
 363.75 71 364.75 102 364.75 116 c 2
 364.75 218 l 2
 364.75 334 323.75 377 268.75 377 c 0
 227.75 377 177.75 338 177.75 311 c 2
 177.75 135 l 2
 177.75 102 178.75 73 185.75 46 c 0
 188.75 35 237.75 26 245.75 26 c 0
 250.75 26 250.75 3 248.75 -3 c 1
 208.75 -1 179.75 2 141.75 2 c 0
 100.75 2 73.75 -1 32.75 -3 c 1
 27.75 2 27.75 26 32.75 26 c 0
 44.75 26 90.75 35 93.75 46 c 0
 99.75 71 100.75 102 100.75 116 c 2
 100.75 305 l 2
 100.75 313 99.75 345 86.75 359 c 1
 64.75 386 28.75 376 28.75 382 c 0
 28.75 383 29.75 406 34.75 407 c 0
 79.75 414 135.75 422 172.75 433 c 0
 173.75 433 176.75 434 177.75 434 c 0
 183.75 434 183.75 418 182.75 413 c 0
 179.75 392 178.75 381 178.75 373 c 0
 178.75 372 178.75 369 180.75 369 c 0
 181.75 369 182.771 369.979 183.75 371 c 0
 207.75 396 267.75 438 321.75 438 c 0
EndSplineSet
Validated: 524289
Substitution2: "'sinf' Scientific Inferiors lookup 5-1" m.sinf
Substitution2: "'sups' Superscript lookup 6-1" m.ssup
Substitution2: "'smcp' Lowercase to Small Capitals lookup 2-1" m.sc
Substitution2: "'subs' Subscript lookup 1-1" m.subs
Substitution2: "'ordn' Ordinals lookup 0-1" m.ordn
EndChar

StartChar: n
Encoding: 110 110 78
Width: 546
Flags: W
HStem: -3 29<30.1875 88.2849 191.966 249.593 304.188 358.654 461.966 519.593> 377 61<246.19 335.925>
VStem: 101 77<36.4871 347.668> 371 77<36.4871 339.422>
LayerCount: 2
Fore
SplineSet
322 438 m 4
 417 438 448 371 448 226 c 6
 448 135 l 6
 448 102 449 73 456 46 c 4
 459 35 508 26 516 26 c 4
 521 26 521 3 519 -3 c 5
 479 -1 450 2 412 2 c 4
 371 2 348 -1 307 -3 c 5
 302 2 302 26 307 26 c 4
 319 26 361 35 364 46 c 4
 370 71 371 102 371 116 c 6
 371 216 l 6
 371 345 337 377 269 377 c 4
 224 377 178 335 178 311 c 6
 178 135 l 6
 178 102 179 73 186 46 c 4
 189 35 238 26 246 26 c 4
 251 26 251 3 249 -3 c 5
 209 -1 180 2 142 2 c 4
 101 2 74 -1 33 -3 c 5
 28 2 28 26 33 26 c 4
 45 26 91 35 94 46 c 4
 100 71 101 102 101 116 c 6
 101 305 l 6
 101 313 100 345 87 359 c 5
 65 386 29 376 29 382 c 4
 29 383 30 406 35 407 c 4
 80 414 136 422 173 433 c 4
 174 433 177 434 178 434 c 4
 184 434 184 418 183 413 c 4
 180 392 179 381 179 373 c 4
 179 372 179 369 181 369 c 4
 182 369 183.021 369.979 184 371 c 4
 208 396 268 438 322 438 c 4
EndSplineSet
Validated: 1
Substitution2: "'sinf' Scientific Inferiors lookup 5-1" n.sinf
Substitution2: "'sups' Superscript lookup 6-1" n.ssup
Substitution2: "'smcp' Lowercase to Small Capitals lookup 2-1" n.sc
Substitution2: "'subs' Subscript lookup 1-1" n.subs
Substitution2: "'ordn' Ordinals lookup 0-1" n.ordn
EndChar

StartChar: o
Encoding: 111 111 79
Width: 492
Flags: W
HStem: -7 39<198.124 313.02> 398 39<177.668 294.342>
VStem: 28 86<128.728 312.897> 377 86<119.467 302.995>
LayerCount: 2
Fore
SplineSet
234 398 m 4
 161 398 114 321 114 231 c 4
 114 121 181 32 256 32 c 4
 329 32 377 112 377 202 c 4
 377 312 309 398 234 398 c 4
245 437 m 4
 366 437 463 337 463 216 c 4
 463 94 369 -7 247 -7 c 4
 125 -7 28 94 28 216 c 4
 28 340 121 437 245 437 c 4
EndSplineSet
Validated: 1
Substitution2: "'sinf' Scientific Inferiors lookup 5-1" o.sinf
Substitution2: "'sups' Superscript lookup 6-1" o.ssup
Substitution2: "'smcp' Lowercase to Small Capitals lookup 2-1" o.sc
Substitution2: "'subs' Subscript lookup 1-1" o.subs
Substitution2: "'ordn' Ordinals lookup 0-1" o.ordn
EndChar

StartChar: p
Encoding: 112 112 80
Width: 513
Flags: W
HStem: -226 29<26.1875 84.2849 187.966 245.593> -8 42<200.636 328.107> 387 49<198.539 319.761>
VStem: 97 77<-186.513 10.9963 57.7877 367.601> 395 86<135.133 304.919>
LayerCount: 2
Fore
SplineSet
277 436 m 0
 417 436 481 318 481 234 c 0
 481 105 375 -8 262 -8 c 0
 211 -8 195 4 178 11 c 1
 178 11 174 6 174 -2 c 2
 174 -88 l 2
 174 -121 175 -150 182 -177 c 0
 185 -188 234 -197 242 -197 c 0
 247 -197 247 -220 245 -226 c 1
 205 -224 176 -221 138 -221 c 0
 97 -221 70 -224 29 -226 c 1
 24 -221 24 -197 29 -197 c 0
 41 -197 87 -188 90 -177 c 0
 96 -152 97 -121 97 -107 c 2
 97 306 l 2
 97 314 96 346 83 360 c 1
 61 387 25 377 25 383 c 0
 25 384 26 407 31 408 c 0
 76 415 132 423 169 434 c 0
 170 434 173 435 174 435 c 0
 180 435 175 412 175 407 c 0
 175 403 175 403 175 401 c 1
 190 412 243 436 277 436 c 0
245 387 m 0
 206 387 174 366 174 323 c 2
 174 98 l 2
 174 61 223 34 266 34 c 0
 349 34 395 125 395 206 c 0
 395 325 320 387 245 387 c 0
EndSplineSet
Validated: 1
Substitution2: "'sinf' Scientific Inferiors lookup 5-1" p.sinf
Substitution2: "'sups' Superscript lookup 6-1" p.ssup
Substitution2: "'smcp' Lowercase to Small Capitals lookup 2-1" p.sc
Substitution2: "'subs' Subscript lookup 1-1" p.subs
Substitution2: "'ordn' Ordinals lookup 0-1" p.ordn
EndChar

StartChar: q
Encoding: 113 113 81
Width: 458
Flags: W
HStem: -227 29<268.188 326.285 429.966 487.593> -4 49<192.732 316.696> 398 42<182.751 319.035> 417 20G<407.464 412>
VStem: 34 86<123.507 293.549> 339 77<-187.513 26.1326 58.8788 378.535>
LayerCount: 2
Fore
SplineSet
339 -108 m 2xdc
 339 16 l 2
 339 21 338 29 332 26 c 0
 311.9 15.9502 275 -4 236 -4 c 0
 115 -4 34 100 34 203 c 0
 34 316 137 440 261 440 c 0xec
 325 440 352 429 373 429 c 0
 389 429 403.929 437 411 437 c 3
 413 437 432 433 432 427 c 0
 432 419 416 376 416 293 c 2
 416 -101 l 2
 416 -134 417 -151 424 -178 c 0
 427 -189 476 -198 484 -198 c 0
 489 -198 489 -221 487 -227 c 1
 447 -225 418 -222 380 -222 c 0
 339 -222 312 -225 271 -227 c 1
 266 -222 266 -198 271 -198 c 0
 283 -198 329 -189 332 -178 c 0
 338 -153 339 -122 339 -108 c 2xdc
339 105 m 2
 339 337 l 2
 339 372 306 398 244 398 c 0
 150 398 120 290 120 226 c 0
 120 100 195 45 271 45 c 0
 292 45 339 55 339 105 c 2
EndSplineSet
Validated: 1
Substitution2: "'sinf' Scientific Inferiors lookup 5-1" q.sinf
Substitution2: "'sups' Superscript lookup 6-1" q.ssup
Substitution2: "'smcp' Lowercase to Small Capitals lookup 2-1" q.sc
Substitution2: "'subs' Subscript lookup 1-1" q.subs
Substitution2: "'ordn' Ordinals lookup 0-1" q.ordn
EndChar

StartChar: r
Encoding: 114 114 82
Width: 396
Flags: W
HStem: -3 29<30.1875 88.2849 192.058 250.593> 375 62<228.815 300.432>
VStem: 101 77<36.4871 344.821>
LayerCount: 2
Fore
SplineSet
289 437 m 0
 329 437 351 432 367 408 c 1
 367 357 347 341 329 341 c 0
 291 341 304 375 255 375 c 0
 212 375 178 326 178 285 c 2
 178 135 l 2
 178 102 179 73 186 46 c 0
 189 35 239 26 247 26 c 0
 252 26 252 3 250 -3 c 1
 210 -1 180 2 142 2 c 0
 101 2 74 -1 33 -3 c 1
 28 2 28 26 33 26 c 0
 45 26 91 35 94 46 c 0
 100 71 101 102 101 116 c 2
 101 305 l 2
 101 313 100 345 87 359 c 1
 65 386 29 376 29 382 c 0
 29 383 30 406 35 407 c 0
 80 414 136 422 173 433 c 0
 174 433 177 434 178 434 c 0
 184 434 184 418 183 413 c 2
 177 363 l 1
 197 394 244 437 289 437 c 0
EndSplineSet
Validated: 1
Substitution2: "'sinf' Scientific Inferiors lookup 5-1" r.sinf
Substitution2: "'sups' Superscript lookup 6-1" r.ssup
Substitution2: "'smcp' Lowercase to Small Capitals lookup 2-1" r.sc
Substitution2: "'subs' Subscript lookup 1-1" r.subs
Substitution2: "'ordn' Ordinals lookup 0-1" r.ordn
EndChar

StartChar: s
Encoding: 115 115 83
Width: 348
Flags: W
HStem: -11 36<110.44 216.209> 402 35<129.116 228.962>
VStem: 30 28<81.3744 117.998> 35 77<291.803 381.036> 237 81<55.7917 144.678> 266 28<317.037 357.157>
LayerCount: 2
Fore
SplineSet
180 437 m 0xd8
 219 437 238 429 282 424 c 1
 289 393 293 358 294 322 c 0
 294 318 286 317 281 317 c 0
 276 317 267 319 266 324 c 0
 260 358 227 402 184 402 c 0
 136 402 112 379 112 343 c 0xd4
 112 291 156 276 201 249 c 0
 246 222 318 190 318 127 c 0
 318 46 245 -11 164 -11 c 0
 118 -11 91 0 47 8 c 1
 39 29 30 86 30 112 c 1
 34 115 37 118 42 118 c 0
 49 118 57 119 58 112 c 0xe8
 65 76 111 25 164 25 c 0
 205 25 237 47 237 93 c 0
 237 154 171 174 113 208 c 0
 73 231 35 262 35 315 c 0
 35 389 106 437 180 437 c 0xd8
EndSplineSet
Validated: 1
Substitution2: "'sinf' Scientific Inferiors lookup 5-1" s.sinf
Substitution2: "'sups' Superscript lookup 6-1" s.ssup
Substitution2: "'smcp' Lowercase to Small Capitals lookup 2-1" s.sc
Substitution2: "'subs' Subscript lookup 1-1" s.subs
Substitution2: "'ordn' Ordinals lookup 0-1" s.ordn
EndChar

StartChar: t
Encoding: 116 116 84
Width: 327
Flags: W
HStem: -7 48<172.894 266.512> 374 48<150 290.919>
VStem: 73 77<63.875 374>
LayerCount: 2
Fore
SplineSet
73 374 m 1
 15 374 l 2
 12 374 10 387 10 395 c 0
 10 399 10 401 11 402 c 1
 27 409 52 429 74 455 c 0
 98 484 117 522 120 526 c 1
 132 526 150 525 150 521 c 2
 150 422 l 1
 194 422 271 421 285 421 c 0
 290 421 293 418 293 412 c 0
 293 403 290 388 283 374 c 1
 150 374 l 1
 150 129 l 2
 150 76 180 41 224 41 c 0
 248 41 281 57 286 60 c 0
 291 63 301 41 300 40 c 0
 285 24 239 -7 190 -7 c 0
 128 -7 73 34 73 120 c 2
 73 374 l 1
EndSplineSet
Validated: 1
Substitution2: "'sinf' Scientific Inferiors lookup 5-1" t.sinf
Substitution2: "'sups' Superscript lookup 6-1" t.ssup
Substitution2: "'smcp' Lowercase to Small Capitals lookup 2-1" t.sc
Substitution2: "'subs' Subscript lookup 1-1" t.subs
Substitution2: "'ordn' Ordinals lookup 0-1" t.ordn
EndChar

StartChar: u
Encoding: 117 117 85
Width: 512
Flags: W
HStem: -7 61<193.445 277.477> 20 27<426.932 484.58> 414 20G<158.5 162 416.5 420>
VStem: 82 76<93.494 366.601> 340 76<82.3558 366.601>
LayerCount: 2
Fore
SplineSet
416 341 m 2xb8
 416 141 l 2
 416 130 417 93 423 65 c 0
 428 46 479 48 482 47 c 0
 484 46 485 39 485 36 c 0
 485 34 482 20 477 20 c 0x78
 425 17 349 -8 348 -8 c 0
 343 -8 340 1 340 8 c 2
 340 59 l 2
 340 64 338 64 338 64 c 1
 310 34 258 -7 207 -7 c 0
 101 -7 82 109 82 179 c 2
 82 305 l 2
 82 313 81 345 68 359 c 1
 46 386 10 376 10 382 c 0
 10 383 11 406 16 407 c 0
 61 414 117 422 154 433 c 0
 155 433 158 434 159 434 c 0
 165 434 165 418 164 413 c 0
 160 381 158 373 158 339 c 2
 158 204 l 2
 158 103 186 54 256 54 c 0
 300 54 340 98 340 118 c 2
 340 305 l 2
 340 313 339 345 326 359 c 1
 304 386 268 376 268 382 c 0
 268 383 269 406 274 407 c 0
 319 414 375 422 412 433 c 0
 413 433 416 434 417 434 c 0
 423 434 423 418 422 413 c 0
 418 381 416 375 416 341 c 2xb8
EndSplineSet
Validated: 1
Substitution2: "'sinf' Scientific Inferiors lookup 5-1" u.sinf
Substitution2: "'sups' Superscript lookup 6-1" u.ssup
Substitution2: "'smcp' Lowercase to Small Capitals lookup 2-1" u.sc
Substitution2: "'subs' Subscript lookup 1-1" u.subs
Substitution2: "'ordn' Ordinals lookup 0-1" u.ordn
EndChar

StartChar: v
Encoding: 118 118 86
Width: 524
Flags: W
HStem: -11 21G<249 256> 405 29<4.05109 62.8178 159.473 211.887 314.188 382.353 457.218 513.991>
LayerCount: 2
Fore
SplineSet
389 373 m 0
 389 393 373 405 317 405 c 0
 312 405 312 429 317 434 c 1
 358 432 371 429 412 429 c 0
 450 429 472 432 512 434 c 1
 513 431 514 424 514 419 c 0
 514 413 511 405 507 405 c 0
 499 405 451 399 439 371 c 2
 280 12 l 2
 277 4 261 -11 251 -11 c 0
 247 -11 243 -9 242 -7 c 0
 173 146 140 239 67 385 c 0
 57 406 20 405 8 405 c 0
 6 405 4 412 4 418 c 0
 4 424 6 432 8 434 c 1
 49 432 71 429 112 429 c 0
 150 429 172 432 212 434 c 1
 214 428 213 405 208 405 c 0
 201 405 159 403 159 388 c 0
 159 387 159 386 160 384 c 2
 280 113 l 1
 381 343 l 2
 386 355 389 366 389 373 c 0
EndSplineSet
Validated: 33
Substitution2: "'sinf' Scientific Inferiors lookup 5-1" v.sinf
Substitution2: "'sups' Superscript lookup 6-1" v.ssup
Substitution2: "'smcp' Lowercase to Small Capitals lookup 2-1" v.sc
Substitution2: "'subs' Subscript lookup 1-1" v.subs
Substitution2: "'ordn' Ordinals lookup 0-1" v.ordn
EndChar

StartChar: w
Encoding: 119 119 87
Width: 750
Flags: W
HStem: -11 21G<246 257 509 517.5> 405 29<4.05109 55.194 157.786 208.234 277.188 326.766 432.696 476.391 545.188 610.079 690.302 739.994>
VStem: 350 76<304.125 384.977>
LayerCount: 2
Fore
SplineSet
618 370 m 4
 618 404 575 405 552 405 c 6
 548 405 l 6
 543 405 543 429 548 434 c 5
 589 432 608 429 649 429 c 4
 687 429 698 432 738 434 c 5
 739 431 740 424 740 419 c 4
 740 413 738 405 735 405 c 4
 727 405 682 398 671 369 c 6
 540 11 l 6
 535 -3 523 -11 512 -11 c 4
 506 -11 501 -9 500 -7 c 6
 377 287 l 5
 276 11 l 6
 275 8 265 -11 249 -11 c 4
 243 -11 238 -9 237 -7 c 4
 168 146 143 238 62 383 c 4
 50 403 20 405 8 405 c 4
 6 405 4 412 4 418 c 4
 4 424 6 432 8 434 c 5
 49 432 66 429 107 429 c 4
 145 429 167 432 207 434 c 5
 209 428 210 405 205 405 c 4
 197 405 155 403 155 382 c 4
 155 375 199 290 274 120 c 5
 318 248 350 332 350 341 c 4
 350 353 331 385 331 385 c 5
 325 394 321 396 312 400 c 4
 302 405 292 405 280 405 c 4
 275 405 275 429 280 434 c 5
 321 432 336 429 377 429 c 4
 415 429 435 432 475 434 c 5
 477 428 479 405 474 405 c 4
 459 405 426 405 426 366 c 4
 426 349 448 300 536 120 c 5
 578 247 618 346 618 370 c 4
EndSplineSet
Validated: 1
Substitution2: "'sinf' Scientific Inferiors lookup 5-1" w.sinf
Substitution2: "'sups' Superscript lookup 6-1" w.ssup
Substitution2: "'smcp' Lowercase to Small Capitals lookup 2-1" w.sc
Substitution2: "'subs' Subscript lookup 1-1" w.subs
Substitution2: "'ordn' Ordinals lookup 0-1" w.ordn
EndChar

StartChar: x
Encoding: 120 120 88
Width: 528
Flags: W
HStem: -3 29<29.0065 88.6097 176.187 231.994 283.003 327.05 439.271 493.997> 405 29<38.0511 93.6901 205.273 247.953 284.001 340.181 426.233 484.997>
VStem: 228 69<207 247.312>
LayerCount: 2
Fore
SplineSet
38 420 m 1
 38 420 40 430 42 434 c 1
 81 432 103 429 142 429 c 0
 183 429 206 432 247 434 c 5
 248 430 248 427 248 422 c 0
 248 415 247 405 245 405 c 0
 229 405 205 403 205 388 c 0
 205 385 207 381 210 376 c 2
 275 275 l 1
 302 317 341 367 341 387 c 0
 341 407 294 402 287 405 c 0
 284 406 284 414 284 421 c 0
 284 426 284 430 287 434 c 1
 328 432 351 429 392 429 c 0
 428 429 448 432 483 434 c 1
 484 429 485 426 485 420 c 0
 485 414 484 405 482 405 c 0
 448 401 408 387 395 371 c 2
 299 246 l 2
 297 243 297 242 297 239 c 0
 297 235 298 232 300 228 c 2
 407 70 l 2
 430 36 464 28 491 26 c 0
 493 26 494 18 494 12 c 0
 494 6 493 1 490 -3 c 1
 453 -1 433 2 396 2 c 0
 353 2 328 -1 285 -3 c 1
 284 2 283 5 283 10 c 0
 283 16 283 26 286 26 c 0
 300 27 328 32 328 44 c 0
 328 46 327 48 326 50 c 2
 250 170 l 1
 181 67 l 2
 176 59 174 53 174 48 c 0
 174 29 206 28 229 26 c 0
 231 26 232 17 232 11 c 0
 232 5 230 -1 228 -3 c 1
 189 -1 167 2 128 2 c 0
 90 2 69 -1 31 -3 c 1
 30 1 29 5 29 11 c 0
 29 17 31 26 33 26 c 0
 65 31 100 37 123 68 c 2
 227 207 l 1
 227 209 228 211 228 213 c 0
 228 215 227 217 226 219 c 2
 123 370 l 2
 110 389 61 405 41 405 c 0
 39 405 38 420 38 420 c 1
EndSplineSet
Validated: 1
Substitution2: "'sinf' Scientific Inferiors lookup 5-1" x.sinf
Substitution2: "'sups' Superscript lookup 6-1" x.ssup
Substitution2: "'smcp' Lowercase to Small Capitals lookup 2-1" x.sc
Substitution2: "'subs' Subscript lookup 1-1" x.subs
Substitution2: "'ordn' Ordinals lookup 0-1" x.ordn
EndChar

StartChar: y
Encoding: 121 121 89
Width: 505
Flags: W
HStem: -227 71<89.1368 170.472> 405 29<8.05109 59.9407 173.402 218.993 297.051 349.193 430.786 478.993>
LayerCount: 2
Fore
SplineSet
99 -156 m 1
 154 -156 189 -132 209 -75 c 0
 218.533 -47.8312 226 -26 234 0 c 1
 89 350 l 2
 86 357 78 375 69 384 c 0
 56 397 24 405 12 405 c 0
 10 405 8 412 8 418 c 0
 8 424 10 432 12 434 c 1
 53 432 79 429 120 429 c 0
 158 429 177 432 217 434 c 1
 218 431 219 424 219 419 c 0
 219 413 218 405 215 405 c 0
 207 405 171 395 168 384 c 1
 168 382 l 2
 168 368 204 282 275 121 c 1
 351 340 l 2
 355 352 358 364 358 371 c 0
 358 391 336 405 301 405 c 0
 299 405 297 412 297 418 c 0
 297 424 299 432 301 434 c 1
 342 432 349 429 390 429 c 0
 428 429 437 432 477 434 c 1
 478 431 479 424 479 419 c 0
 479 413 478 405 475 405 c 0
 467 405 421 398 410 367 c 2
 231 -116 l 2
 196.144 -210.053 150 -227 126 -227 c 0
 94 -227 85 -201 85 -188 c 0
 85 -173 92 -161 99 -156 c 1
EndSplineSet
Validated: 1
Substitution2: "'sinf' Scientific Inferiors lookup 5-1" y.sinf
Substitution2: "'sups' Superscript lookup 6-1" y.ssup
Substitution2: "'smcp' Lowercase to Small Capitals lookup 2-1" y.sc
Substitution2: "'subs' Subscript lookup 1-1" y.subs
Substitution2: "'ordn' Ordinals lookup 0-1" y.ordn
EndChar

StartChar: z
Encoding: 122 122 90
Width: 433
Flags: W
HStem: 0 40<133.007 336.308> 385 39<93.4097 283.509> 412 20G<370.5 393.5>
VStem: 368 37<78.3813 129.861>
LayerCount: 2
Fore
SplineSet
133 47 m 0xb0
 133 42 143 40 145 40 c 2
 276 40 l 2
 337 40 356 77 368 120 c 0
 369 125 370 131 376 131 c 0
 388 131 400 127 405 119 c 1
 384 0 l 1
 47 0 l 1
 47 0 27 12 27 23 c 0
 27 24 27 26 28 27 c 2
 285 384 l 1
 136 385 l 2
 79 385 79 330 71 312 c 0
 69 308 57 306 47 306 c 0
 41 306 36 307 36 309 c 0
 36 323 49 377 52 430 c 1
 52 430 111 424 147 424 c 2
 269 424 l 2xd0
 323 424 350 427 391 432 c 1
 396 424 394 413 394 408 c 1
 140 61 l 2
 135 54 133 50 133 47 c 0xb0
EndSplineSet
Validated: 1
Substitution2: "'sinf' Scientific Inferiors lookup 5-1" z.sinf
Substitution2: "'sups' Superscript lookup 6-1" z.ssup
Substitution2: "'smcp' Lowercase to Small Capitals lookup 2-1" z.sc
Substitution2: "'subs' Subscript lookup 1-1" z.subs
Substitution2: "'ordn' Ordinals lookup 0-1" z.ordn
EndChar

StartChar: braceleft
Encoding: 123 123 91
Width: 253
Flags: W
HStem: -125 29<183.624 228.873> 721 29<180.243 229.125>
VStem: 69 51<-37.9259 95.9466 530.055 673.266> 117 54<144.28 265.064 357.268 480.046>
LayerCount: 2
Fore
SplineSet
26 292 m 1xd0
 24 296 23 303 23 310 c 0
 23 316 24 324 27 329 c 1
 71 340 117 353 117 406 c 0xd0
 117 458 67 514 67 575 c 0
 67 689 141 750 226 750 c 0
 229 750 230 746 230 742 c 0
 230 734 225 722 219 721 c 0
 188 719 120 678 120 613 c 0xe0
 120 540 170 507 170 423 c 0
 170 358 122 309 86 308 c 1
 122 307 171 262 171 197 c 0xd0
 171 113 120 91 120 18 c 0
 120 -47 188 -94 219 -96 c 0
 225 -97 230 -110 230 -118 c 0
 230 -122 229 -125 226 -125 c 0
 141 -125 69 -49 69 55 c 0xe0
 69 114 117 167 117 219 c 0
 117 272 68 279 26 292 c 1xd0
EndSplineSet
Validated: 1
Substitution2: "'sinf' Scientific Inferiors lookup 5-1" braceleft.sinf
Substitution2: "'sups' Superscript lookup 6-1" braceleft.ssup
Substitution2: "'smcp' Lowercase to Small Capitals lookup 2-1" braceleft.sc
Substitution2: "'subs' Subscript lookup 1-1" braceleft.subs
Substitution2: "'ordn' Ordinals lookup 0-1" braceleft.ordn
EndChar

StartChar: bar
Encoding: 124 124 92
Width: 138
Flags: W
VStem: 37 64<-115.908 764.903>
LayerCount: 2
Fore
SplineSet
101 -106 m 2
 101 -114 44 -123 42 -123 c 0
 35 -123 37 -119 37 -115 c 2
 37 757 l 1
 37 757 36 763 42 765 c 0
 59 770 89 772 92 772 c 0
 101 772 100 766 100 766 c 1
 101 -106 l 2
EndSplineSet
Validated: 1
Substitution2: "'sinf' Scientific Inferiors lookup 5-1" bar.sinf
Substitution2: "'sups' Superscript lookup 6-1" bar.ssup
Substitution2: "'smcp' Lowercase to Small Capitals lookup 2-1" bar.sc
Substitution2: "'subs' Subscript lookup 1-1" bar.subs
Substitution2: "'ordn' Ordinals lookup 0-1" bar.ordn
EndChar

StartChar: braceright
Encoding: 125 125 93
Width: 253
Flags: W
HStem: -125 29<23.1272 68.3765> 721 29<22.875 71.7571>
VStem: 81 54<144.28 265.064 357.268 480.046> 132 51<-37.9259 95.9466 530.055 673.266>
LayerCount: 2
Fore
SplineSet
226 292 m 1xe0
 184 279 135 272 135 219 c 0xe0
 135 167 183 114 183 55 c 0
 183 -49 111 -125 26 -125 c 0
 23 -125 22 -122 22 -118 c 0
 22 -110 27 -97 33 -96 c 0
 64 -94 132 -47 132 18 c 0xd0
 132 91 81 113 81 197 c 0xe0
 81 262 130 307 166 308 c 1
 130 309 82 358 82 423 c 0
 82 507 132 540 132 613 c 0xd0
 132 678 64 719 33 721 c 0
 27 722 22 734 22 742 c 0
 22 746 23 750 26 750 c 0
 111 750 185 689 185 575 c 0
 185 514 135 458 135 406 c 0
 135 353 181 340 225 329 c 1
 228 324 229 316 229 310 c 0
 229 303 228 296 226 292 c 1xe0
EndSplineSet
Validated: 1
Substitution2: "'sinf' Scientific Inferiors lookup 5-1" braceright.sinf
Substitution2: "'sups' Superscript lookup 6-1" braceright.ssup
Substitution2: "'smcp' Lowercase to Small Capitals lookup 2-1" braceright.sc
Substitution2: "'subs' Subscript lookup 1-1" braceright.subs
Substitution2: "'ordn' Ordinals lookup 0-1" braceright.ordn
EndChar

StartChar: asciitilde
Encoding: 126 126 94
Width: 525
Flags: W
HStem: 250 51<290.203 448.147> 303 51<78.2887 236.31>
LayerCount: 2
Fore
SplineSet
39 259 m 1
 33 262 30 268 30 276 c 0
 30 291 42 306 54 315 c 0
 95 346 116 354 160 354 c 0
 254 354 302 301 396 301 c 0
 435 301 457 322 486 345 c 1
 492 342 495 336 495 328 c 0
 495 313 484 298 472 289 c 0
 431 258 411 250 367 250 c 0
 272 250 225 303 130 303 c 0
 91 303 68 282 39 259 c 1
EndSplineSet
Validated: 1
Substitution2: "'sinf' Scientific Inferiors lookup 5-1" asciitilde.sinf
Substitution2: "'sups' Superscript lookup 6-1" asciitilde.ssup
Substitution2: "'smcp' Lowercase to Small Capitals lookup 2-1" asciitilde.sc
Substitution2: "'subs' Subscript lookup 1-1" asciitilde.subs
Substitution2: "'ordn' Ordinals lookup 0-1" asciitilde.ordn
EndChar

StartChar: exclamdown
Encoding: 161 161 96
Width: 166
Flags: W
HStem: 316 116<37.8481 126.745>
VStem: 25 115<327.997 419.236> 35 97<-213.133 96.5595>
LayerCount: 2
Fore
SplineSet
80 -224 m 0xa0
 49 -224 35 -192 35 -161 c 0
 35 -133 51 -23 66 237 c 0
 67 257 70 261 90 270 c 0
 97 273 102 260 103 248 c 0
 122 -59 132 -110 132 -161 c 0
 132 -193 112 -224 80 -224 c 0xa0
25 373 m 0xc0
 25 405 50 432 82 432 c 0
 114 432 140 405 140 373 c 0
 140 341 114 316 82 316 c 0
 50 316 25 341 25 373 c 0xc0
EndSplineSet
Validated: 1
Substitution2: "'smcp' Lowercase to Small Capitals lookup 2-1" exclamdown.sc
EndChar

StartChar: cent
Encoding: 162 162 97
Width: 464
Flags: W
HStem: -45 37<199.252 231> -8 60<245.882 338.1> 400 35<192.053 268.386>
VStem: 60 76<136.295 311.705> 196 35<-41.3816 -0.869301> 279 35<429.956 471.129>
LayerCount: 2
Fore
SplineSet
279 474 m 17xbc
 287 474 314 473 314 466 c 9
 231 -45 l 17
 222 -45 196 -43 196 -36 c 9
 279 474 l 17xbc
254 435 m 0
 136 435 60 322 60 211 c 0
 60 67 149 -8 258 -8 c 0
 326 -8 382 41 406 67 c 0
 410 71 412 80 412 85 c 0
 412 92 407 99 406 99 c 0
 402 99 362 52 289 52 c 0x7c
 184 52 136 143 136 245 c 0
 136 363 198 400 244 400 c 0
 289 400 309 376 331 350 c 0
 347 331 356 318 370 318 c 0
 395 318 406 345 406 381 c 1
 384 419 314 435 254 435 c 0
EndSplineSet
Validated: 5
Substitution2: "'smcp' Lowercase to Small Capitals lookup 2-1" cent.sc
EndChar

StartChar: sterling
Encoding: 163 163 98
Width: 473
Flags: W
HStem: -8 69<268.046 389.125> 29 64<109.835 243.318> 279 40<45.1905 321.143> 593 42<198.705 301>
VStem: 100 70<321.365 531.216> 109 69<130.959 431.883>
LayerCount: 2
Fore
SplineSet
51 319 m 5x30
 80 319 304 319 318 319 c 4
 322 319 323 314 323 309 c 7
 323 303 319 286 308 279 c 5
 279 279 64 279 50 279 c 4
 46 279 45 287 45 292 c 7
 45 298 45 310 51 319 c 5x30
178 258 m 0x74
 178 183 159 128 133 84 c 1
 151 91 161 93 205 93 c 0x74
 259 93 323 61 362 61 c 0
 406 61 426 117 440 140 c 1
 443 140 449 127 449 117 c 0
 449 113 449 110 448 108 c 0
 434 71 402 -8 331 -8 c 0xb4
 266 -8 190 29 140 29 c 0
 109 29 82 7 65 -9 c 1
 52 -9 46 4 46 10 c 1
 62 40 77 56 93 82 c 1
 111.746 120.596 109 200.348 109 249 c 0x74
 109 270 100 391 100 423 c 0
 100 549 174 635 282 635 c 0
 320 635 343 622 359 598 c 1
 359 580 355 539 329 539 c 0
 288 539 284 593 243 593 c 0
 175 593 170 512 170 444 c 0x78
 170 410 178 272 178 258 c 0x74
EndSplineSet
Validated: 37
Substitution2: "'smcp' Lowercase to Small Capitals lookup 2-1" sterling.sc
EndChar

StartChar: currency
Encoding: 164 164 99
Width: 468
Flags: W
HStem: 120 32<191.525 286.572> 463 33<176.384 271.636>
VStem: 48 73<224.803 397.542> 341 72<218.015 391.134>
LayerCount: 2
Fore
SplineSet
240 152 m 0
 301 152 341 219 341 294 c 0
 341 386 286 463 223 463 c 0
 162 463 121 394 121 319 c 0
 121 227 177 152 240 152 c 0
344 455 m 1
 403 510 l 2
 411 518 437 490 444 466 c 1
 384 410 l 1
 402 380 413 344 413 307 c 0
 413 267 401 230 380 199 c 1
 434 141 l 2
 442 133 414 107 390 100 c 1
 338 155 l 1
 308 133 272 120 232 120 c 0
 189 120 149 135 118 160 c 1
 65 110 l 2
 57 102 31 130 24 154 c 1
 78 205 l 1
 59 235 48 270 48 307 c 0
 48 351 62 391 86 423 c 1
 34 479 l 2
 26 487 54 513 78 520 c 1
 130 465 l 1
 159 485 194 496 232 496 c 0
 275 496 313 481 344 455 c 1
EndSplineSet
Validated: 33
EndChar

StartChar: yen
Encoding: 165 165 100
Width: 658
Flags: W
HStem: -3 27<202.006 257.891 377.323 429.973> 138 38<179.157 276 360 456.843> 216 38<179.157 276 360 456.843> 615 27<23.1131 80.304 219.598 269.234 399.074 454.991 565.397 633.965>
VStem: 276 84<35.5801 138 176 216 254 313.472> 469 165<569 629.5>
LayerCount: 2
Fore
SplineSet
360 254 m 1
 360 254 438 254 452 254 c 0
 456 254 457 246 457 241 c 3
 457 235 457 225 451 216 c 1
 422 216 360 216 360 216 c 1
 360 176 l 1
 360 176 438 176 452 176 c 4
 456 176 457 168 457 163 c 7
 457 157 457 147 451 138 c 5
 422 138 360 138 360 138 c 1
 360 112 360 73 367 46 c 0
 370 35 418 24 426 24 c 0
 429 24 430 18 430 12 c 0
 430 6 429 0 428 -3 c 1
 389 -1 362 2 320 2 c 0
 276 2 250 -1 206 -3 c 1
 204 -1 202 5 202 10 c 0
 202 17 203 24 206 24 c 0
 218 24 263 34 268 46 c 1
 274 69 276 107 276 138 c 1
 276 138 198 138 184 138 c 4
 180 138 179 146 179 151 c 7
 179 157 179 167 185 176 c 5
 214 176 276 176 276 176 c 1
 276 216 l 1
 276 216 198 216 184 216 c 0
 180 216 179 224 179 229 c 3
 179 235 179 245 185 254 c 1
 214 254 276 254 276 254 c 1
 276 257 276 268 275 270 c 0
 272 283 258 311 134 532 c 1
 115 568 111 572 91 594 c 0
 78 608 39 615 27 615 c 0
 25 615 23 620 23 626 c 0
 23 632 25 640 27 642 c 1
 75 640 95 636 143 636 c 0
 191 636 229 640 268 642 c 1
 270 636 271 615 266 615 c 0
 252 615 208 608 208 583 c 0
 208 575 212 565 218 554 c 2
 327 348 l 1
 332 343 335 347 337 350 c 0
 393 435 469 554 469 584 c 0
 469 597 443 615 402 615 c 0
 397 615 397 637 402 642 c 1
 438 640 458 636 494 636 c 0
 544 636 593 640 632 642 c 1
 633 639 634 632 634 627 c 0
 634 621 633 615 630 615 c 0
 622 615 552 605 537 586 c 1
 516 553 360 303 360 282 c 2
 360 254 l 1
EndSplineSet
Validated: 1
Substitution2: "'smcp' Lowercase to Small Capitals lookup 2-1" yen.sc
EndChar

StartChar: brokenbar
Encoding: 166 166 101
Width: 137
Flags: W
VStem: 37 63<-116.969 256.903 386.964 760.903>
LayerCount: 2
Fore
SplineSet
37 389 m 2
 37 753 l 1
 37 753 36 759 42 761 c 0
 59 766 88 768 91 768 c 0
 100 768 99 762 99 762 c 1
 100 397 l 1
 96 394 101 389 48 382 c 0
 34 380 37 384 37 389 c 2
37 -115 m 2
 37 249 l 1
 37 249 36 255 42 257 c 0
 59 262 88 264 91 264 c 0
 100 264 99 258 99 258 c 1
 100 -106 l 1
 96 -109 101 -115 48 -122 c 0
 45 -122 44 -123 42 -123 c 0
 35 -123 37 -119 37 -115 c 2
EndSplineSet
Validated: 1
Substitution2: "'sinf' Scientific Inferiors lookup 5-1" brokenbar.sinf
Substitution2: "'sups' Superscript lookup 6-1" brokenbar.ssup
Substitution2: "'smcp' Lowercase to Small Capitals lookup 2-1" brokenbar.sc
Substitution2: "'subs' Subscript lookup 1-1" brokenbar.subs
Substitution2: "'ordn' Ordinals lookup 0-1" brokenbar.ordn
EndChar

StartChar: section
Encoding: 167 167 102
Width: 382
Flags: W
HStem: -41 40<153.251 243.022> 611 40<138.62 226.743>
VStem: 26 46<323.132 431.384> 71 52<489.168 594.793> 257 52<12.6278 121.408> 308 46<179.945 285.001>
LayerCount: 2
Fore
SplineSet
354 263 m 0xd4
 354 195 318 156 295 140 c 1
 300 129 309 111 309 90 c 0
 309 -16 220 -41 163 -41 c 0
 113 -41 84 -22 74 -7 c 1
 74 -3 73 3 73 7 c 0
 73 46 92 52 105 52 c 0
 135 52 151 -1 196 -1 c 0
 232 -1 257 22 257 62 c 0
 257 197 26 143 26 345 c 0xe8
 26 414 53 446 85 469 c 1
 78 481 71 500 71 518 c 0
 71 608 139 651 217 651 c 0
 267 651 295 630 305 615 c 1
 305 611 306 606 306 602 c 0
 306 563 288 557 275 557 c 0
 245 557 229 611 184 611 c 0
 156 611 123 593 123 547 c 0
 123 416 354 465 354 263 c 0xd4
282 173 m 1
 294 185 308 196 308 225 c 0xe4
 308 338 153 340 98 435 c 1
 83 423 72 405 72 383 c 0
 72 270 225 270 282 173 c 1
EndSplineSet
Validated: 1
Substitution2: "'sinf' Scientific Inferiors lookup 5-1" section.sinf
Substitution2: "'sups' Superscript lookup 6-1" section.ssup
Substitution2: "'smcp' Lowercase to Small Capitals lookup 2-1" section.sc
Substitution2: "'subs' Subscript lookup 1-1" section.subs
Substitution2: "'ordn' Ordinals lookup 0-1" section.ordn
EndChar

StartChar: dieresis
Encoding: 168 168 103
Width: 333
Flags: W
HStem: 468 98<36.0176 118.299 219.018 301.299>
VStem: 27 100<476.719 556.943> 210 100<476.719 556.943>
LayerCount: 2
Fore
SplineSet
261 566 m 27
 288 566 310 543 310 516 c 27
 310 489 287 468 260 468 c 27
 233 468 210 490 210 517 c 27
 210 544 234 566 261 566 c 27
78 566 m 27
 105 566 127 543 127 516 c 27
 127 489 104 468 77 468 c 27
 50 468 27 490 27 517 c 27
 27 544 51 566 78 566 c 27
EndSplineSet
Validated: 1
EndChar

StartChar: copyright
Encoding: 169 169 104
Width: 603
Flags: W
HStem: 69 31<219.455 383.652> 195 32<268.319 388.675> 449 34<261.437 376.899> 584 31<219.455 383.652>
VStem: 28 33<256.704 427.296> 159 57<271.691 409.392> 544 31<259.894 424.106>
LayerCount: 2
Fore
SplineSet
428 276 m 1
 428 273 415 217 408 214 c 0
 376 201 344 195 302 195 c 0
 221 195 159 257 159 336 c 0
 159 416 217 483 300 483 c 0
 330 483 378 477 412 464 c 1
 412 464 428 407 428 403 c 0
 428 398 419 394 412 394 c 0
 409 394 407 395 405 396 c 1
 402 409 383 449 312 449 c 0
 258 449 216 400 216 345 c 0
 216 264 275 227 321 227 c 0
 351 227 380 234 393 246 c 0
 405 257 406 279 408 279 c 0
 411 279 427 278 428 276 c 1
28 342 m 0
 28 493 150 615 301 615 c 0
 452 615 575 493 575 342 c 0
 575 191 452 69 301 69 c 0
 150 69 28 191 28 342 c 0
61 342 m 0
 61 209 169 100 302 100 c 0
 435 100 544 209 544 342 c 0
 544 475 435 584 302 584 c 0
 169 584 61 475 61 342 c 0
EndSplineSet
Validated: 1
Substitution2: "'smcp' Lowercase to Small Capitals lookup 2-1" copyright.sc
EndChar

StartChar: ordfeminine
Encoding: 170 170 105
Width: 316
Flags: W
HStem: 249 40<92.6702 159.815 236.858 280.203> 529 27<102.959 168.863>
VStem: 28 60<292.669 364.371 457.505 505.367> 181 55<297.802 392 415.594 523.42>
LayerCount: 2
Fore
SplineSet
181 324 m 2
 181 392 l 1
 150 379 88 373 88 328 c 0
 88 302 106 289 128 289 c 0
 153 289 181 309 181 324 c 2
236 318 m 2
 236 300 245 283 262 283 c 0
 276 283 286 294 287 293 c 0
 289 292 290 291 290 290 c 0
 289 287 287 279 286 273 c 1
 275 265 255 250 238 250 c 0
 215 250 194 275 188 291 c 1
 184 289 149 249 102 249 c 0
 63 249 28 269 28 317 c 0
 28 382 122 402 175 421 c 0
 179 422 181 426 181 431 c 2
 181 489 l 2
 181 514 159 529 134 529 c 0
 106 529 86 509 86 478 c 0
 86 461 67 456 52 456 c 0
 43 456 31 457 31 467 c 0
 31 507 101 556 160 556 c 0
 217 556 236 532 236 484 c 2
 236 318 l 2
EndSplineSet
Validated: 1
Substitution2: "'smcp' Lowercase to Small Capitals lookup 2-1" ordfeminine.sc
EndChar

StartChar: guillemotleft
Encoding: 171 171 106
Width: 469
Flags: W
LayerCount: 2
Fore
SplineSet
294 247 m 1
 381 157 l 1
 434 104 442 102 442 91 c 0
 442 79 425 76 419 73 c 1
 418 75 360 132 213 227 c 1
 208 229 206 235 206 241 c 0
 206 251 207 260 214 268 c 1
 345 347 419 422 420 423 c 1
 443 417 443 408 443 404 c 0
 443 396 439 392 382 338 c 0
 359 316 313 266 294 247 c 1
115 247 m 1
 202 157 l 1
 255 104 263 102 263 91 c 0
 263 79 246 76 240 73 c 1
 239 75 181 132 34 227 c 1
 29 229 27 235 27 241 c 0
 27 251 28 260 35 268 c 1
 166 347 240 422 241 423 c 1
 264 417 264 408 264 404 c 0
 264 396 260 392 203 338 c 0
 180 316 134 266 115 247 c 1
EndSplineSet
Validated: 1
Substitution2: "'smcp' Lowercase to Small Capitals lookup 2-1" guillemotleft.sc
EndChar

StartChar: logicalnot
Encoding: 172 172 107
Width: 538
Flags: W
HStem: 364 56<32.988 440>
VStem: 440 60<158.845 363.996>
LayerCount: 2
Fore
SplineSet
29 374 m 1
 29 374 34 420 44 420 c 2
 488 420 l 2
 494 420 500 419 500 409 c 2
 500 169 l 1
 499 168 502 161 451 154 c 1
 447 154 l 2
 437 154 440 161 440 161 c 1
 440 354 l 2
 440 358 436 364 429 364 c 2
 35 364 l 1
 35 364 29 364 29 374 c 1
EndSplineSet
Validated: 1
EndChar

StartChar: registered
Encoding: 174 174 108
Width: 604
Flags: W
HStem: 133 32<220.455 384.652> 273 12<175.069 201.326 266.922 290.655 435.311 455.963> 406 22<259.308 292.999> 529 25<260.001 329.317> 541 12<177.002 199.775> 648 32<220.455 384.652>
VStem: 29 33<321.65 492.235> 208 51<294.529 405.692 428.775 528.531> 344 50<432.984 522.352> 545 31<324.848 489.045>
LayerCount: 2
Fore
SplineSet
29 407 m 0xe7c0
 29 558 151 680 302 680 c 0
 453 680 576 558 576 407 c 0
 576 256 453 133 302 133 c 0
 151 133 29 256 29 407 c 0xe7c0
62 407 m 0
 62 274 170 165 303 165 c 0
 436 165 545 274 545 407 c 0
 545 540 436 648 303 648 c 0
 170 648 62 540 62 407 c 0
456 280 m 0
 456 273 453 272 441 272 c 0
 379 272 360 286 293 398 c 0
 289 404 282 406 279 406 c 0
 264 408 272 407 261 406 c 0
 260 406 259 403 259 399 c 2
 259 335 l 1
 259 335 260 305 263 294 c 0
 264 290 285 285 289 285 c 0
 291 285 291 276 290 273 c 1
 273 274 246 274 227 274 c 0
 207 274 197 274 177 273 c 1
 176 274 175 278 175 280 c 0
 175 282 176 285 177 285 c 0
 182 285 203 289 205 294 c 0
 207 300 208 311 208 319 c 0
 208 327 207 335 207 335 c 1
 207 490 l 1
 207 490 208 498 208 506 c 0
 208 514 207 525 205 531 c 0
 203 536 183 541 178 541 c 0
 177 541 177 543 177 546 c 0
 177 549 177 552 178 553 c 1xefc0
 178 553 197 550 226 550 c 0
 252 550 274 554 300 554 c 0xf7c0
 335 554 394 535 394 477 c 0
 394 454 378 428 346 414 c 0
 345 414 345 413 345 412 c 0
 345 398 397 331 415 307 c 0
 428 290 442 286 455 286 c 1
 456 284 456 282 456 280 c 0
306 428 m 0
 323 428 344 448 344 474 c 0
 344 508 328 529 294 529 c 0xf7c0
 284 529 269 528 263 526 c 0
 261 526 260 525 260 523 c 0
 259 512 259 486 259 486 c 1
 259 441 l 2
 259 428 286 428 306 428 c 0
EndSplineSet
Validated: 1
Substitution2: "'smcp' Lowercase to Small Capitals lookup 2-1" registered.sc
EndChar

StartChar: macron
Encoding: 175 175 109
Width: 460
Flags: W
HStem: 550 46<541.21 758.904>
VStem: 540 225<550.013 596>
LayerCount: 2
Fore
SplineSet
540 559 m 0
 540 561 541 596 552 596 c 2
 760 596 l 2
 762 596 765 595 765 589 c 0
 765 584 764 575 759 557 c 0
 757 551 752 550 752 550 c 1
 546 550 l 1
 546 550 540 549 540 559 c 0
EndSplineSet
Validated: 1
EndChar

StartChar: degree
Encoding: 176 176 110
Width: 233
Flags: W
HStem: 437 37<73.8121 159.842> 597 37<73.8121 159.842>
VStem: 18 37<492.812 578.842> 178 37<492.812 578.842>
LayerCount: 2
Fore
SplineSet
18 536 m 0
 18 590 63 634 117 634 c 0
 171 634 215 590 215 536 c 0
 215 482 171 437 117 437 c 0
 63 437 18 482 18 536 c 0
55 536 m 0
 55 502 83 474 117 474 c 0
 151 474 178 502 178 536 c 0
 178 570 151 597 117 597 c 0
 83 597 55 570 55 536 c 0
EndSplineSet
Validated: 1
Substitution2: "'smcp' Lowercase to Small Capitals lookup 2-1" degree.sc
EndChar

StartChar: plusminus
Encoding: 177 177 111
Width: 533
Flags: W
HStem: 6 56<37.0959 494.875> 304 56<36.0959 239 295.001 496.904>
VStem: 239 56<97.3652 303.998 360 562.904>
LayerCount: 2
Fore
SplineSet
491 62 m 1
 491 62 501 63 499 51 c 0
 492 3 486 9 483 6 c 1
 35 6 l 1
 35 6 27 5 29 19 c 0
 31 33 31 37 37 57 c 0
 39 63 44 62 44 62 c 1
 491 62 l 1
295 301 m 2
 295 109 l 1
 295 109 295 99 250 93 c 0
 247 93 246 92 244 92 c 0
 237 92 239 96 239 100 c 2
 239 299 l 2
 239 301 238 304 233 304 c 2
 34 304 l 1
 34 304 28 304 28 314 c 0
 28 318 29 331 36 355 c 0
 38 361 43 360 43 360 c 1
 234 360 l 2
 237 360 239 364 239 366 c 2
 239 556 l 1
 239 556 238 561 244 563 c 0
 268 570 281 571 285 571 c 0
 295 571 295 565 295 565 c 1
 295 365 l 2
 295 362 296 360 299 360 c 2
 499 360 l 2
 503 360 507 362 507 355 c 0
 507 346 503 332 497 310 c 0
 495 304 490 304 490 304 c 1
 299 304 l 2
 296 304 295 303 295 301 c 2
EndSplineSet
Validated: 1
EndChar

StartChar: uni00B2
Encoding: 178 178 112
Width: 338
Flags: W
HStem: 254 56<111.953 288.381> 594 53<104.388 195.868>
VStem: 211 77<474.226 579.823> 293 19<322.813 348.225>
LayerCount: 2
Fore
SplineSet
149 594 m 0
 125 594 94 575 76 553 c 0
 72 549 54 570 54 578 c 0
 54 579 53 581 55 583 c 0
 80 616 132 647 178 647 c 0
 240 647 288 599 288 542 c 0
 288 449 188 385 112 317 c 0
 111 316 110 310 113 310 c 2
 250 310 l 2
 291 310 287 336 293 346 c 0
 294 348 295 348 298 349 c 0
 301 349 309 347 312 343 c 1
 301 314 298 286 291 254 c 1
 166 255 l 1
 39 254 l 1
 33 257 27 266 27 275 c 0
 27 279 29 283 31 287 c 1
 99 361 211 472 211 532 c 0
 211 559 191 594 149 594 c 0
EndSplineSet
Validated: 33
EndChar

StartChar: uni00B3
Encoding: 179 179 113
Width: 316
Flags: W
HStem: 247 36<90.2439 183.074> 438 30<91.5625 143.051> 596 51<90.2467 185.335>
VStem: 192 66<515.945 587.737> 217 71<316.668 428.718>
LayerCount: 2
Fore
SplineSet
174 647 m 0xf0
 205 647 258 620 258 569 c 0
 258 525 227 506 192 484 c 1xf0
 219 484 288 451 288 385 c 0
 288 297 197 247 110 247 c 0
 68 247 34 262 27 273 c 1
 27 280 l 2
 27 300 39 317 55 317 c 0
 85 317 95 283 129 283 c 0
 171 283 217 310 217 371 c 0xe8
 217 420 189 444 152 444 c 0
 124 444 131 442 100 438 c 1
 94 444 91 452 91 457 c 0
 91 462 94 466 100 468 c 0
 149 478 192 505 192 554 c 0
 192 580 166 596 140 596 c 0
 97 596 78 558 67 558 c 0
 59 558 52 592 53 593 c 0
 78 624 121 647 174 647 c 0xf0
EndSplineSet
Validated: 33
EndChar

StartChar: acute
Encoding: 180 180 114
Width: 460
Flags: W
HStem: 527 160
VStem: 506 168
LayerCount: 2
Fore
SplineSet
633 687 m 0
 668 687 674 668 674 663 c 0
 674 624 528 527 518 527 c 0
 511 527 506 534 506 540 c 0
 506 546 563 637 599 678 c 0
 604 683 619 687 633 687 c 0
EndSplineSet
Validated: 1
EndChar

StartChar: paragraph
Encoding: 182 182 116
Width: 496
Flags: W
HStem: -4 27<168.766 222.329 396.422 453.949> 2 34<285.969 330.139> 291 361<138.617 238> 299 33<284.062 333.998> 316 38<387.472 428.558> 611 37<285.933 331.991> 624 29<385.674 443.812>
VStem: 46 238<385.584 555.804> 238 48<36.4405 290.905> 334 43<92.3594 298.999 349 603.643>
LayerCount: 2
Fore
SplineSet
284 286 m 2x5140
 286 49 l 2x50c0
 286 40 300 36 310 36 c 0
 320 36 330 44 330 50 c 0
 333 84 334 189 334 295 c 0
 334 298 332 299 330 299 c 0
 326 299 317 296 291 293 c 0
 285 292 284 291 284 286 c 2x5140
217 652 m 0xa140
 276 652 269 648 328 648 c 0x0540
 395 648 441 653 441 653 c 1
 446 648 446 624 441 624 c 0
 429 624 385 616 380 604 c 0
 378 597 377 551 377 500 c 0
 377 439 378 369 378 350 c 0
 378 346 381 345 383 346 c 2
 426 354 l 1
 428 350 430 345 430 341 c 0
 429 331 421 319 410 316 c 2
 384 309 l 2
 382 308 379 306 379 304 c 0
 379 275 379 71 386 45 c 1
 391 33 438 23 450 23 c 0
 452 23 454 17 454 11 c 0
 454 5 452 -2 450 -4 c 1x8b40
 387 -2 352 2 289 2 c 0x4140
 243 2 210 -2 170 -4 c 1
 168 2 167 23 172 23 c 0
 180 23 230 34 233 45 c 0
 237 62 238 122 238 183 c 2
 238 284 l 2x80c0
 238 291 234 291 218 291 c 0
 103 291 46 399 46 469 c 0
 46 578 135 652 217 652 c 0xa140
286 599 m 2x14c0
 286 599 284 440 284 338 c 0x1540
 284 335 287 332 292 332 c 0
 307 333 329 338 329 338 c 2
 331 338 334 340 334 344 c 0
 334 470 333 587 332 600 c 0
 332 604 319 611 309 611 c 0
 299 611 286 610 286 599 c 2x14c0
EndSplineSet
Validated: 1
Substitution2: "'sinf' Scientific Inferiors lookup 5-1" paragraph.sinf
Substitution2: "'sups' Superscript lookup 6-1" paragraph.ssup
Substitution2: "'smcp' Lowercase to Small Capitals lookup 2-1" paragraph.sc
Substitution2: "'subs' Subscript lookup 1-1" paragraph.subs
Substitution2: "'ordn' Ordinals lookup 0-1" paragraph.ordn
EndChar

StartChar: periodcentered
Encoding: 183 183 117
Width: 203
Flags: W
HStem: 205 117<60.2549 149.745>
VStem: 47 116<217.764 309.619>
LayerCount: 2
Fore
SplineSet
47 264 m 0
 47 296 73 322 105 322 c 0
 137 322 163 296 163 264 c 0
 163 232 137 205 105 205 c 0
 73 205 47 232 47 264 c 0
EndSplineSet
Validated: 1
EndChar

StartChar: cedilla
Encoding: 184 184 118
Width: 460
Flags: W
HStem: -152 24<638.049 702.387> -61 34<680 707.414>
VStem: 712 37<-122.34 -64.0801>
LayerCount: 2
Fore
SplineSet
680 -27 m 1
 705 -27 l 2
 731 -27 749 -50 749 -76 c 0
 749 -123 707 -152 655 -152 c 0
 643 -152 627 -147 621 -143 c 1
 620 -138 618 -135 618 -129 c 0
 618 -122 626 -115 632 -115 c 0
 644 -115 653 -128 669 -128 c 0
 697 -128 712 -112 712 -95 c 0
 712 -71 694 -61 681 -61 c 0
 670 -61 665 -64 655 -68 c 0
 653 -68 643 -59 645 -55 c 0
 654 -40 669 -18 677 -4 c 1
 698 -4 l 1
 680 -27 l 1
EndSplineSet
Validated: 1
EndChar

StartChar: uni00B9
Encoding: 185 185 119
Width: 272
Flags: W
HStem: 253 25<42.7773 100.633 192.725 244.951>
VStem: 108 74<293.746 568.147>
LayerCount: 2
Fore
SplineSet
38 554 m 1
 32 557 24 558 24 570 c 0
 24 573 25 577 27 578 c 0
 133 622 174 652 177 652 c 2
 179 652 l 2
 185 652 190 632 191 629 c 1
 191 629 182 587 182 548 c 2
 182 340 l 2
 182 320 183 309 190 293 c 0
 193 286 233 279 241 279 c 0
 244 279 245 270 245 263 c 0
 245 259 245 255 244 253 c 1
 205 254 185 256 146 256 c 0
 107 256 85 254 46 253 c 1
 41 256 41 278 46 278 c 0
 58 278 99 285 102 292 c 0
 107 305 108 313 108 323 c 2
 108 518 l 2
 108 564 100 569 89 569 c 0
 77 569 58 561 38 554 c 1
EndSplineSet
Validated: 1
EndChar

StartChar: ordmasculine
Encoding: 186 186 120
Width: 370
Flags: W
HStem: 247 24<154.771 230.041> 529 25<142.39 220.196>
VStem: 29 69<322.561 478.383> 272 69<321.143 478.777>
LayerCount: 2
Fore
SplineSet
180 529 m 0
 124 529 98 467 98 411 c 0
 98 345 129 271 195 271 c 0
 250 271 272 336 272 391 c 0
 272 456 245 529 180 529 c 0
187 554 m 0
 274 554 341 482 341 399 c 0
 341 316 274 247 187 247 c 0
 100 247 29 316 29 399 c 0
 29 484 98 554 187 554 c 0
EndSplineSet
Validated: 1
Substitution2: "'smcp' Lowercase to Small Capitals lookup 2-1" ordmasculine.sc
EndChar

StartChar: guillemotright
Encoding: 187 187 121
Width: 471
Flags: W
LayerCount: 2
Fore
SplineSet
51 73 m 1
 28 79 28 87 28 91 c 0
 28 102 38 107 88 157 c 1
 175 247 l 1
 156 266 110 316 87 338 c 0
 28 395 27 396 27 404 c 0
 27 416 44 420 50 423 c 1
 52 421 125 347 255 268 c 1
 262 260 264 251 264 241 c 0
 264 235 261 229 256 227 c 1
 129 145 63 86 51 73 c 1
230 73 m 1
 207 79 207 87 207 91 c 0
 207 102 218 107 268 157 c 1
 355 247 l 1
 336 266 290 316 267 338 c 0
 208 395 206 396 206 404 c 0
 206 416 223 420 229 423 c 1
 231 421 305 347 435 268 c 1
 442 260 443 251 443 241 c 0
 443 235 441 229 436 227 c 1
 309 145 242 86 230 73 c 1
EndSplineSet
Validated: 1
Substitution2: "'smcp' Lowercase to Small Capitals lookup 2-1" guillemotright.sc
EndChar

StartChar: onequarter
Encoding: 188 188 122
Width: 670
Flags: W
HStem: -5 21G<554.5 587.5> 115 43<424.91 532.952 602.001 645.677> 251 24<40.7773 92.3286 185.83 235.93> 625 20G<521 526>
VStem: 102 70<291.746 554.996> 533 69<-4.7273 114.547 159 296.089>
LayerCount: 2
Fore
SplineSet
573 -5 m 0
 536 -5 533 -3 533 4 c 2
 533 112 l 1
 532 115 530 115 528 115 c 2
 379 115 l 1
 375 120 367 130 366 141 c 1
 562 390 l 2
 566 395 577 398 585 398 c 0
 594 398 602 395 602 390 c 2
 602 163 l 2
 602 160 604 159 607 159 c 2
 634 159 l 2
 644 159 646 151 646 121 c 0
 646 117 640 115 640 115 c 1
 605 114 l 2
 603 114 602 112 602 109 c 2
 602 0 l 1
 599 -3 602 -5 573 -5 c 0
533 163 m 2
 533 292 l 2
 533 294 529 298 528 296 c 0
 483 243 471 223 425 166 c 0
 423 164 426 158 429 158 c 2
 527 158 l 2
 529 158 533 159 533 163 c 2
556 617 m 1
 208 -14 l 1
 208 -14 208 -16 204 -16 c 0
 201 -16 183 -13 170 3 c 0
 166 7 169 10 169 10 c 1
 517 642 l 1
 517 642 519 645 523 645 c 0
 529 645 541 641 553 628 c 0
 558 623 556 617 556 617 c 1
37 540 m 1
 31 543 23 544 23 556 c 0
 23 570 51 563 167 638 c 1
 170 638 l 2
 176 638 180 617 181 614 c 1
 181 614 172 573 172 534 c 2
 172 338 l 2
 172 318 173 307 180 291 c 0
 183 284 223 276 231 276 c 0
 234 276 236 268 236 261 c 0
 236 257 236 253 235 251 c 1
 196 252 179 254 140 254 c 0
 101 254 83 252 44 251 c 1
 39 254 39 275 44 275 c 0
 56 275 93 283 96 290 c 0
 101 303 102 311 102 321 c 2
 102 504 l 2
 102 550 95 555 85 555 c 0
 74 555 57 547 37 540 c 1
EndSplineSet
Validated: 1
EndChar

StartChar: onehalf
Encoding: 189 189 123
Width: 721
Flags: W
HStem: 0 56<497.953 667.187> 251 24<40.7773 92.3286 185.83 235.93> 340 53<489.95 582.484> 625 20G<520 523.5>
VStem: 102 70<291.746 554.996> 596 77<220.639 326.486>
LayerCount: 2
Fore
SplineSet
630 56 m 2
 670 56 672 98 677 98 c 0
 680 98 694 94 697 90 c 1
 690 62 684 32 677 0 c 1
 425 0 l 1
 419 3 414 13 414 22 c 0
 414 26 415 29 417 33 c 1
 485 107 596 219 596 279 c 0
 596 306 577 340 535 340 c 0
 511 340 479 323 462 300 c 0
 459 296 448 300 447 304 c 0
 446 307 440 328 441 329 c 0
 466 362 517 393 563 393 c 0
 625 393 673 345 673 288 c 0
 673 195 574 131 498 63 c 0
 497 62 496 56 499 56 c 2
 630 56 l 2
556 618 m 2
 208 -14 l 1
 208 -14 208 -16 204 -16 c 0
 201 -16 183 -13 170 3 c 0
 166 7 169 11 169 11 c 1
 517 643 l 1
 517 643 518 645 522 645 c 0
 525 645 557 631 557 622 c 0
 557 619 556 619 556 618 c 2
167 638 m 1
 170 638 l 2
 176 638 180 617 181 614 c 1
 181 614 172 573 172 534 c 2
 172 338 l 2
 172 318 173 307 180 291 c 0
 183 284 223 276 231 276 c 0
 234 276 236 268 236 261 c 0
 236 257 236 253 235 251 c 1
 196 252 179 254 140 254 c 0
 101 254 83 252 44 251 c 1
 39 254 39 275 44 275 c 0
 56 275 93 283 96 290 c 0
 101 303 102 311 102 321 c 2
 102 504 l 2
 102 550 95 555 85 555 c 0
 74 555 57 547 37 540 c 1
 31 543 23 544 23 556 c 0
 23 570 51 563 167 638 c 1
EndSplineSet
Validated: 1
EndChar

StartChar: threequarters
Encoding: 190 190 124
Width: 694
Flags: W
HStem: -5 21G<578.5 611.5> 115 43<448.91 556.952 626.001 669.677> 247 36<88.5056 181.289> 438 30<90.5625 141.819> 444 40<190 197.975> 596 51<88.9849 183.941> 625 20G<544 549>
VStem: 190 67<517.402 589.058> 216 70<316.668 428.195> 557 69<-4.7273 114.547 159 296.089>
LayerCount: 2
Fore
SplineSet
173 647 m 0xf540
 204 647 257 620 257 569 c 0
 257 525 225 506 190 484 c 1xed40
 217 484 286 451 286 385 c 0
 286 297 195 247 108 247 c 0
 66 247 32 262 25 273 c 1
 25 280 l 2
 25 300 38 317 54 317 c 0
 84 317 93 283 127 283 c 0
 169 283 216 310 216 371 c 0
 216 420 187 444 150 444 c 0xecc0
 122 444 130 442 99 438 c 1
 93 444 90 452 90 457 c 0
 90 462 93 466 99 468 c 0
 148 478 190 505 190 554 c 0
 190 580 165 596 139 596 c 0
 96 596 76 558 65 558 c 0
 57 558 51 591 52 593 c 0
 77 624 120 647 173 647 c 0xf540
597 -5 m 0
 560 -5 557 -3 557 4 c 2
 557 112 l 1
 556 115 554 115 552 115 c 2
 403 115 l 1
 399 120 391 130 390 141 c 1
 586 390 l 2
 590 395 601 398 609 398 c 0
 618 398 626 395 626 390 c 2
 626 163 l 2
 626 160 628 159 631 159 c 2
 658 159 l 2
 668 159 670 151 670 121 c 0
 670 117 664 115 664 115 c 1
 629 114 l 2
 627 114 626 112 626 109 c 2
 626 0 l 1
 623 -3 626 -5 597 -5 c 0
557 163 m 2
 557 292 l 2
 557 294 553 298 552 296 c 0
 507 243 495 223 449 166 c 0
 447 164 450 158 453 158 c 2
 551 158 l 2
 553 158 557 159 557 163 c 2
228 -16 m 0
 214 -16 192 1 192 7 c 0
 192 9 193 10 193 10 c 1
 541 642 l 1
 541 642 542 645 546 645 c 0xe240
 552 645 565 641 577 628 c 0
 582 623 580 617 580 617 c 1
 232 -14 l 1
 232 -14 232 -16 228 -16 c 0
EndSplineSet
Validated: 33
EndChar

StartChar: questiondown
Encoding: 191 191 125
Width: 310
Flags: W
HStem: -226 84<141.213 269.525> 314 116<181.255 270.745>
VStem: 24 50<-119.824 -15.7987> 168 116<325.997 417.236> 213 33<174.744 255.919>
LayerCount: 2
Fore
SplineSet
231 -142 m 0xe8
 245 -142 278 -149 278 -182 c 0
 278 -196 275 -208 270 -216 c 1
 260 -221 241 -226 220 -226 c 0
 154 -226 24 -158 24 -41 c 0
 24 27 50 69 125 112 c 0
 152 128 197 163 203 174 c 0
 212 190 213 198 213 243 c 0
 213 254 220 256 233 256 c 0
 238 256 246 255 246 248 c 0
 246 222 247 181 247 154 c 0
 247 80 198 55 161 31 c 0
 112 0 74 -23 74 -60 c 0
 74 -122 116 -149 154 -149 c 0
 207 -149 205 -142 231 -142 c 0xe8
284 371 m 0xf0
 284 339 258 314 226 314 c 0
 194 314 168 339 168 371 c 0
 168 403 194 430 226 430 c 0
 258 430 284 403 284 371 c 0xf0
EndSplineSet
Validated: 1
Substitution2: "'smcp' Lowercase to Small Capitals lookup 2-1" questiondown.sc
EndChar

StartChar: AE
Encoding: 198 198 132
Width: 982
Flags: W
HStem: -3 29<48.3562 112.554 206.533 257.151 420.006 479.266> 2 42<590.335 840.564> 247 50<342.627 497> 309 44<584 761.451> 616 48<649.258 825.938> 629 29<420.006 464.257>
VStem: 497 87<46.7642 244.943 297.003 307.528 353.429 529.714> 790 32<230.002 287.868 373.107 427.976> 860 32<523.07 569.412>
LayerCount: 2
Fore
SplineSet
485 297 m 4x3380
 494 297 497 301 497 308 c 30
 497 523 l 22
 497 529 493 531 488 531 c 4
 484 531 481 527 479 524 c 4
 458 491 342 301 342 301 c 5
 342 301 341 297 343 297 c 4
 369 296 390 295 413 295 c 4
 444 295 459 296 485 297 c 4x3380
408 247 m 4
 367 247 355 245 309 242 c 4
 307 242 304 239 304 239 c 5
 235 129 l 5
 215 94 205 73 202 60 c 4
 199 49 202 44 206 40 c 4
 217 29 252 26 260 26 c 4
 263 26 258 3 255 -3 c 5
 215 -1 197 0 153 0 c 4
 107 0 94 -1 48 -3 c 5
 46 -1 47 4 48 10 c 4
 49 16 53 26 55 26 c 4
 67 26 103 30 116 43 c 4
 144 69 163 101 185 137 c 6
 462 584 l 6
 465 589 469 597 469 604 c 4
 469 622 436 629 424 629 c 4
 422 629 420 636 420 643 c 4
 420 650 422 656 424 658 c 5xb780
 424 658 473 656 540 656 c 4
 633 656 754 664 863 664 c 5
 870 614 883 573 892 528 c 5
 889 525 881 523 874 523 c 4
 867 523 861 525 860 530 c 4
 838 610 797 616 744 616 c 6
 677 616 l 6
 636 616 591 615 589 603 c 4
 585 584 584 542 584 519 c 6
 584 359 l 6
 584 354 605 353 627 353 c 6
 680 353 l 6
 776 353 773 355 790 421 c 4
 791 426 798 428 805 428 c 4
 812 428 819 426 822 423 c 5
 822 234 l 5
 820 232 813 230 806 230 c 4
 799 230 792 233 790 238 c 4
 775 295 771 295 762 301 c 4
 751 308 694 309 656 309 c 4
 628 309 584 309 584 300 c 6
 584 145 l 6
 584 126 586 74 593 54 c 4
 596 45 619 44 661 44 c 6
 709 44 l 6
 747 44 806 46 835 61 c 4
 854 71 882 109 898 162 c 4
 899 166 905 168 912 168 c 4
 922 168 934 165 937 162 c 5
 918 108 890 40 883 -4 c 5
 774 -4 633 2 542 2 c 4x7b80
 475 2 424 -3 424 -3 c 5
 422 -1 420 4 420 12 c 4
 420 20 422 26 424 26 c 4xb380
 436 26 485 37 490 49 c 5
 496 72 497 118 497 135 c 14
 497 233 l 30
 497 240 489 243 484 244 c 4
 470 246 433 247 408 247 c 4
EndSplineSet
Validated: 1
EndChar

StartChar: Eth
Encoding: 208 208 142
Width: 731
Flags: W
HStem: -3 46<205.517 470.11> -3 29<52.0058 112.623> 308 40<65.1905 421.084> 614 44<227.704 456.756> 629 29<51.0898 114.882>
VStem: 131 87<57.9039 603.534> 597 96<212.177 453.397>
LayerCount: 2
Fore
SplineSet
71 348 m 5x26
 100 348 402 348 416 348 c 4
 420 348 422 343 422 338 c 7
 422 332 420 317 416 308 c 5
 387 308 84 308 70 308 c 4
 66 308 65 316 65 321 c 7
 65 327 65 339 71 348 c 5x26
131 143 m 2
 131 521 l 2
 131 539 130 584 124 607 c 1
 119 619 67 629 55 629 c 0
 53 629 51 634 51 641 c 0
 51 648 53 656 55 658 c 1x6e
 55 658 107 656 174 656 c 0
 240 656 304 658 348 658 c 0
 579 658 693 496 693 336 c 0
 693 152 571 -3 347 -3 c 0xb6
 303 -3 241 2 176 0 c 2
 109 1 55 -3 55 -3 c 1
 54 -2 52 3 52 12 c 0
 52 18 53 26 55 26 c 0x66
 67 26 116 35 124 49 c 0
 131 61 131 106 131 143 c 2
218 535 m 2
 218 139 l 2
 218 109 222 88 233 63 c 0
 240 48 347 43 363 43 c 0
 516 43 597 145 597 340 c 0
 597 478 521 614 356 614 c 2
 351 614 l 2xb6
 327 614 242 613 231 598 c 0
 220 583 218 553 218 535 c 2
EndSplineSet
Validated: 37
EndChar

StartChar: multiply
Encoding: 215 215 149
Width: 414
Flags: W
HStem: 415 20G<55 59 356 360.5>
LayerCount: 2
Fore
SplineSet
56 60 m 4
 49 60 27 98 27 108 c 5
 165 243 l 6
 166 244 166 245 166 246 c 4
 166 248 165 250 164 251 c 6
 27 388 l 5
 27 402 52 435 58 435 c 4
 60 435 61 433 63 431 c 6
 205 290 l 6
 206 289 208 288 209 288 c 4
 211 289 l 5
 352 430 l 6
 354 432 355 433 357 433 c 4
 364 433 386 394 386 384 c 5
 251 249 l 6
 250 248 250 247 250 246 c 4
 250 245 250 244 250 244 c 6
 386 108 l 5
 386 93 368 60 360 60 c 4
 356 60 354 61 352 63 c 6
 212 203 l 6
 211 204 209 205 208 205 c 4
 206 205 205 204 204 203 c 6
 61 63 l 6
 59 61 58 60 56 60 c 4
EndSplineSet
Validated: 1
Substitution2: "'smcp' Lowercase to Small Capitals lookup 2-1" multiply.sc
EndChar

StartChar: Oslash
Encoding: 216 216 150
Width: 696
Flags: W
HStem: -10 43<273.496 444.516> 625 42<252.698 418.137>
VStem: 28 99<213.089 450.855> 568 99<206.425 444.367>
LayerCount: 2
Fore
SplineSet
151 -13 m 17
 142 -10 118 4 122.136 10.1738 c 9
 539.745 667.253 l 17
 549 665 573 651 569 645 c 9
 151 -13 l 17
332 625 m 0
 198 625 127 484 127 350 c 0
 127 195 208 33 363 33 c 0
 498 33 568 174 568 309 c 0
 568 464 487 625 332 625 c 0
28 328 m 0
 28 515 171 667 347 667 c 0
 523 667 667 515 667 328 c 0
 667 141 523 -10 347 -10 c 0
 171 -10 28 141 28 328 c 0
EndSplineSet
Validated: 37
EndChar

StartChar: Thorn
Encoding: 222 222 156
Width: 556
Flags: W
HStem: -3 29<50.0058 114.855 230.335 291.997> 128 43<241.459 362.805> 467 44<223.502 371.427> 633 29<50.0511 113.079 231.221 291.993>
VStem: 128 87<36.9151 459.854 497.001 621.28> 424 92<243.8 411.255>
LayerCount: 2
Fore
SplineSet
313 511 m 0
 395 511 516 465 516 328 c 0
 516 254 452 128 312 128 c 0
 289 128 252 133 235 156 c 0
 232 160 230 184 235 182 c 0
 265 171 274 171 302 171 c 0
 368 171 424 236 424 313 c 0
 424 402 388 467 297 467 c 0
 273 467 240.813 464.604 227 460 c 0
 218 457 215 446 215 423 c 2
 215 139 l 2
 215 103 217 73 224 46 c 0
 227 35 280 26 288 26 c 0
 291 26 292 17 292 11 c 0
 292 6 291 0 290 -3 c 1
 250 -1 218 2 174 2 c 0
 128 2 100 -1 54 -3 c 1
 52 -1 50 6 50 12 c 0
 50 18 52 26 54 26 c 0
 66 26 116 34 121 46 c 1
 127 69 128 117 128 135 c 2
 128 523 l 2
 128 541 127 589 121 612 c 1
 116 624 66 633 54 633 c 0
 52 633 50 640 50 646 c 0
 50 652 52 660 54 662 c 1
 100 660 128 657 174 657 c 0
 218 657 250 660 290 662 c 1
 291 659 292 652 292 647 c 0
 292 641 291 633 288 633 c 0
 280 633 227 623 224 612 c 0
 218 589 215 555 215 524 c 0
 215.057 515.206 215 508.128 215 504 c 0
 215 499 217.199 497 219 497 c 0
 226 497 254 511 313 511 c 0
EndSplineSet
Validated: 1
EndChar

StartChar: germandbls
Encoding: 223 223 157
Width: 578
Flags: W
HStem: -10 33<47.5249 98.5664 207.803 257 364.044 439.989> 369 47<58.4277 115.999> 660 33<240.786 344.867>
VStem: 116 77<36.4871 368.996 416.002 578.778> 267 58<316.788 384.967> 388 75<491.067 624.745> 463 68<55.4014 151.894>
LayerCount: 2
Fore
SplineSet
463 561 m 0xfc
 463 449 325 413 325 359 c 0
 325 318 376 290 423 265 c 0
 470 240 531 206 531 137 c 0
 531 58 475 -10 399 -10 c 0
 338 -10 291 16 281 33 c 1
 281 66 288 91 315 91 c 0
 348 91 349 23 400 23 c 0
 436 23 463 52 463 102 c 0xfa
 463 202 267 190 267 325 c 0
 267 419 388 419 388 549 c 0
 388 614 354 660 290 660 c 0
 201 660 193 557 193 475 c 0
 193 343 194 135 194 135 c 2
 194 102 194 73 201 46 c 0
 204 35 246 26 254 26 c 0
 259 26 259 3 257 -3 c 1
 217 -1 195 2 155 2 c 0
 114 2 92 -1 51 -3 c 1
 49 -1 47 6 47 12 c 0
 47 18 49 26 51 26 c 0
 63 26 103 35 106 46 c 0
 114 77 115 100 115 135 c 2
 115 135 116 273 116 361 c 0
 116 364 114 369 111 369 c 2
 58 369 l 2
 56 369 55 371 55 375 c 0
 55 388 65 416 70 416 c 2
 111 416 l 2
 114 416 116 419 116 422 c 2
 116 438 l 2
 116 610 185 693 287 693 c 0
 387 693 463 655 463 561 c 0xfc
EndSplineSet
Validated: 1
Substitution2: "'smcp' Lowercase to Small Capitals lookup 2-1" germandbls.sc
EndChar

StartChar: ae
Encoding: 230 230 164
Width: 675
Flags: W
HStem: -7 57<144.958 238.021> -6 64<429.051 563.632> 222 39<355.999 548.493> 398 38<162.067 253.795 409.326 507.411>
VStem: 50 84<61.0183 151.602 293.482 352.469> 272 83<134.066 203 261.003 339.792> 554 77<250.5 348.532>
LayerCount: 2
Fore
SplineSet
355 214 m 0xbe
 355 130 421 58 504 58 c 0
 571 58 611 92 623 98 c 1
 624 98 629 93 629 85 c 0
 629 80 625.66 69.3134 622 65 c 0
 594 32 548 -6 480 -6 c 0x7e
 413 -6 354 25 318 78 c 1
 296 51 231 -7 156 -7 c 0
 100 -7 50 21 50 91 c 0
 50 184 183 227 263 241 c 0
 269 242 272 249 272 256 c 2
 272 340 l 2
 272 375 239 398 204 398 c 0
 164 398 134 369 134 324 c 0
 134 299 116 289 93 289 c 0
 79 289 61 296 54 308 c 1
 54 366 159 436 245 436 c 0
 288 436 329 416 341 382 c 1
 373 414 421 436 468 436 c 0
 599 436 631 333 631 265 c 0
 631 236 619 238 602 237 c 0
 519 230 448 226 363 222 c 0
 357 222 355 219 355 214 c 0xbe
272 100 m 2
 272 203 l 1
 224 194 134 171 134 106 c 0
 134 69 161 50 195 50 c 0xbe
 232 50 272 77 272 100 c 2
554 287 m 0
 554 313 519 399 464 399 c 0
 392 399 356 313 356 267 c 0
 356 265 354 261 362 261 c 0
 414 264 540 275 549 278 c 0
 553 279 554 283 554 287 c 0
EndSplineSet
Validated: 1
Substitution2: "'smcp' Lowercase to Small Capitals lookup 2-1" ae.sc
EndChar

StartChar: eth
Encoding: 240 240 174
Width: 514
Flags: W
HStem: -7 39<192.511 302.245> 398 40<177.303 301.901> 664 24<77.2432 94.0324>
VStem: 28 86<119.151 306.183> 365 87<136.807 339.281>
LayerCount: 2
Fore
SplineSet
118.592 508.874 m 17
 112.562 515.555 96.626 536.196 101.821 540.886 c 9
 356.487 705.343 l 17
 361.848 699.403 379.196 678.689 374 674 c 9
 118.592 508.874 l 17
72 664 m 1
 72 671 78 688 86 688 c 1
 257 649 452 506 452 260 c 3
 452 112 369 -7 255 -7 c 0
 115 -7 28 105 28 215 c 0
 28 323 120 438 243 438 c 0
 281 438 329 425 344 408 c 1
 328 488 258 588 72 664 c 1
365 218 m 0
 365 273.372 358 322 346 338 c 0
 317.286 376.285 275.769 398 230 398 c 0
 160 398 114 314 114 222 c 0
 114 124 173 32 246 32 c 0
 325 32 365 120 365 218 c 0
EndSplineSet
Validated: 37
Substitution2: "'smcp' Lowercase to Small Capitals lookup 2-1" eth.sc
EndChar

StartChar: divide
Encoding: 247 247 181
Width: 528
Flags: W
HStem: 5 100<222.062 300.953> 215 63<31.7375 489.903> 390 97<221.648 301.938>
VStem: 213 98<14.7026 96.0879 398.935 478.404>
LayerCount: 2
Fore
SplineSet
262 390 m 0
 235 390 216 408 213 435 c 1
 213 439 l 2
 213 464 236 487 262 487 c 0
 289 487 308 470 311 443 c 1
 311 438 l 2
 311 414 288 390 262 390 c 0
262 5 m 0
 235 5 216 25 213 52 c 1
 213 56 l 2
 213 81 236 105 262 105 c 0
 289 105 308 84 311 57 c 1
 311 55 l 2
 311 31 288 5 262 5 c 0
28 224 m 0
 28 226 31 278 42 278 c 2
 491 278 l 1
 491 278 498 277 498 268 c 0
 498 250 491 226 490 222 c 0
 488 216 482 215 482 215 c 1
 34 215 l 1
 34 215 28 214 28 224 c 0
EndSplineSet
Validated: 1
Substitution2: "'smcp' Lowercase to Small Capitals lookup 2-1" divide.sc
EndChar

StartChar: oslash
Encoding: 248 248 182
Width: 533
Flags: W
HStem: -7 39<180.173 313.02> 398 39<177.668 294.342>
VStem: 28 86<128.728 312.897> 377 86<119.467 302.995>
LayerCount: 2
Back
Refer: 831 -1 N 1 0 0 1 22 0 3
Fore
SplineSet
128 -8 m 21
 119.715 -4.48535 98.4014 6.72949 101.136 13.1738 c 13
 370.745 437.253 l 21
 378.109 434.129 400.733 423.444 398 417 c 13
 128 -8 l 21
256 32 m 0
 329 32 377 112 377 202 c 0
 377 312 309 398 234 398 c 0
 161 398 114 321 114 231 c 0
 114 121 181 32 256 32 c 0
245 437 m 0
 366 437 463 337 463 216 c 0
 463 94 369 -7 247 -7 c 0
 125 -7 28 94 28 216 c 0
 28 340 121 437 245 437 c 0
EndSplineSet
Validated: 37
Substitution2: "'smcp' Lowercase to Small Capitals lookup 2-1" oslash.sc
EndChar

StartChar: thorn
Encoding: 254 254 188
Width: 549
Flags: W
HStem: -227 29<43.1875 101.285 204.966 262.593> -15 42<218.941 359.049> 381 57<231.881 340.126> 629 27<42.1772 104.758> 674 20G<185.5 192>
VStem: 114 77<-187.513 -0.00292969 51.624 368.809 392.912 623.698> 413 87<124.1 307.891>
LayerCount: 2
Fore
SplineSet
191 -89 m 2
 191 -122 192 -151 199 -178 c 0
 202 -189 251 -198 259 -198 c 0
 264 -198 264 -221 262 -227 c 1
 222 -225 193 -222 155 -222 c 0
 114 -222 87 -225 46 -227 c 1
 41 -222 41 -198 46 -198 c 0
 58 -198 104 -189 107 -178 c 0
 113 -153 114 -122 114 -108 c 2
 114 549 l 2
 114 566 112 593 108 613 c 0
 104 627 74 629 57 629 c 2
 48 629 l 2
 44 629 42 633 42 640 c 0
 42 642 43 656 48 656 c 0
 157 666 184 694 187 694 c 2
 189 694 l 2
 195 694 201 683 202 678 c 1
 202 678 191 646 191 591 c 2
 191 399 l 2
 191 397 191 391 194 393 c 0
 209 405 265 438 301 438 c 0
 441 438 500 341 500 227 c 0
 500 98 406 -15 279 -15 c 0
 228 -15 210 -7 193 0 c 1
 193 0 191 -4 191 -12 c 2
 191 -89 l 2
191 326 m 2
 191 87 l 2
 191 47 255 27 305 27 c 0
 386 27 413 124 413 205 c 0
 413 328 347 381 254 381 c 0
 221 381 191 360 191 326 c 2
EndSplineSet
Validated: 1
Substitution2: "'smcp' Lowercase to Small Capitals lookup 2-1" thorn.sc
EndChar

StartChar: Aogonek
Encoding: 260 260 194
Width: 746
VWidth: 0
Flags: W
HStem: -223 59<491.505 564.975> -3 29<46.0058 102.172 199.109 258.234 461.344 513.385 641.161 691.846> 249 48<273 439.999> 643 20G<366 383.5>
VStem: 433 54<-160.236 -83.2535>
LayerCount: 2
Fore
SplineSet
328 586 m 1
 342 625 350 663 382 663 c 0
 385 663 388 661 391 660 c 1
 591 132 l 2
 605 95 611 80 620 60 c 0
 630 36 680 26 688 26 c 0
 691 26 692 13 692 7 c 0
 692 2 691 0 690 -3 c 1
 658 -1 625 1 591 2 c 5
 547 -24 487 -77 487 -121 c 4
 487 -136 494 -164 528 -164 c 4
 579 -164 603 -126 609 -126 c 4
 610 -126 614 -131 614 -139 c 4
 614 -144 612 -153 609 -157 c 4
 587 -186 549 -223 504 -223 c 4
 448 -223 433 -173 433 -146 c 4
 433 -91 491 -32 545 2 c 5
 515 1 503 -1 464 -3 c 1
 459 2 460 26 465 26 c 0
 477 26 511 32 516 44 c 0
 517 48 518 54 518 60 c 0
 518 90 504 129 504 129 c 1
 463 242 l 1
 463 242 460 246 457 246 c 0
 431 248 406 249 381 249 c 0
 340 249 299 247 254 244 c 0
 252 244 249 241 249 241 c 1
 206 131 l 1
 194 96 189 75 189 62 c 0
 189 51 192 46 197 42 c 0
 211 31 247 26 255 26 c 0
 260 26 259 3 257 -3 c 1
 217 -1 198 2 154 2 c 0
 108 2 96 -1 50 -3 c 1
 48 -1 46 6 46 12 c 0
 46 18 48 26 50 26 c 0
 62 26 97 32 107 45 c 0
 127 71 140 103 154 139 c 2
 328 586 l 1
359 526 m 1
 273 303 l 1
 273 303 273 299 275 299 c 0
 301 298 323 297 346 297 c 0
 377 297 406 298 437 300 c 0
 439 300 440 305 440 305 c 1
 359 526 l 1
EndSplineSet
Validated: 1
EndChar

StartChar: aogonek
Encoding: 261 261 195
Width: 473
VWidth: 0
Flags: W
HStem: -223 59<282.505 355.975> -7 57<144.958 230.484> 398 38<158.199 252.925>
VStem: 50 84<61.0183 148.735 295.86 352.469> 224 54<-160.236 -87.9475> 272 76<68.2124 203 236.922 383.061>
LayerCount: 2
Fore
SplineSet
240 436 m 0xf4
 323 436 348 403 348 333 c 2
 348 93 l 2xf4
 348 66 363 42 389 42 c 0
 408 42 421 56 424 56 c 0
 426 56 429 53 429 51 c 0
 429 46 426 33 423 26 c 1
 413 19 402 11 390 3 c 0
 352 -24 278 -67 278 -121 c 0
 278 -136 285 -164 319 -164 c 0
 370 -164 394 -126 400 -126 c 0
 401 -126 405 -131 405 -139 c 0
 405 -144 403 -153 400 -157 c 0
 378 -186 340 -223 295 -223 c 0
 239 -223 224 -173 224 -146 c 0xf8
 224 -102 278 -40 326 -2 c 1
 304 10 286 36 280 53 c 1
 276 52 227 -7 156 -7 c 0
 100 -7 50 21 50 91 c 0
 50 184 186 212 263 241 c 0
 269 243 272 249 272 256 c 2
 272 340 l 2
 272 375 239 398 204 398 c 0
 164 398 134 369 134 324 c 0
 134 299 109 292 86 292 c 0
 72 292 54 293 54 308 c 0
 54 366 154 436 240 436 c 0xf4
272 100 m 2
 272 203 l 1
 227 184 134 171 134 106 c 0
 134 69 161 50 195 50 c 0
 232 50 272 77 272 100 c 2
EndSplineSet
Validated: 1
Substitution2: "'smcp' Lowercase to Small Capitals lookup 2-1" aogonek.sc
EndChar

StartChar: dcroat
Encoding: 273 273 207
Width: 491
Flags: W
HStem: -4 49<190.238 314.151> 20 27<422.508 478.915> 398 42<181.154 316.304> 529 40<206.191 482.084> 629 27<264.177 326.758> 674 20G<407.5 414>
VStem: 31 86<128.357 294.885> 336 77<58.575 378.343 423.004 623.698>
LayerCount: 2
Fore
SplineSet
254 440 m 0xbf
 284 440 312 432 329 423 c 1
 332 423 336 429 336 441 c 2
 336 549 l 2
 336 566 334 593 330 613 c 1
 326 627 296 629 279 629 c 2
 270 629 l 2
 266 629 264 633 264 640 c 0
 264 642 265 656 270 656 c 0
 379 666 406 694 409 694 c 2
 411 694 l 2
 417 694 423 683 424 678 c 1
 424 678 413 646 413 591 c 2
 413 141 l 2
 413 130 413 93 419 65 c 0
 424 46 473 48 476 47 c 0
 478 46 479 38 479 35 c 0
 479 33 478 20 473 20 c 0x7f
 421 17 343 -6 342 -6 c 0
 337 -6 336 4 336 11 c 2
 336 23 l 2
 336 28 333.959 28.0776 332 27 c 0
 312 16 264 -4 226 -4 c 0
 114 -4 31 88 31 196 c 0
 31 327 141 440 254 440 c 0xbf
241 398 m 0
 158 398 117 309 117 225 c 0
 117 135 167 45 264 45 c 0xbf
 309 45 336 67 336 102 c 2
 336 340 l 2
 336 362 315 398 241 398 c 0
212 569 m 5
 241 569 463 569 477 569 c 4
 481 569 483 564 483 559 c 7
 483 553 481 538 477 529 c 5
 448 529 225 529 211 529 c 4
 207 529 206 537 206 542 c 7
 206 548 206 560 212 569 c 5
EndSplineSet
Validated: 5
Substitution2: "'smcp' Lowercase to Small Capitals lookup 2-1" dcroat.sc
EndChar

StartChar: Eogonek
Encoding: 280 280 214
Width: 612
Flags: W
HStem: -224 59<391.505 464.975> -3 29<49.0264 109.623> 0 40<221.604 437 466.522 470.608> 305 44<215 392.451> 612 44<218.637 455.25> 629 29<48.0898 111.882>
VStem: 128 87<49.5865 303.528 349.429 608.119> 333 54<-161.236 -85.8972> 421 32<226.002 283.868 369.107 423.976> 491 32<519.07 565.412>
LayerCount: 2
Fore
SplineSet
171 656 m 0x9bc0
 264 656 385 660 494 660 c 1
 501 610 514 569 523 524 c 1
 520 521 512 519 505 519 c 0
 498 519 492 521 491 526 c 0
 469 606 428 612 375 612 c 2
 308 612 l 2
 267 612 222 611 220 599 c 0
 216 580 215 538 215 515 c 2
 215 355 l 2
 215 350 236 349 258 349 c 2
 311 349 l 2
 407 349 404 351 421 417 c 0
 422 422 429 424 436 424 c 0
 443 424 450 422 453 419 c 1
 453 230 l 1
 451 228 444 226 437 226 c 0
 430 226 423 229 421 234 c 0
 406 291 402 291 393 297 c 0
 382 304 325 305 287 305 c 0
 259 305 215 305 215 296 c 2
 215 141 l 2
 215 122 217 70 224 50 c 0
 227 41 250 40 292 40 c 2
 340 40 l 2
 378 40 437 42 466 57 c 0
 485 67 513 105 529 158 c 0
 530 162 536 164 543 164 c 0
 553 164 565 161 568 158 c 1
 549 104 521 38 514 -6 c 1
 455 -6 387 -79 387 -122 c 0
 387 -137 394 -165 428 -165 c 0
 479 -165 503 -127 509 -127 c 0
 510 -127 513 -132 513 -140 c 0
 513 -145 512 -154 509 -158 c 0
 487 -187 449 -224 404 -224 c 0
 348 -224 333 -174 333 -147 c 0
 333 -95 386 -40 437 -5 c 1
 344 -3 276 0 173 0 c 0xbbc0
 126 0 52 -3 52 -3 c 1
 51 -2 49 4 49 13 c 0
 49 19 50 26 52 26 c 0
 64 26 113 35 121 49 c 0
 128 61 128 106 128 143 c 2
 128 521 l 2
 128 539 127 584 121 607 c 1
 116 619 64 629 52 629 c 0
 50 629 48 634 48 641 c 0
 48 648 50 656 52 658 c 1xd7c0
 52 658 104 656 171 656 c 0x9bc0
EndSplineSet
Validated: 1
EndChar

StartChar: eogonek
Encoding: 281 281 215
Width: 454
VWidth: 0
Flags: W
HStem: -224 59<249.505 322.975> -8 60<198.275 306.028> 232 42<133.999 326.999> 399 36<184.063 278.005>
VStem: 50 84<118.624 316.841> 191 54<-161.236 -81.8153> 327 77<246.5 348.761>
LayerCount: 2
Fore
SplineSet
236 399 m 0
 155 399 134 302 134 281 c 0
 134 279 132 274 140 274 c 0
 149 274 319 272 322 274 c 0
 326 276 327 280 327 284 c 0
 327 314 293 399 236 399 c 0
238 435 m 0
 369 435 404 329 404 261 c 0
 404 232 395 233 375 233 c 0
 292 231 223 232 139 232 c 0
 133 232 132 228 131 224 c 0
 131 221 130 213 130 202 c 0
 130 139 174 52 279 52 c 0
 354 52 389 98 396 98 c 0
 397 98 402 93 402 85 c 0
 402 80 400 71 396 67 c 0
 387 58 364 38 350 27 c 0
 288 -19 245 -61 245 -122 c 0
 245 -137 252 -165 286 -165 c 0
 337 -165 361 -127 367 -127 c 0
 368 -127 371 -132 371 -140 c 0
 371 -145 370 -154 367 -158 c 0
 345 -187 307 -224 262 -224 c 0
 206 -224 191 -174 191 -147 c 0
 191 -107 229 -47 269 -7 c 1
 262 -8 255 -8 248 -8 c 0
 139 -8 50 76 50 197 c 0
 50 341 129 435 238 435 c 0
EndSplineSet
Validated: 33
Substitution2: "'smcp' Lowercase to Small Capitals lookup 2-1" eogonek.sc
EndChar

StartChar: Hbar
Encoding: 294 294 228
Width: 738
Flags: W
HStem: -3 29<50.0058 114.855 230.335 291.234 442.188 505.855 620.335 681.997> 299 50<215 519> 470 38<89.157 128 215 519 606 651.843> 633 29<50.0511 113.079 231.221 291.234 442.188 504.079 621.221 681.993>
VStem: 128 87<36.9151 298.069 348.627 470 508 621.28> 519 87<36.9151 296.999 349.001 470 508 621.28>
LayerCount: 2
Fore
SplineSet
606 470 m 1
 606 139 l 2
 606 103 607 73 614 46 c 0
 617 35 670 26 678 26 c 0
 681 26 682 17 682 11 c 0
 682 6 681 0 680 -3 c 1
 640 -1 610 2 566 2 c 0
 520 2 491 -1 445 -3 c 1
 440 2 440 26 445 26 c 0
 457 26 507 34 512 46 c 1
 518 69 519 117 519 135 c 2
 519 293 l 2
 519 295 517 297 517 297 c 1
 470 298 420 299 369 299 c 0
 215 299 215 298 215 294 c 2
 215 139 l 2
 215 103 217 73 224 46 c 0
 227 35 280 26 288 26 c 0
 293 26 292 3 290 -3 c 1
 250 -1 218 2 174 2 c 0
 128 2 100 -1 54 -3 c 1
 52 -1 50 6 50 12 c 0
 50 18 52 26 54 26 c 0
 66 26 116 34 121 46 c 1
 127 69 128 117 128 135 c 2
 128 470 l 1
 128 470 108 470 94 470 c 0
 90 470 89 478 89 483 c 3
 89 489 89 499 95 508 c 1
 95 508 121 508 128 508 c 1
 128 552 127 589 121 612 c 1
 116 624 66 633 54 633 c 0
 52 633 50 640 50 646 c 0
 50 652 52 660 54 662 c 1
 100 660 128 656 174 656 c 0
 218 656 250 660 290 662 c 1
 292 656 293 633 288 633 c 0
 280 633 227 623 224 612 c 0
 217 585 215 550 215 508 c 1
 227 507 311 507 369 507 c 0
 414 507 479 507 519 508 c 1
 519 544 518 589 512 612 c 1
 507 624 457 633 445 633 c 0
 440 633 440 657 445 662 c 1
 491 660 520 656 566 656 c 0
 610 656 640 660 680 662 c 1
 681 659 682 652 682 647 c 0
 682 641 681 633 678 633 c 0
 670 633 617 623 614 612 c 0
 607 585 606 548 606 508 c 1
 617 508 647 508 647 508 c 0
 651 508 652 500 652 495 c 3
 652 489 652 479 646 470 c 1
 617 470 606 470 606 470 c 1
369 471 m 4
 321 471 260 471 215 470 c 13
 215 352 l 2
 215 351 216 349 217 349 c 0
 266 348 313 347 369 347 c 0
 416 347 472 348 517 349 c 1
 517 349 519 351 519 353 c 2
 519 470 l 21
 478 471 411 471 369 471 c 4
EndSplineSet
Validated: 1
EndChar

StartChar: hbar
Encoding: 295 295 229
Width: 491
Flags: W
HStem: -3 29<29.1875 87.2849 190.966 248.593 303.188 357.654 460.966 518.593> 377 61<244.846 329.363> 529 40<37.1905 313.084> 629 27<28.1772 90.7581> 674 20G<171.5 178>
VStem: 100 77<36.4871 346.251 368.002 623.698> 370 77<36.4871 329.156>
LayerCount: 2
Fore
SplineSet
447 251 m 2
 447 134 l 2
 447 101 448 73 455 46 c 0
 458 35 507 26 515 26 c 0
 520 26 520 3 518 -3 c 1
 478 -1 449 2 411 2 c 0
 370 2 347 -1 306 -3 c 1
 301 2 301 26 306 26 c 0
 318 26 360 35 363 46 c 0
 369 71 370 102 370 116 c 2
 370 227 l 2
 370 333 329 377 266 377 c 0
 224 377 177 334 177 312 c 2
 177 135 l 2
 177 102 178 73 185 46 c 0
 188 35 237 26 245 26 c 0
 250 26 250 3 248 -3 c 1
 208 -1 179 2 141 2 c 0
 100 2 73 -1 32 -3 c 1
 27 2 27 26 32 26 c 0
 44 26 90 35 93 46 c 0
 99 71 100 101 100 115 c 2
 100 549 l 2
 100 566 98 593 94 613 c 1
 90 627 60 629 43 629 c 2
 34 629 l 2
 30 629 28 633 28 640 c 0
 28 642 29 656 34 656 c 0
 143 666 170 694 173 694 c 2
 175 694 l 2
 181 694 187 683 188 678 c 1
 188 678 177 646 177 591 c 2
 177 591 177 380 177 372 c 0
 177 371 177 368 179 368 c 0
 180 368 181.041 368.961 182 370 c 0
 206 396 268 438 322 438 c 0
 410 438 447 367 447 251 c 2
43 569 m 1
 72 569 294 569 308 569 c 0
 312 569 314 564 314 559 c 3
 314 553 312 538 308 529 c 1
 279 529 56 529 42 529 c 0
 38 529 37 537 37 542 c 3
 37 548 37 560 43 569 c 1
EndSplineSet
Validated: 5
Substitution2: "'smcp' Lowercase to Small Capitals lookup 2-1" hbar.sc
EndChar

StartChar: Iogonek
Encoding: 302 302 236
Width: 347
Flags: W
HStem: -224 59<133.505 206.975> -3 29<49.0058 113.855 236.752 290.997> 633 29<49.0511 112.079 230.221 290.993>
VStem: 75 54<-161.236 -86.8884> 127 87<36.9151 621.28>
LayerCount: 2
Fore
SplineSet
173 657 m 0xe8
 217 657 249 660 289 662 c 1
 290 659 291 652 291 647 c 0
 291 641 290 633 287 633 c 0
 279 633 226 623 223 612 c 0
 216 585 214 555 214 519 c 2
 214 139 l 2xe8
 214 103 216 73 223 46 c 0
 226 35 279 26 287 26 c 0
 290 26 291 17 291 11 c 0
 291 6 290 0 289 -3 c 1
 271 -2 252 -1 236 0 c 1
 192 -26 129 -78 129 -122 c 0
 129 -137 136 -165 170 -165 c 0
 221 -165 245 -127 251 -127 c 0
 252 -127 255 -132 255 -140 c 0
 255 -145 254 -154 251 -158 c 0
 229 -187 191 -224 146 -224 c 0
 90 -224 75 -174 75 -147 c 0xf0
 75 -93 138 -33 191 2 c 1
 185 2 180 2 173 2 c 0
 127 2 99 -1 53 -3 c 1
 51 -1 49 6 49 12 c 0
 49 18 51 26 53 26 c 0
 65 26 115 34 120 46 c 1
 126 69 127 117 127 135 c 2
 127 523 l 2
 127 541 126 589 120 612 c 1
 115 624 65 633 53 633 c 0
 51 633 49 640 49 646 c 0
 49 652 51 660 53 662 c 1
 99 660 127 657 173 657 c 0xe8
EndSplineSet
Validated: 1
EndChar

StartChar: dotlessi
Encoding: 305 305 239
Width: 282
Flags: W
HStem: -3 29<30.1875 88.2849 191.966 249.593> 414 20G<177.5 181>
VStem: 101 77<36.4871 366.32>
LayerCount: 2
Fore
SplineSet
178 135 m 2
 178 102 179 73 186 46 c 0
 189 35 238 26 246 26 c 0
 251 26 251 3 249 -3 c 1
 209 -1 180 2 142 2 c 0
 101 2 74 -1 33 -3 c 1
 28 2 28 26 33 26 c 0
 45 26 91 35 94 46 c 0
 100 71 101 102 101 116 c 2
 101 305 l 2
 101 313 100 345 87 359 c 1
 65 386 29 376 29 382 c 0
 29 383 30 406 35 407 c 0
 80 414 136 422 173 433 c 0
 174 433 177 434 178 434 c 0
 184 434 184 418 183 413 c 0
 179 381 178 375 178 341 c 2
 178 135 l 2
EndSplineSet
Validated: 1
Substitution2: "'smcp' Lowercase to Small Capitals lookup 2-1" dotlessi.sc
EndChar

StartChar: kgreenlandic
Encoding: 312 312 246
Width: 590
Flags: W
HStem: -3 27<51.1875 103.978 218.512 270.593 316.074 354.982 475.486 532.951> 369 27<50.1772 112.758> 407 23<331.794 375.785 464.654 526.33>
VStem: 122 77<36.4871 195 241 363.698>
LayerCount: 2
Fore
SplineSet
224 250 m 4
 311 323 378 376 378 389 c 0
 378 409 337 399 333 407 c 1
 330 416 329 428 334 430 c 1
 413 430 l 2
 448 430 477 433 522 435 c 1
 530 430 527 414 525 408 c 0
 524 405 515 406 510 406 c 0
 496 405 463 397 452 390 c 0
 443 384 339 300 283 248 c 1
 359 161 427 72 449 53 c 0
 474 31 521 24 529 24 c 0
 532 24 533 15 533 8 c 0
 533 3 533 -1 532 -3 c 1
 492 -1 461 2 423 2 c 0
 382 2 360 -1 319 -3 c 1
 314 2 314 24 319 24 c 0
 330 24 355 30 355 37 c 0
 355 38 355 39 354 40 c 2
 211 198 l 1
 199 195 l 1
 199 135 l 2
 198 102 200 73 207 46 c 0
 210 35 259 26 267 26 c 0
 272 26 272 3 270 -3 c 1
 230 -1 201 2 163 2 c 0
 122 2 95 -1 54 -3 c 1
 49 2 49 26 54 26 c 0
 66 26 112 35 115 46 c 0
 121 71 122 102 122 116 c 2
 122 289 l 2
 122 306 120 333 116 353 c 0
 112 367 82 369 65 369 c 2
 56 369 l 2
 52 369 50 373 50 380 c 0
 50 382 51 396 56 396 c 0
 165 406 192 434 195 434 c 2
 197 434 l 2
 203 434 209 423 210 418 c 1
 210 418 199 386 199 331 c 2
 199 241 l 1
 207 243 216 243 224 250 c 4
EndSplineSet
Validated: 33
Substitution2: "'smcp' Lowercase to Small Capitals lookup 2-1" kgreenlandic.sc
EndChar

StartChar: Lslash
Encoding: 321 321 255
Width: 616
Flags: W
HStem: -1 29<52.0264 116.616> 2 42<224.604 474.564> 633 29<53.0511 116.079 234.221 294.993>
VStem: 131 87<49.5879 220.414 259.985 280.084 319.6 621.28>
LayerCount: 2
Fore
SplineSet
131 521 m 2xb0
 131 539 130 589 124 612 c 1
 119 624 69 633 57 633 c 0
 55 633 53 640 53 646 c 0
 53 652 55 660 57 662 c 1
 103 660 131 656 177 656 c 0
 221 656 253 660 293 662 c 1
 294 659 295 652 295 647 c 0
 295 641 294 633 291 633 c 0
 283 633 230 623 227 612 c 0
 220 585 218 555 218 519 c 2
 218 319.6 l 1
 405.443 447.042 l 1
 410.394 442.092 427 419 423 416 c 2
 218 280.084 l 1
 218 142 l 2
 218 106 220 81 227 54 c 0
 230 45 253 44 295 44 c 2
 343 44 l 2
 381 44 440 46 469 61 c 0
 488 71 516 109 532 162 c 0
 533 166 539 168 546 168 c 0
 556 168 568 165 571 162 c 1
 552 108 524 40 517 -4 c 1
 408 -4 306 2 176 2 c 0x70
 129 2 55 -1 55 -1 c 1
 54 0 52 6 52 15 c 0
 52 21 53 28 55 28 c 0
 67 28 115.938 35.036 124 49 c 0
 130.946 61.031 131 106 131 143 c 2
 131 220.414 l 1
 71.5566 177.958 l 1
 65.8994 183.615 51 204 54.707 206.707 c 2
 131 259.985 l 1
 131 521 l 2xb0
EndSplineSet
Validated: 524321
EndChar

StartChar: lslash
Encoding: 322 322 256
Width: 285
Flags: W
HStem: -3 29<29.1875 87.2849 190.966 248.593> 629 27<28.1772 90.7581> 674 20G<171.5 178>
VStem: 100 77<36.4871 297.091 334.962 349.98 387.765 623.698>
LayerCount: 2
Fore
SplineSet
46 260 m 1
 40.3428 265.657 27.6152 284.213 31.1504 287.749 c 2
 100 334.962 l 1
 100 549 l 2
 100 566 98 593 94 613 c 1
 90 627 60 629 43 629 c 2
 34 629 l 2
 30 629 28 633 28 640 c 0
 28 642 29 656 34 656 c 0
 143 666 170 694 173 694 c 2
 175 694 l 2
 181 694 187 683 188 678 c 1
 188 678 177 646 177 591 c 2
 177 387.765 l 1
 228.443 423.042 l 1
 233.394 418.092 247.536 399.536 244 396 c 2
 177 349.98 l 1
 177 135 l 2
 177 102 178 73 185 46 c 0
 188 35 237 26 245 26 c 0
 250 26 250 3 248 -3 c 1
 208 -1 179 2 141 2 c 0
 100 2 73 -1 32 -3 c 1
 27 2 27 26 32 26 c 0
 44 26 90 35 93 46 c 0
 99 71 100 102 100 116 c 2
 100 297.091 l 1
 46 260 l 1
EndSplineSet
Validated: 524289
Substitution2: "'smcp' Lowercase to Small Capitals lookup 2-1" lslash.sc
EndChar

StartChar: Eng
Encoding: 330 330 263
Width: 774
Flags: W
HStem: -227 60<405 506.01> -3 29<49.0029 117.782 215.656 283.234> 633 29<53.1875 125.794 491.074 564.881 651.826 725.993>
VStem: 142 56<41.3891 567.234> 580 55<172.79 620.656>
LayerCount: 2
Fore
SplineSet
635 85 m 2
 635 -78 567 -227 417 -227 c 0
 393 -227 365 -211 365 -211 c 1
 360 -205 353 -189 353 -174 c 0
 353 -143 383 -124 415 -124 c 0
 449 -124 463 -167 491 -167 c 0
 522 -167 570 -113 579 28 c 0
 198 568 l 1
 198 141 l 2
 198 105 198 75 205 48 c 0
 208 37 272 26 280 26 c 0
 285 26 284 3 282 -3 c 1
 242 -1 211 2 167 2 c 0
 121 2 98 -1 52 -3 c 1
 50 -1 49 6 49 12 c 0
 49 18 50 26 52 26 c 0
 64 26 127 37 132 50 c 0
 142 76 142 106 142 144 c 0
 142 275 142 406 142 537 c 0
 142 565 141 590 135 612 c 1
 130 624 68 633 56 633 c 0
 51 633 51 657 56 662 c 1
 95 661 112 660 158 660 c 0
 188 660 224 661 238 662 c 1
 283 579 466 327 577 172 c 1
 580 189 580 197 580 213 c 2
 580 524 l 2
 580 541 579 589 573 612 c 1
 568 624 506 635 494 635 c 0
 489 635 489 657 494 662 c 1
 540 660 566 656 612 656 c 0
 656 656 684 660 724 662 c 1
 725 659 726 652 726 647 c 0
 726 641 725 635 722 635 c 0
 714 635 646 623 643 612 c 0
 636 585 635 555 635 519 c 2
 635 85 l 2
EndSplineSet
Validated: 1
EndChar

StartChar: eng
Encoding: 331 331 264
Width: 532
Flags: W
HStem: -3 29<51.1875 109.285 212.966 270.593> 371 67<261.8 355.51>
VStem: 122 77<36.4871 338.864> 392 77<-82.6719 331.999>
LayerCount: 2
Fore
SplineSet
469 251 m 2
 469 68 l 2
 469 32 465 -65 430 -120 c 0
 394 -177 333 -217 296 -231 c 1
 291 -228 286 -221 284 -216 c 0
 283 -214 282 -210 283 -209 c 0
 285 -203 392 -182 392 46 c 2
 392 227 l 2
 392 333 355 371 294 371 c 0
 249 371 202 323 199 316 c 1
 199 135 l 2
 199 102 200 73 207 46 c 0
 210 35 259 26 267 26 c 0
 272 26 272 3 270 -3 c 1
 230 -1 201 2 163 2 c 0
 122 2 95 -1 54 -3 c 1
 49 2 49 26 54 26 c 0
 66 26 112 35 115 46 c 0
 121 71 122 102 122 116 c 2
 122 305 l 2
 122 313 121 345 108 359 c 1
 86 386 50 376 50 382 c 0
 50 383 51 406 56 407 c 0
 101 414 157 422 194 433 c 0
 195 433 198 434 199 434 c 0
 205 434 205 418 204 413 c 0
 201 392 199 369 199 369 c 1
 199 367 204 367 204 367 c 1
 227 391 274 438 331 438 c 27
 422 438 469 365 469 251 c 2
EndSplineSet
Validated: 1
Substitution2: "'smcp' Lowercase to Small Capitals lookup 2-1" eng.sc
EndChar

StartChar: OE
Encoding: 338 338 271
Width: 1035
Flags: W
HStem: -7 37<318.495 505.123> 2 42<643.335 893.564> 309 44<637 814.451> 616 48<700.93 878.938> 616 40<640.952 800.267> 625 42<274.698 487.15>
VStem: 50 99<220.263 450.855> 550 87<71.3698 307.528 353.429 571.272> 843 32<230.002 287.868 373.107 427.976> 913 32<523.07 569.412>
LayerCount: 2
Fore
SplineSet
354 625 m 0xa7c0
 220 625 149 484 149 350 c 0
 149 195 240 30 402 30 c 0
 457 30 503 33 526 68 c 0
 550 104 550 138 550 192 c 2
 550 488 l 2
 550 523 546 558 515 586 c 0
 477 621 424 625 354 625 c 0xa7c0
369 667 m 0
 394 667 526 656 593 656 c 0x2bc0
 683 656 807 664 916 664 c 1
 923 614 936 573 945 528 c 1
 942 525 934 523 927 523 c 0
 920 523 914 525 913 530 c 0
 891 610 850 616 797 616 c 2
 730 616 l 2
 689 616 644 615 642 603 c 0
 638 584 637 542 637 519 c 2
 637 359 l 2
 637 354 658 353 680 353 c 2
 733 353 l 2
 829 353 826 355 843 421 c 0
 844 426 851 428 858 428 c 0
 865 428 872 426 875 423 c 1
 875 234 l 1
 873 232 866 230 859 230 c 0
 852 230 845 233 843 238 c 0
 828 295 824 295 815 301 c 0
 804 308 747 309 709 309 c 0
 681 309 637 309 637 300 c 2
 637 145 l 2
 637 126 639 74 646 54 c 0
 649 45 672 44 714 44 c 2
 762 44 l 2
 800 44 859 46 888 61 c 0
 907 71 935 109 951 162 c 0
 952 166 958 168 965 168 c 0
 975 168 987 165 990 162 c 1
 971 108 943 40 936 -4 c 1
 827 -4 686 2 595 2 c 0x73c0
 528 2 506 -1 477 -3 c 0
 462 -4 389 -7 364 -7 c 0
 188 -7 50 141 50 328 c 0
 50 515 193 667 369 667 c 0
EndSplineSet
Validated: 1
EndChar

StartChar: oe
Encoding: 339 339 272
Width: 807
Flags: W
HStem: -8 60<552.26 683.181> -7 39<220.124 335.046> 232 42<486.999 679.999> 397 39<199.668 315.837 532.009 635.554>
VStem: 50 86<128.728 314.399> 399 85<122.691 231.994 273.898 304.138> 680 77<246.5 348.761>
LayerCount: 2
Fore
SplineSet
267 436 m 0x7e
 338 436 401 402 441 349 c 1
 474 404 528 435 591 435 c 0
 722 435 757 329 757 261 c 0
 757 232 748 233 728 233 c 0
 645 231 576 232 492 232 c 0
 487 232 486 230 485 227 c 0
 485 226 484 225 484 224 c 0
 484 221 483 213 483 202 c 0
 483 198 484 194 484 190 c 0
 489 129 534 52 632 52 c 3
 707 52 742 98 749 98 c 3
 750 98 755 93 755 85 c 3
 755 80 753 71 749 67 c 0
 721 37 669 -8 601 -8 c 0xbe
 534 -8 474 24 438 77 c 1
 399 25 339 -7 269 -7 c 0
 147 -7 50 94 50 216 c 0
 50 340 143 436 267 436 c 0x7e
589 399 m 0
 508 399 487 302 487 281 c 0
 487 279 485 274 493 274 c 0
 502 274 672 272 675 274 c 0
 679 276 680 280 680 284 c 3
 680 314 646 399 589 399 c 0
256 397 m 0
 183 397 136 321 136 231 c 0
 136 121 203 32 278 32 c 0x7e
 351 32 399 112 399 202 c 0
 399 312 331 397 256 397 c 0
EndSplineSet
Validated: 33
Substitution2: "'smcp' Lowercase to Small Capitals lookup 2-1" oe.sc
EndChar

StartChar: Tbar
Encoding: 358 358 291
Width: 701
Flags: W
HStem: -3 29<228.006 292.855 408.335 469.997> 308 40<172.191 527.084> 615 45<106.011 299.684 400.25 594.989>
VStem: 43 34<521.684 575.415> 306 87<36.9151 607.652> 624 34<521.684 575.415>
LayerCount: 2
Fore
SplineSet
178 348 m 5
 207 348 508 348 522 348 c 4
 526 348 528 343 528 338 c 7
 528 332 526 317 522 308 c 5
 493 308 191 308 177 308 c 4
 173 308 172 316 172 321 c 7
 172 327 172 339 178 348 c 5
393 139 m 18
 393 103 395 73 402 46 c 0
 405 35 458 26 466 26 c 0
 469 26 470 17 470 11 c 0
 470 6 469 0 468 -3 c 1
 428 -1 396 2 352 2 c 0
 306 2 278 -1 232 -3 c 1
 230 -1 228 6 228 12 c 0
 228 18 230 26 232 26 c 0
 244 26 294 34 299 46 c 1
 305 69 306 117 306 135 c 2
 306 497 l 18
 306 537 305 586 297 600 c 0
 293 608 268 615 189 615 c 0
 112 615 96 600 77 526 c 0
 76 522 72 521 67 521 c 0
 58 521 46 525 43 528 c 1
 62 671 l 1
 78 667 117 660 131 660 c 0
 220 659 270 656 350 656 c 0
 430 656 481 659 570 660 c 0
 584 660 623 667 639 671 c 1
 658 528 l 1
 655 525 643 521 634 521 c 0
 629 521 625 522 624 526 c 0
 605 600 589 615 512 615 c 0
 433 615 404 608 402 600 c 0
 394 572 393 538 393 500 c 2
 393 139 l 18
EndSplineSet
Validated: 5
EndChar

StartChar: tbar
Encoding: 359 359 292
Width: 317
Flags: W
HStem: -7 48<172.894 266.512> 268 40<11.1905 290.084> 374 48<150 290.919>
VStem: 73 77<63.875 374>
LayerCount: 2
Fore
SplineSet
73 374 m 1
 15 374 l 2
 12 374 10 387 10 395 c 0
 10 399 10 401 11 402 c 1
 27 409 52 429 74 455 c 0
 98 484 117 522 120 526 c 1
 132 526 150 525 150 521 c 2
 150 422 l 1
 194 422 271 421 285 421 c 0
 290 421 293 418 293 412 c 0
 293 403 290 388 283 374 c 1
 150 374 l 1
 150 129 l 2
 150 76 180 41 224 41 c 0
 248 41 281 57 286 60 c 0
 291 63 301 41 300 40 c 0
 285 24 239 -7 190 -7 c 0
 128 -7 73 34 73 120 c 2
 73 374 l 1
17 308 m 5
 46 308 271 308 285 308 c 4
 289 308 291 303 291 298 c 7
 291 292 289 277 285 268 c 5
 256 268 30 268 16 268 c 4
 12 268 11 276 11 281 c 7
 11 287 11 299 17 308 c 5
EndSplineSet
Validated: 5
Substitution2: "'smcp' Lowercase to Small Capitals lookup 2-1" tbar.sc
EndChar

StartChar: Uogonek
Encoding: 370 370 303
Width: 757
VWidth: 0
Flags: W
HStem: -224 59<376.505 449.133> 0 49<305.945 451.004> 633 29<43.0511 106.079 224.221 284.997 474.074 547.881 634.826 708.993>
VStem: 121 87<165.404 621.28> 318 54<-161.236 -80.4004> 563 55<140.793 620.656>
LayerCount: 2
Fore
SplineSet
167 657 m 0
 211 657 243 660 283 662 c 1
 284 659 285 654 285 648 c 0
 285 641 284 633 281 633 c 0
 273 633 220 623 217 612 c 0
 210 585 208 555 208 519 c 2
 208 296 l 2
 208 148 272 49 392 49 c 0
 489 49 563 102 563 274 c 2
 563 524 l 2
 563 541 562 589 556 612 c 1
 551 624 489 635 477 635 c 0
 472 635 472 657 477 662 c 1
 523 660 549 656 595 656 c 0
 639 656 667 660 707 662 c 1
 708 659 709 652 709 647 c 0
 709 641 708 635 705 635 c 0
 697 635 629 623 626 612 c 0
 619 585 618 555 618 519 c 2
 618 276 l 2
 618 136 582 77 508 28 c 0
 448 -12 372 -64 372 -122 c 0
 372 -137 379 -165 413 -165 c 0
 464 -165 488 -127 494 -127 c 0
 495 -127 499 -132 499 -140 c 0
 499 -145 497 -153 494 -157 c 0
 472 -186 434 -224 389 -224 c 0
 333 -224 318 -174 318 -147 c 0
 318 -90 377 -22 421 3 c 1
 404 1 386 0 368 0 c 0
 217 0 121 79 121 296 c 2
 121 523 l 2
 121 541 120 589 114 612 c 1
 109 624 59 633 47 633 c 0
 45 633 43 640 43 646 c 0
 43 652 45 660 47 662 c 1
 93 660 121 657 167 657 c 0
EndSplineSet
Validated: 1
EndChar

StartChar: uogonek
Encoding: 371 371 304
Width: 564
VWidth: 0
Flags: W
HStem: -227 59<359.505 432.975> -7 66<226.909 317.694> 20 27<473.645 517.58> 414 20G<191.5 195 449.5 453>
VStem: 115 76<97.0861 366.601> 301 54<-164.236 -90.3575> 373 76<82.8832 366.601>
LayerCount: 2
Fore
SplineSet
115 305 m 6xde
 115 313 114 345 101 359 c 1
 79 386 43 376 43 382 c 0
 43 383 44 406 49 407 c 0
 94 414 150 422 187 433 c 0
 188 433 191 434 192 434 c 0
 198 434 198 418 197 413 c 0
 193 381 191 373 191 339 c 2
 191 204 l 2
 191 98 226 59 287 59 c 0xde
 331 59 373 96 373 113 c 2
 373 305 l 2
 373 313 372 345 359 359 c 1
 337 386 301 376 301 382 c 0
 301 383 302 406 307 407 c 0
 352 414 408 422 445 433 c 0
 446 433 449 434 450 434 c 0
 456 434 456 418 455 413 c 0
 451 381 449 375 449 341 c 2
 449 141 l 2
 449 130 450 93 456 65 c 0
 461 46 512 48 515 47 c 0
 517 46 518 39 518 36 c 0
 518 34 515 20 510 20 c 1xbe
 491 16 477 9 465 2 c 0
 441 -12 355 -71 355 -125 c 0
 355 -140 362 -168 396 -168 c 0
 447 -168 471 -130 477 -130 c 0
 478 -130 482 -135 482 -143 c 0
 482 -148 480 -157 477 -161 c 0
 455 -190 417 -227 372 -227 c 0
 316 -227 301 -177 301 -150 c 0
 301 -106 355 -40 403 -2 c 1
 396 -6 382 -8 381 -8 c 0
 376 -8 373 1 373 8 c 2
 373 54 l 2
 373 59 371 59 371 59 c 1
 351 41 305 -7 254 -7 c 0
 134 -7 115 109 115 179 c 2
 115 305 l 6xde
EndSplineSet
Validated: 1
Substitution2: "'smcp' Lowercase to Small Capitals lookup 2-1" uogonek.sc
EndChar

StartChar: uni0189
Encoding: 393 393 316
Width: 746
Flags: W
HStem: -3 46<205.517 470.11> -3 29<52.0058 112.623> 308 45<61.0959 131 218 358.904> 614 44<227.704 456.756> 629 29<51.0898 114.882>
VStem: 131 87<57.9039 308 353 603.534> 597 96<212.177 453.397>
LayerCount: 2
Fore
SplineSet
174 656 m 0x6e
 240 656 304 658 348 658 c 0
 579 658 693 496 693 336 c 0
 693 152 571 -3 347 -3 c 0xb6
 303 -3 241 2 176 0 c 1
 109 1 55 -3 55 -3 c 1
 54 -2 52 3 52 12 c 0
 52 18 53 26 55 26 c 0
 67 26 116 35 124 49 c 0
 131 61 131 106 131 143 c 2
 131 308 l 1
 59 308 l 1
 59 308 53 307 53 315 c 0
 53 319 56 334 61 349 c 0
 63 354 68 353 68 353 c 1
 131 353 l 1
 131 521 l 2
 131 539 130 584 124 607 c 1
 119 619 67 629 55 629 c 0
 53 629 51 634 51 641 c 0
 51 648 53 656 55 658 c 1
 55 658 107 656 174 656 c 0x6e
218 535 m 2
 218 353 l 1
 360 353 l 1
 360 353 369 356 367 344 c 0
 365 332 365 331 359 314 c 0
 357 309 352 308 352 308 c 1
 218 308 l 1
 218 139 l 2
 218 109 222 88 233 63 c 0
 240 48 347 43 363 43 c 0
 516 43 597 145 597 340 c 0
 597 478 521 614 356 614 c 2
 351 614 l 2
 327 614 242 613 231 598 c 0
 220 583 218 553 218 535 c 2
EndSplineSet
Validated: 33
EndChar

StartChar: uni0218
Encoding: 536 536 317
Width: 468
Flags: W
HStem: -227 181<197 265> -10 41<149.824 304.72> 625 41<163.362 299.749>
VStem: 26 41<119.3 183.72> 46 80<454.853 571.509> 223 64<-171.345 -91> 353 87<89.7983 213.651>
LayerCount: 2
Fore
SplineSet
186 -101 m 0xe6
 186 -76 205 -46 265 -46 c 1
 277 -56 287 -83 287 -99 c 0
 287 -168 235 -208 205 -225 c 0
 204 -226 201 -227 197 -227 c 0
 184 -227 177 -223 177 -220 c 0
 177 -215 223 -185 223 -161 c 0
 223 -134 186 -131 186 -101 c 0xe6
46 490 m 0xee
 46 596 142 666 242 666 c 0
 304 666 327 653 393 638 c 1
 405 585 405 522 405 495 c 0
 405 488 398 488 395 488 c 0
 391 488 371 488 369 498 c 0
 363 548 314 625 235 625 c 0
 147 625 126 569 126 521 c 0xee
 126 441 200 408 266 366 c 0
 332 324 440 272 440 173 c 0
 440 63 338 -10 231 -10 c 0
 163 -10 100 9 51 19 c 1
 39 78 26 166 26 178 c 0
 26 183 35 184 42 184 c 0
 53 184 64 179 67 175 c 1xf6
 74 145 101 31 233 31 c 0
 295 31 353 68 353 146 c 0
 353 229 289 250 220 290 c 0
 143 335 46 389 46 490 c 0xee
EndSplineSet
Validated: 1
EndChar

StartChar: uni0219
Encoding: 537 537 318
Width: 343
Flags: W
HStem: -227 181<127 195> -11 36<107.44 213.209> 402 35<126.116 225.962>
VStem: 27 28<81.3744 117.998> 32 77<294.31 381.036> 153 64<-171.345 -91> 234 81<55.7917 143.901> 263 28<317.037 357.157>
LayerCount: 2
Fore
SplineSet
116 -101 m 0xe4
 116 -76 135 -46 195 -46 c 1
 207 -56 217 -83 217 -99 c 0
 217 -168 165 -208 135 -225 c 0
 134 -226 131 -227 127 -227 c 0
 114 -227 107 -223 107 -220 c 0
 107 -215 153 -185 153 -161 c 0
 153 -134 116 -131 116 -101 c 0xe4
177 437 m 0
 216 437 235 429 279 424 c 1
 286 393 290 358 291 322 c 0
 291 318 283 317 278 317 c 0
 273 317 264 319 263 324 c 0
 257 358 224 402 181 402 c 0
 133 402 109 379 109 343 c 0xed
 109 291 160 276 205 249 c 0
 250 222 315 190 315 127 c 0
 315 46 242 -11 161 -11 c 0
 115 -11 88 0 44 8 c 1
 36 29 27 86 27 112 c 1
 31 115 34 118 39 118 c 0
 46 118 54 119 55 112 c 0xf6
 62 76 108 25 161 25 c 0
 202 25 234 47 234 93 c 0
 234 154 163 175 105 209 c 0
 65 232 32 262 32 315 c 0xee
 32 389 103 437 177 437 c 0
EndSplineSet
Validated: 1
Substitution2: "'smcp' Lowercase to Small Capitals lookup 2-1" uni0219.sc
EndChar

StartChar: uni021A
Encoding: 538 538 319
Width: 669
Flags: W
HStem: -227 181<299 367> -3 29<211.006 275.855 391.335 452.997> 615 45<89.0107 282.684 383.25 577.989>
VStem: 26 34<521.684 575.415> 289 87<36.9151 607.652> 325 64<-171.345 -91> 607 34<521.684 575.415>
LayerCount: 2
Fore
SplineSet
288 -101 m 0xf6
 288 -76 307 -46 367 -46 c 1
 379 -56 389 -83 389 -99 c 0
 389 -168 337 -208 307 -225 c 0
 306 -226 303 -227 299 -227 c 0
 286 -227 279 -223 279 -220 c 0
 279 -215 325 -185 325 -161 c 0
 325 -134 288 -131 288 -101 c 0xf6
289 135 m 2xfa
 289 497 l 2
 289 537 288 586 280 600 c 0
 276 608 251 615 172 615 c 0
 95 615 79 600 60 526 c 0
 59 522 55 521 50 521 c 0
 41 521 29 525 26 528 c 1
 45 671 l 1
 61 667 100 660 114 660 c 0
 203 659 253 656 333 656 c 0
 413 656 464 659 553 660 c 0
 567 660 606 667 622 671 c 1
 641 528 l 1
 638 525 626 521 617 521 c 0
 612 521 608 522 607 526 c 0
 588 600 572 615 495 615 c 0
 416 615 387 608 385 600 c 0
 377 572 376 538 376 500 c 2
 376 139 l 2
 376 103 378 73 385 46 c 0
 388 35 441 26 449 26 c 0
 452 26 453 17 453 11 c 0
 453 6 452 0 451 -3 c 1
 411 -1 379 2 335 2 c 0
 289 2 261 -1 215 -3 c 1
 213 -1 211 6 211 12 c 0
 211 18 213 26 215 26 c 0
 227 26 277 34 282 46 c 1
 288 69 289 117 289 135 c 2xfa
EndSplineSet
Validated: 1
EndChar

StartChar: uni021B
Encoding: 539 539 320
Width: 352
Flags: W
HStem: -227 181<174 242> -7 48<197.894 291.512> 374 48<175 315.919>
VStem: 98 77<63.875 374> 200 64<-171.345 -91>
LayerCount: 2
Fore
SplineSet
163 -101 m 0
 163 -76 182 -46 242 -46 c 1
 254 -56 264 -83 264 -99 c 0
 264 -168 212 -208 182 -225 c 0
 181 -226 178 -227 174 -227 c 0
 161 -227 154 -223 154 -220 c 0
 154 -215 200 -185 200 -161 c 0
 200 -134 163 -131 163 -101 c 0
98 374 m 1
 31 374 l 2
 28 374 26 383 26 391 c 0
 26 395 26 399 27 402 c 1
 43 412 74 435 97 460 c 0
 122 488 150 532 154 532 c 0
 166 532 175 531 175 527 c 2
 175 422 l 1
 219 422 296 421 310 421 c 0
 315 421 318 418 318 412 c 0
 318 403 315 388 308 374 c 1
 175 374 l 1
 175 129 l 2
 175 76 205 41 249 41 c 0
 273 41 306 57 311 60 c 0
 316 63 326 41 325 40 c 0
 310 24 264 -7 215 -7 c 0
 153 -7 98 34 98 120 c 2
 98 374 l 1
EndSplineSet
Validated: 1
Substitution2: "'smcp' Lowercase to Small Capitals lookup 2-1" uni021B.sc
EndChar

StartChar: uni0237
Encoding: 567 567 321
Width: 264
Flags: W
HStem: 414 20G<208.5 212>
VStem: 132 77<-83.5328 366.601>
LayerCount: 2
Fore
SplineSet
132 305 m 2
 132 313 131 345 118 359 c 1
 96 386 60 376 60 382 c 0
 60 383 61 406 66 407 c 0
 111 414 167 422 204 433 c 0
 205 433 208 434 209 434 c 0
 215 434 215 418 214 413 c 0
 210 381 209 375 209 341 c 2
 209 68 l 2
 209 32 205 -65 170 -120 c 0
 134 -177 73 -217 36 -231 c 1
 31 -228 26 -221 24 -216 c 0
 23 -214 22 -210 23 -209 c 0
 25 -203 132 -183 132 45 c 2
 132 305 l 2
EndSplineSet
Validated: 1
EndChar

StartChar: uni02BB
Encoding: 699 699 322
Width: 460
Flags: W
HStem: 476 181<514 582>
VStem: 492 64<521 600.267>
LayerCount: 2
Fore
SplineSet
593 531 m 0
 593 506 574 476 514 476 c 1
 502 486 492 513 492 529 c 0
 492 598 549 642 574 655 c 0
 575 656 578 657 582 657 c 0
 595 657 602 653 602 650 c 0
 602 645 556 615 556 591 c 0
 556 564 593 561 593 531 c 0
EndSplineSet
Validated: 1
EndChar

StartChar: afii57929
Encoding: 700 700 323
Width: 460
Flags: W
HStem: 465 187<511 578>
VStem: 532 61<527.257 624.398>
LayerCount: 2
Fore
SplineSet
510 601 m 0
 510 632 536 652 578 652 c 1
 588 640 593 618 593 590 c 0
 593 545 542 480 518 466 c 0
 517 465 513 465 511 465 c 0
 506 465 497 473 497 478 c 0
 497 481 532 503 532 548 c 0
 532 562 510 575 510 601 c 0
EndSplineSet
Validated: 1
EndChar

StartChar: uni02C0
Encoding: 704 704 324
Width: 460
Flags: W
HStem: 579 37<491.073 552.479>
VStem: 495 42<451.404 496.421> 556 52<518.671 576.434>
LayerCount: 2
Fore
SplineSet
522 579 m 4
 495 579 483 541 466 541 c 4
 451 541 448 556 448 562 c 5
 459 578 498 616 544 616 c 4
 579 616 608 597 608 560 c 4
 608 530 575 510 556 495 c 4
 546.165 487.236 537 482 537 472 c 4
 537 466 540 461 542 458 c 5
 542 455 533 450 526 450 c 4
 510 450 495 460 495 477 c 4
 495 488 519.942 502.785 537 517 c 4
 549 527 556 537 556 549 c 4
 556 565 540 579 522 579 c 4
EndSplineSet
Validated: 1
EndChar

StartChar: circumflex
Encoding: 710 710 325
Width: 460
Flags: W
HStem: 492 149
VStem: 540 199
LayerCount: 2
Fore
SplineSet
732 492 m 0
 721 492 666 534 639 558 c 1
 612 532 560 492 549 492 c 0
 543 492 540 510 540 515 c 1
 547 525 570 548 594 578 c 0
 607 594 620 612 631 631 c 0
 635 638 635 641 639 641 c 0
 643 641 646 637 649 631 c 0
 660 613 672 593 685 576 c 0
 711 543 738 518 739 515 c 1
 739 506 737 492 732 492 c 0
EndSplineSet
Validated: 1
EndChar

StartChar: caron
Encoding: 711 711 326
Width: 460
Flags: W
HStem: 493 148
VStem: 540 200
LayerCount: 2
Fore
SplineSet
639 575 m 1
 666 599 721 641 732 641 c 0
 737 641 740 627 740 618 c 1
 739 615 711 590 685 557 c 0
 672 540 660 520 649 502 c 0
 646 496 644 493 640 493 c 0
 637 493 635 495 631 502 c 0
 620 521 607 538 594 554 c 0
 570 584 547 608 540 618 c 1
 540 623 543 641 549 641 c 0
 560 641 612 601 639 575 c 1
EndSplineSet
Validated: 1
EndChar

StartChar: breve
Encoding: 728 728 327
Width: 460
Flags: W
HStem: 520 46<527.068 642.932> 621 20G<491 495 675 679>
VStem: 476 22<621.095 638.805> 672 22<620.096 638.805>
LayerCount: 2
Fore
SplineSet
585 566 m 0
 627 566 662 595 672 638 c 0
 672 640 674 641 676 641 c 0
 682 641 694 633 694 628 c 0
 694 627 693 622 693 620 c 0
 684 567 639 520 585 520 c 0
 531 520 486 564 477 621 c 0
 477 623 476 627 476 628 c 0
 476 633 488 641 494 641 c 0
 496 641 498 640 498 638 c 0
 508 595 543 566 585 566 c 0
EndSplineSet
Validated: 1
EndChar

StartChar: dotaccent
Encoding: 729 729 328
Width: 460
Flags: W
HStem: 495 100<541.438 624.562>
VStem: 533 100<503.438 586.562>
LayerCount: 2
Fore
SplineSet
533 545 m 0
 533 573 555 595 583 595 c 0
 611 595 633 573 633 545 c 0
 633 517 611 495 583 495 c 0
 555 495 533 517 533 545 c 0
EndSplineSet
Validated: 1
EndChar

StartChar: ring
Encoding: 730 730 329
Width: 460
Flags: W
HStem: 502 34<549.68 625.973> 647 34<548.263 626.425>
VStem: 500 33<552.832 630.822> 642 33<552.832 630.822>
LayerCount: 2
Fore
SplineSet
533 592 m 0
 533 561 558 536 588 536 c 0
 618 536 642 561 642 592 c 0
 642 623 618 647 588 647 c 0
 558 647 533 623 533 592 c 0
500 592 m 0
 500 641 540 681 588 681 c 0
 636 681 675 641 675 592 c 0
 675 543 636 502 588 502 c 0
 540 502 500 543 500 592 c 0
EndSplineSet
Validated: 1
EndChar

StartChar: ogonek
Encoding: 731 731 330
Width: 460
Flags: W
HStem: -218 59<533.505 606.133>
VStem: 475 54<-155.236 -80.9335>
LayerCount: 2
Fore
SplineSet
629 42 m 0
 646 42 670 37 658 25 c 0
 635 3 529 -52 529 -116 c 0
 529 -131 536 -159 570 -159 c 0
 621 -159 645 -121 651 -121 c 0
 652 -121 656 -126 656 -134 c 0
 656 -139 654 -147 651 -151 c 0
 629 -180 591 -218 546 -218 c 0
 490 -218 475 -168 475 -141 c 0
 475 -75 600 42 629 42 c 0
EndSplineSet
Validated: 33
EndChar

StartChar: hungarumlaut
Encoding: 733 733 332
Width: 460
Flags: W
HStem: 527 160<638 655>
VStem: 506 295
LayerCount: 2
Fore
SplineSet
760 687 m 0
 795 687 801 668 801 663 c 0
 801 624 655 527 645 527 c 0
 638 527 633 534 633 540 c 0
 633 546 690 637 726 678 c 0
 731 683 746 687 760 687 c 0
633 687 m 0
 668 687 674 668 674 663 c 0
 674 624 528 527 518 527 c 0
 511 527 506 534 506 540 c 0
 506 546 563 637 599 678 c 0
 604 683 619 687 633 687 c 0
EndSplineSet
Validated: 1
EndChar

StartChar: gravecomb
Encoding: 768 768 333
Width: 247
Flags: W
HStem: 527 160
VStem: 47 168
LayerCount: 2
Fore
SplineSet
47 663 m 0
 47 668 53 687 88 687 c 0
 102 687 117 683 122 678 c 0
 159 635 215 545 215 540 c 0
 215 534 210 527 203 527 c 0
 193 527 47 624 47 663 c 0
EndSplineSet
Validated: 1
EndChar

StartChar: acutecomb
Encoding: 769 769 334
Width: 234
Flags: W
HStem: 527 160
VStem: 46 168
LayerCount: 2
Fore
SplineSet
173 687 m 0
 208 687 214 668 214 663 c 0
 214 624 68 527 58 527 c 0
 51 527 46 534 46 540 c 0
 46 546 103 637 139 678 c 0
 144 683 159 687 173 687 c 0
EndSplineSet
Validated: 1
EndChar

StartChar: uni0302
Encoding: 770 770 335
Width: 424
Flags: W
HStem: 492 149
VStem: 80 199
LayerCount: 2
Fore
SplineSet
272 492 m 0
 261 492 206 534 179 558 c 1
 152 532 100 492 89 492 c 0
 83 492 80 510 80 515 c 1
 87 525 110 548 134 578 c 0
 147 594 160 612 171 631 c 0
 175 638 175 641 179 641 c 0
 183 641 186 637 189 631 c 0
 200 613 212 593 225 576 c 0
 251 543 278 518 279 515 c 1
 279 506 277 492 272 492 c 0
EndSplineSet
Validated: 1
EndChar

StartChar: tildecomb
Encoding: 771 771 336
Width: 404
Flags: W
HStem: 505 51<176.959 288.034> 548 50<57.9399 166.163>
VStem: 32 282<534 569>
LayerCount: 2
Fore
SplineSet
248 556 m 4xa0
 270 556 290 570 299 590 c 5
 301 591 304 591 305 591 c 4
 310 591 314 582 314 575 c 4
 314 534 262 505 236 505 c 4xa0
 179 505 150 548 96 548 c 4
 76 548 56 533 47 513 c 5
 45 512 42 512 41 512 c 4
 36 512 32 521 32 528 c 4
 32 569 84 598 110 598 c 4x60
 166 598 192 556 248 556 c 4xa0
EndSplineSet
Validated: 1
EndChar

StartChar: uni0304
Encoding: 772 772 337
Width: 384
Flags: W
HStem: 550 46<81.2097 298.904>
VStem: 80 225<550.013 596>
LayerCount: 2
Fore
SplineSet
80 559 m 0
 80 561 81 596 92 596 c 2
 300 596 l 2
 302 596 305 595 305 589 c 0
 305 584 304 575 299 557 c 0
 297 551 292 550 292 550 c 1
 86 550 l 1
 86 550 80 549 80 559 c 0
EndSplineSet
Validated: 1
EndChar

StartChar: uni0305
Encoding: 773 773 338
Width: 565
Flags: W
HStem: 739 63<-11.4404 578.903>
LayerCount: 2
Fore
SplineSet
-15 749 m 0
 -15 751 -12 802 -1 802 c 2
 581 802 l 2
 583 802 587 801 587 793 c 0
 587 775 580 750 579 746 c 0
 577 740 571 739 571 739 c 1
 -9 739 l 1
 -9 739 -15 739 -15 749 c 0
EndSplineSet
Validated: 1
EndChar

StartChar: uni0306
Encoding: 774 774 339
Width: 252
Flags: W
HStem: 520 46<67.068 182.932> 621 20G<31 35 215 219>
VStem: 16 22<621.095 638.805> 212 22<620.096 638.805>
LayerCount: 2
Fore
SplineSet
125 566 m 0
 167 566 202 595 212 638 c 0
 212 640 214 641 216 641 c 0
 222 641 234 633 234 628 c 0
 234 627 233 622 233 620 c 0
 224 567 179 520 125 520 c 0
 71 520 26 564 17 621 c 0
 17 623 16 627 16 628 c 0
 16 633 28 641 34 641 c 0
 36 641 38 640 38 638 c 0
 48 595 83 566 125 566 c 0
EndSplineSet
Validated: 1
EndChar

StartChar: uni0307
Encoding: 775 775 340
Width: 262
Flags: W
HStem: 495 100<81.4375 164.562>
VStem: 73 100<503.438 586.562>
LayerCount: 2
Fore
SplineSet
73 545 m 0
 73 573 95 595 123 595 c 0
 151 595 173 573 173 545 c 0
 173 517 151 495 123 495 c 0
 95 495 73 517 73 545 c 0
EndSplineSet
Validated: 1
EndChar

StartChar: uni0308
Encoding: 776 776 341
Width: 333
Flags: W
HStem: 471 92<37.6421 116.358 220.642 299.358>
VStem: 30 94<478.646 555.037> 213 94<478.646 555.037>
LayerCount: 2
Fore
SplineSet
261 563 m 0
 286 563 307 541 307 516 c 0
 307 491 285 471 260 471 c 0
 235 471 213 492 213 517 c 0
 213 542 236 563 261 563 c 0
78 563 m 0
 103 563 124 541 124 516 c 0
 124 491 102 471 77 471 c 0
 52 471 30 492 30 517 c 0
 30 542 53 563 78 563 c 0
EndSplineSet
Validated: 1
EndChar

StartChar: hookabovecomb
Encoding: 777 777 342
Width: 180
Flags: W
HStem: 626 29<68.258 119.225>
VStem: 18 46<570.661 622.444> 48 42<490.096 536.298> 124 41<563.096 624.757>
LayerCount: 2
Fore
SplineSet
111 655 m 0xd0
 146 655 165 634 165 604 c 0
 165 571 137 548 114 538 c 0
 96 530 90 525 90 513 c 0
 90 505 95 497 98 494 c 1
 98 489 87 480 82 480 c 1
 76 482 48 493 48 513 c 0xb0
 48 538 78 550 93 557 c 0
 113 566 124 577 124 594 c 0
 124 610 114 626 96 626 c 0
 76 626 64 617 64 590 c 0
 64 575 46 570 34 570 c 0
 27 570 18 574 18 579 c 0
 18 613 68 655 111 655 c 0xd0
EndSplineSet
Validated: 1
EndChar

StartChar: uni030A
Encoding: 778 778 343
Width: 244
Flags: W
HStem: 502 34<89.6802 165.973> 647 34<88.263 166.425>
VStem: 40 33<552.832 630.822> 182 33<552.832 630.822>
LayerCount: 2
Fore
SplineSet
73 592 m 0
 73 561 98 536 128 536 c 0
 158 536 182 561 182 592 c 0
 182 623 158 647 128 647 c 0
 98 647 73 623 73 592 c 0
40 592 m 0
 40 641 80 681 128 681 c 0
 176 681 215 641 215 592 c 0
 215 543 176 502 128 502 c 0
 80 502 40 543 40 592 c 0
EndSplineSet
Validated: 1
EndChar

StartChar: uni030B
Encoding: 779 779 344
Width: 363
Flags: W
HStem: 527 160<178 195>
VStem: 46 295
LayerCount: 2
Fore
SplineSet
300 687 m 0
 335 687 341 668 341 663 c 0
 341 624 195 527 185 527 c 0
 178 527 173 534 173 540 c 0
 173 546 230 637 266 678 c 0
 271 683 286 687 300 687 c 0
173 687 m 0
 208 687 214 668 214 663 c 0
 214 624 68 527 58 527 c 0
 51 527 46 534 46 540 c 0
 46 546 103 637 139 678 c 0
 144 683 159 687 173 687 c 0
EndSplineSet
Validated: 1
EndChar

StartChar: uni030C
Encoding: 780 780 345
Width: 424
Flags: W
HStem: 493 148
VStem: 80 200
LayerCount: 2
Fore
SplineSet
179 575 m 1
 206 599 261 641 272 641 c 0
 277 641 280 627 280 618 c 1
 279 615 251 590 225 557 c 0
 212 540 200 520 189 502 c 0
 186 496 184 493 180 493 c 0
 177 493 175 495 171 502 c 0
 160 521 147 538 134 554 c 0
 110 584 87 608 80 618 c 1
 80 623 83 641 89 641 c 0
 100 641 152 601 179 575 c 1
EndSplineSet
Validated: 1
EndChar

StartChar: uni0312
Encoding: 786 786 346
Width: 215
Flags: W
HStem: 476 181<54 122>
VStem: 32 64<521 600.267>
LayerCount: 2
Fore
SplineSet
133 531 m 0
 133 506 114 476 54 476 c 1
 42 486 32 513 32 529 c 0
 32 598 89 642 114 655 c 0
 115 656 118 657 122 657 c 0
 135 657 142 653 142 650 c 0
 142 645 96 615 96 591 c 0
 96 564 133 561 133 531 c 0
EndSplineSet
Validated: 1
EndChar

StartChar: uni0315
Encoding: 789 789 347
Width: 160
Flags: W
HStem: 465 187<51 118>
VStem: 72 61<527.257 624.398>
LayerCount: 2
Fore
SplineSet
50 601 m 0
 50 632 76 652 118 652 c 1
 128 640 133 618 133 590 c 0
 133 545 82 480 58 466 c 0
 57 465 53 465 51 465 c 0
 46 465 37 473 37 478 c 0
 37 481 72 503 72 548 c 0
 72 562 50 575 50 601 c 0
EndSplineSet
Validated: 1
EndChar

StartChar: uni0323
Encoding: 803 803 348
Width: 262
Flags: W
HStem: -132 100<102.438 185.562>
VStem: 94 100<-123.562 -40.4375>
LayerCount: 2
Fore
SplineSet
94 -82 m 0
 94 -54 116 -32 144 -32 c 0
 172 -32 194 -54 194 -82 c 0
 194 -110 172 -132 144 -132 c 0
 116 -132 94 -110 94 -82 c 0
EndSplineSet
Validated: 1
EndChar

StartChar: uni0326
Encoding: 806 806 349
Width: 215
Flags: W
HStem: -227 181<52 120>
VStem: 78 64<-171.345 -91>
LayerCount: 2
Fore
SplineSet
41 -101 m 0
 41 -76 60 -46 120 -46 c 1
 132 -56 142 -83 142 -99 c 0
 142 -168 90 -208 60 -225 c 0
 59 -226 56 -227 52 -227 c 0
 39 -227 32 -223 32 -220 c 0
 32 -215 78 -185 78 -161 c 0
 78 -134 41 -131 41 -101 c 0
EndSplineSet
Validated: 1
EndChar

StartChar: uni0327
Encoding: 807 807 350
Width: 443
Flags: W
HStem: -152 24<178.049 242.387> -61 34<220 247.414>
VStem: 252 37<-122.34 -64.0801>
LayerCount: 2
Fore
SplineSet
220 -27 m 1
 245 -27 l 2
 271 -27 289 -50 289 -76 c 0
 289 -123 247 -152 195 -152 c 0
 183 -152 167 -147 161 -143 c 1
 160 -138 158 -135 158 -129 c 0
 158 -122 166 -115 172 -115 c 0
 184 -115 193 -128 209 -128 c 0
 237 -128 252 -112 252 -95 c 0
 252 -71 234 -61 221 -61 c 0
 210 -61 205 -64 195 -68 c 0
 193 -68 183 -59 185 -55 c 0
 194 -40 209 -18 217 -4 c 1
 238 -4 l 1
 220 -27 l 1
EndSplineSet
Validated: 1
EndChar

StartChar: uni0328
Encoding: 808 808 351
Width: 220
Flags: W
HStem: -218 59<73.5049 146.133>
VStem: 15 54<-155.236 -80.9335>
LayerCount: 2
Fore
SplineSet
169 42 m 0
 186 42 210 37 198 25 c 0
 175 3 69 -52 69 -116 c 0
 69 -131 76 -159 110 -159 c 0
 161 -159 185 -121 191 -121 c 0
 192 -121 196 -126 196 -134 c 0
 196 -139 194 -147 191 -151 c 0
 169 -180 131 -218 86 -218 c 0
 30 -218 15 -168 15 -141 c 0
 15 -75 140 42 169 42 c 0
EndSplineSet
Validated: 33
EndChar

StartChar: alpha
Encoding: 945 945 352
Width: 499
Flags: W
HStem: -9 40<105.022 181.501> -3 75<344.196 432.184> 365 72<176.938 259.914>
VStem: 29 61<52.8767 239.517> 290 38<279 331.133> 379 56<373.928 403.439>
LayerCount: 2
Fore
SplineSet
328 142 m 1xbc
 337 83 354 72 379 72 c 0
 413 72 452 106 457 117 c 1
 465 114 470 99 470 94 c 0
 470 86 441 -3 391 -3 c 0x7c
 349 -3 307 54 302 103 c 1
 256 37 216 -9 153 -9 c 0
 74 -9 29 51 29 166 c 0
 29 238 78 437 206 437 c 0
 256 437 321 372 321 279 c 1
 348 345 368 407 379 436 c 1
 396 436 435 410 435 382 c 0
 435 355 414 302 397 266 c 0
 373 216 328 142 328 142 c 1xbc
222 365 m 0
 156 365 90 227 90 123 c 0
 90 61 108 31 135 31 c 0xbc
 205 31 290 186 290 219 c 1
 290 298 276 365 222 365 c 0
EndSplineSet
Validated: 1
EndChar

StartChar: beta
Encoding: 946 946 353
Width: 452
Flags: W
HStem: -228 21G<91 99> -6 66<186.435 300.479> 297 71<178.943 223.844> 629 64<168.954 279.439>
VStem: 34 63<-209.944 541.381> 306 49<449.234 607.319> 354 65<119.278 271.093>
LayerCount: 2
Fore
SplineSet
354 215 m 0xfa
 354 272 315 336 272 336 c 0
 268 336 269 335 265 334 c 1
 239 311 215 297 203 297 c 1
 197 300 185 310 177 322 c 24
 170 332 166 338 166 350 c 0
 166 357 172 363 182 368 c 0
 264 406 306 452 306 542 c 0
 306 596 280 629 232 629 c 0
 134 629 89 504 91 404 c 0
 92 358 96 59 97 0 c 0
 98 -70 111 -190 119 -211 c 1
 112 -221 104 -228 94 -228 c 0
 88 -228 34 -207 34 -192 c 2
 34 401 l 2
 34 602 107 693 199 693 c 0
 320 693 355 581 355 508 c 0xfc
 355 461 330 409 301 372 c 1
 347 349 419 277 419 184 c 0
 419 68 347 -6 277 -6 c 0
 196 -6 153 36 138 60 c 1
 136 67 136 75 136 83 c 0
 136 87 139 94 141 94 c 0
 147 94 175 60 241 60 c 0
 291 60 354 103 354 215 c 0xfa
EndSplineSet
Validated: 33
EndChar

StartChar: gamma
Encoding: 947 947 354
Width: 489
Flags: W
HStem: -227 21G<205.5 231> 362 71<65.1115 161.875>
VStem: 169 90<-213.764 -87> 233 39<-9.91388 16.7139 102 217.562> 386 73<294.689 423.27>
LayerCount: 2
Fore
SplineSet
259 -196 m 0xe8
 255 -227 243 -227 219 -227 c 0
 192 -227 168 -186 169 -181 c 0xe8
 171 -163 205 -22 233 40 c 1
 233 83 228 94 226 124 c 0
 210 326 161 362 97 362 c 0
 71 362 47 341 40 332 c 1
 37 332 33 337 30 342 c 0
 28 346 27 350 27 353 c 1
 40 397 80 433 120 433 c 0
 209 432 254 288 262 155 c 0
 263 142 266 110 266 102 c 1
 294 156 335 202 361 284 c 0
 386 362 386 397 386 424 c 0
 386 436 399 436 401 436 c 0
 425 436 459 412 459 394 c 0
 459 372 447 305 419 239 c 0
 383 155 292 18 283 4 c 0
 276 -9 273 -10 272 -42 c 0xd8
 270 -95 267 -134 259 -196 c 0xe8
EndSplineSet
Validated: 33
EndChar

StartChar: delta
Encoding: 948 948 355
Width: 447
Flags: W
HStem: -6 36<136.631 252.682> 345 38<184.563 280.295> 639 54<144.535 248.542>
VStem: 29 75<85.8153 244.382> 74 58<546.474 626.416> 337 77<117.185 300.803>
LayerCount: 2
Fore
SplineSet
29 170 m 0xf4
 29 278 133 383 225 383 c 0
 250 383 274 380 296 366 c 9
 309 324 l 17
 297 338 270 345 233 345 c 0
 156 345 104 222 104 138 c 0xf4
 104 72 131 30 191 30 c 0
 266 30 337 104 337 218 c 0
 337 412 74 489 74 602 c 0
 74 657 131 693 180 693 c 0
 247 693 340 606 361 574 c 0
 376 551 382 531 382 519 c 0
 382 513 369 506 367 509 c 0
 340 548 280 639 193 639 c 0
 162 639 132 616 132 588 c 0xec
 132 501 414 415 414 201 c 0
 414 103 343 -6 213 -6 c 0
 99 -6 29 80 29 170 c 0xf4
EndSplineSet
Validated: 5
EndChar

StartChar: epsilon
Encoding: 949 949 356
Width: 361
Flags: W
HStem: -5 61<81.0369 257.34> 375 60<137.553 265.408>
VStem: 27 35<80.8691 143.165> 36 44<246.55 325.841>
LayerCount: 2
Fore
SplineSet
62 113 m 0xe0
 62 78 108 56 160 56 c 0
 249 56 321 106 326 106 c 0
 330 106 332 103 332 99 c 0
 332 90 331 83 329 77 c 1
 293 33 240 -5 175 -5 c 0
 88 -5 27 34 27 104 c 0xe0
 27 141 55 182 95 212 c 1
 61 229 36 257 36 292 c 0
 36 389 125 435 178 435 c 0
 254 435 290 395 299 387 c 0
 301 384 302 381 302 376 c 0
 302 370 300 361 297 358 c 1
 283 366 251 375 224 375 c 0
 140 375 80 320 80 280 c 0xd0
 80 249 120 235 137 235 c 1
 160 244 191 257 218 257 c 0
 224 257 232 255 238 253 c 1
 250 243 262 228 262 212 c 0
 262 209 263 198 254 198 c 0
 177 198 62 158 62 113 c 0xe0
EndSplineSet
Validated: 1
EndChar

StartChar: zeta
Encoding: 950 950 357
Width: 397
VWidth: 295
Flags: W
HStem: -3 71<75.4331 280.116> 12 74<145.638 310.255> 674 19<149.939 153.939>
VStem: 29 38<80.011 227.617> 60 58<574.55 653.945> 311 48<-59.7456 30.5>
LayerCount: 2
Fore
SplineSet
291 -105 m 1x74
 287 -105 269 -100 269 -90 c 1
 287 -80 311 -56 311 -17 c 0
 311 2 294 12 275 12 c 3x74
 241 12 190 -3 140 -3 c 3
 54 -3 29 52 29 132 c 1xb4
 29 254 92 396 175 536 c 1
 175 536 60 544 60 606 c 0
 60 662 130 690 140 693 c 1
 150 693 162 679 162 674 c 1
 143 664 118 628 118 607 c 0xac
 118 566 175 566 196 566 c 1
 247 636 311 693 339 693 c 0
 352 693 369 656 369 645 c 0
 369 630 367 622 348 608 c 0
 332 596 289 566 263 546 c 0
 195 492 67 260 67 116 c 0
 67 72 113 68 147 68 c 3xb4
 188 68 243 86 289 86 c 3
 339 86 359 42 359 19 c 0
 359 -49 319 -87 291 -105 c 1x74
EndSplineSet
Validated: 1
EndChar

StartChar: eta
Encoding: 951 951 358
Width: 492
Flags: W
HStem: -227 21G<433.5 442.5> -6 21G<176 187> 362 71<65.1115 133.077 291.669 375.955>
VStem: 125 80<9.07266 167.851> 390 50<72.5486 347.539>
LayerCount: 2
Fore
SplineSet
375 -182 m 0
 379 -110 390 73 390 252 c 0
 390 331 376 357 344 357 c 0
 277 357 229 278 205 207 c 1
 205 183 205 159 205 136 c 0
 205 123 204 52 205 14 c 1
 200 6 193 -6 181 -6 c 0
 171 -6 125 18 125 31 c 0
 125 49 132 99 151 188 c 0
 152 194 156 211 156 211 c 1
 156 292 143 362 97 362 c 0
 71 362 47 341 40 332 c 1
 37 332 33 337 30 342 c 0
 28 346 27 350 27 353 c 0
 40 397 80 433 120 433 c 0
 168 432 181 365 190 301 c 1
 220 371 270 440 340 440 c 0
 401 440 433 379 440 290 c 0
 449 171 441 -130 463 -209 c 1
 458 -217 447 -227 438 -227 c 0
 429 -227 374 -198 375 -182 c 0
EndSplineSet
Validated: 33
EndChar

StartChar: theta
Encoding: 952 952 359
Width: 461
VWidth: 390
Flags: W
HStem: -5 46<169.162 260.375> 330 48<108.716 350.672> 649 46<198.484 289.693>
VStem: 29 76<190.79 326.839 380.014 488.909> 352 77<187.021 325.537 380.953 502.417>
LayerCount: 2
Fore
SplineSet
226 378 m 1
 276 378 331 379 353 384 c 1
 350 500 322 649 246 649 c 0
 179 649 120 528 108 382 c 1
 120 379 180 378 226 378 c 1
229 695 m 0
 337 695 429 538 429 345 c 0
 429 152 337 -5 229 -5 c 0
 121 -5 29 152 29 345 c 0
 29 538 121 695 229 695 c 0
352 324 m 1
 324 326 275 330 226 330 c 0
 179 330 113 328 105 323 c 1
 105 321 105 320 105 318 c 0
 105 202 137 41 210 41 c 0
 283 41 344 163 352 324 c 1
EndSplineSet
Validated: 1
EndChar

StartChar: iota
Encoding: 953 953 360
Width: 204
Flags: W
HStem: -3 63<80.7106 154.375> 413 20G<54 62>
VStem: 34 75<155.595 419.952> 34 67<62.1681 335.549>
LayerCount: 2
Fore
SplineSet
105 -3 m 3xd0
 58 -3 34 39 34 89 c 0xd0
 34 112 34 288 34 416 c 17
 41 426 49 433 59 433 c 0
 65 433 109 412 109 397 c 9xe0
 106 282 103 201 101 101 c 0
 100 73 115 60 137 60 c 0
 149 60 163 61 169 65 c 1
 176 60 176 53 176 48 c 1
 176 40 142 -3 105 -3 c 3xd0
EndSplineSet
Validated: 33
EndChar

StartChar: kappa
Encoding: 954 954 361
Width: 496
Flags: W
HStem: -4 66<349.208 439.18> 362 71<65.1115 128.617> 386 50<357.912 439.762>
VStem: 108 87<15.4237 139.57>
LayerCount: 2
Fore
SplineSet
366 436 m 0xb0
 382 436 454 416 454 399 c 0
 454 396 454 388 453 386 c 1xb0
 341 386 262 305 224 232 c 1
 235 174 349 62 403 62 c 0
 449 62 452 72 463 77 c 1
 465 77 467 71 467 68 c 0
 467 60 465 52 464 49 c 1
 454 32 430 -4 376 -4 c 0
 302 -4 222 130 199 188 c 1
 198 186 196 182 196 180 c 0
 196 172 195 171 195 148 c 0
 195 98 189 44 185 14 c 1
 180 6 173 -6 161 -6 c 0
 151 -6 108 18 108 31 c 0
 108 49 120 104 141 180 c 0
 143 186 146 203 146 203 c 1
 146 284 143 362 97 362 c 0
 71 362 47 341 40 332 c 1
 37 332 33 337 30 342 c 0
 28 346 27 350 27 353 c 0
 40 397 80 433 120 433 c 0xd0
 168 432 171 342 180 278 c 1
 210 348 296 436 366 436 c 0xb0
EndSplineSet
Validated: 1
EndChar

StartChar: lambda
Encoding: 955 955 362
Width: 545
VWidth: 255
Flags: W
HStem: -3 63<425.123 495.211> 625 71<159.111 230.999>
LayerCount: 2
Fore
SplineSet
340 354 m 0
 355 237 373 166 388 133 c 0
 423 58 467 60 480 60 c 0
 494 60 503 62 509 65 c 1
 512 64 517 55 517 52 c 0
 517 50 518 49 517 46 c 1
 512 38 487 -3 444 -3 c 0
 345 -3 321 207 304 302 c 1
 273 239 123 27 101 -5 c 5
 94 -7 86 -8 80 -8 c 4
 56 -8 26 24 26 32 c 5
 77 52 208 273 284 424 c 1
 284 536 237 625 191 625 c 0
 165 625 141 604 134 595 c 1
 131 595 127 600 124 605 c 0
 122 609 121 613 121 616 c 0
 134 660 174 696 214 696 c 0
 290 696 322 492 340 354 c 0
EndSplineSet
Validated: 33
Substitution2: "Single Substitution lookup 46 subtable" u03BB.d
EndChar

StartChar: mu
Encoding: 956 956 363
Width: 492
Flags: W
HStem: -227 21G<75 86> -9 73<115.888 198.859 359.818 418.546> 417 20G<62 73 304 315>
VStem: 44 77<250.141 422.656> 48 45<86.9783 339.784> 286 77<250.141 422.656>
LayerCount: 2
Fore
SplineSet
150 -9 m 0xec
 108 -9 94 42 82 76 c 1
 84 51 82 -89 104 -207 c 1
 99 -215 92 -227 80 -227 c 0
 70 -227 27 -203 27 -190 c 0
 27 -172 36 100 48 204 c 1xec
 48 228 44 275 44 298 c 0
 44 311 45 379 44 417 c 1
 49 425 56 437 68 437 c 0
 78 437 121 413 121 400 c 0xf4
 121 382 117 335 98 246 c 0
 97 240 93 223 93 223 c 0
 93 144 108 64 144 64 c 0
 211 64 261 155 286 227 c 1
 286 251 286 275 286 298 c 0
 286 311 287 379 286 417 c 1
 291 425 298 437 310 437 c 0
 320 437 363 413 363 400 c 0
 363 382 359 335 340 246 c 0
 339 240 335 223 335 223 c 1
 334 141 347 67 393 67 c 0
 419 67 443 88 450 97 c 1
 453 97 457 92 460 87 c 0
 462 83 463 79 463 76 c 0
 450 32 410 -4 370 -4 c 0
 322 -3 309 64 300 128 c 1
 270 58 220 -9 150 -9 c 0xec
EndSplineSet
Validated: 33
EndChar

